<svg xmlns="http://www.w3.org/2000/svg" xmlns:xlink="http://www.w3.org/1999/xlink" width="65" height="60" viewBox="0 0 65 60"><defs><clipPath id="a"><rect width="52.415" height="41.489" fill="#2e2e2e"/></clipPath></defs><g transform="translate(6.227 9.344)"><g clip-path="url(#a)"><path d="M153.766,288.926H139.734a1.627,1.627,0,0,1-1.612-1.845l.327-2.424a5.068,5.068,0,0,1,5.006-4.376h6.591a5.068,5.068,0,0,1,5.006,4.376l.327,2.424a1.627,1.627,0,0,1-1.612,1.845m-10.312-7.159a3.578,3.578,0,0,0-3.534,3.089l-.327,2.424a.141.141,0,0,0,.14.161h14.032a.141.141,0,0,0,.14-.161l-.327-2.424a3.578,3.578,0,0,0-3.534-3.089Z" transform="translate(-121.923 -247.437)" fill="#2e2e2e"/><path d="M179.571,205.185a4.286,4.286,0,1,1,4.287-4.286,4.291,4.291,0,0,1-4.287,4.286m0-7.087a2.8,2.8,0,1,0,2.8,2.8,2.8,2.8,0,0,0-2.8-2.8" transform="translate(-154.744 -173.572)" fill="#2e2e2e"/><path d="M288.607,288.926H274.574a1.627,1.627,0,0,1-1.612-1.845l.327-2.424a5.068,5.068,0,0,1,5.006-4.376h6.591a5.068,5.068,0,0,1,5.006,4.376l.327,2.424h0a1.627,1.627,0,0,1-1.613,1.844M278.3,281.767a3.578,3.578,0,0,0-3.534,3.089l-.327,2.424a.141.141,0,0,0,.141.161h14.032a.142.142,0,0,0,.141-.162l-.327-2.423a3.578,3.578,0,0,0-3.534-3.089Z" transform="translate(-240.962 -247.437)" fill="#2e2e2e"/><path d="M314.415,205.185A4.286,4.286,0,1,1,318.7,200.9a4.291,4.291,0,0,1-4.286,4.286m0-7.087a2.8,2.8,0,1,0,2.8,2.8,2.8,2.8,0,0,0-2.8-2.8" transform="translate(-273.787 -173.572)" fill="#2e2e2e"/><path d="M38.754,150.777a2.85,2.85,0,0,1-2.847-2.847V124.537a.742.742,0,1,1,1.485,0V147.93a1.361,1.361,0,1,0,2.723,0V136.5a.743.743,0,0,1,1.485,0V147.93a2.85,2.85,0,0,1-2.846,2.847" transform="translate(-31.699 -109.288)" fill="#2e2e2e"/><path d="M11.262,114.951A2.85,2.85,0,0,1,8.415,112.1V100.675a.743.743,0,0,1,1.485,0V112.1a1.362,1.362,0,1,0,2.723,0V90.158a2.6,2.6,0,0,1,2.6-2.6h8.118a1.429,1.429,0,0,0,0-2.859h0l-5.763.015H4.958a3.477,3.477,0,0,0-3.473,3.473v7.467a1.361,1.361,0,1,0,2.723,0V88.769a.743.743,0,0,1,1.485,0v6.884a2.846,2.846,0,1,1-5.693,0V88.186a4.963,4.963,0,0,1,4.958-4.958l18.377-.015h.008a2.914,2.914,0,1,1,0,5.829H15.225a1.118,1.118,0,0,0-1.116,1.116V112.1a2.85,2.85,0,0,1-2.847,2.847" transform="translate(0 -73.462)" fill="#2e2e2e"/><path d="M45.861,8.572a4.286,4.286,0,1,1,4.286-4.286,4.291,4.291,0,0,1-4.286,4.286m0-7.088a2.8,2.8,0,1,0,2.8,2.8,2.8,2.8,0,0,0-2.8-2.8" transform="translate(-36.703 0.001)" fill="#2e2e2e"/><path d="M174.024,27.175h-4a.743.743,0,0,1,0-1.485h3.26V1.485h-33.2V7.83a.743.743,0,0,1-1.485,0V.742A.742.742,0,0,1,139.335,0h34.689a.742.742,0,0,1,.742.742v25.69a.742.742,0,0,1-.742.742" transform="translate(-122.351 0)" fill="#2e2e2e"/></g></g><rect width="65" height="60" transform="translate(0 0)" fill="none"/></svg>