<svg xmlns="http://www.w3.org/2000/svg" xmlns:xlink="http://www.w3.org/1999/xlink" width="65" height="60" viewBox="0 0 65 60"><defs><clipPath id="a"><rect width="36.315" height="36.315" fill="none"/></clipPath></defs><rect width="65" height="60" transform="translate(0 0)" fill="none"/><g transform="translate(13.379 11.468)"><g transform="translate(0 0)" clip-path="url(#a)"><path d="M129.7,135.817a1.44,1.44,0,0,1-1.021-.422l-12.13-12.13a1.446,1.446,0,0,1,0-2.042l4.673-4.673a1.444,1.444,0,0,1,2.042,0l12.13,12.13a1.444,1.444,0,0,1,0,2.042l-4.673,4.673a1.44,1.44,0,0,1-1.021.422m-7.457-18.247-4.673,4.673,12.13,12.13,4.674-4.674Z" transform="translate(-99.121 -99.408)" fill="#2e2e2e"/><path d="M18.838,22.261,5.927,9.028,3.382,8.2,0,3.361,3.361,0,8.2,3.382l.824,2.55L22.1,19ZM4.288,6.98l2.424.784L18.851,20.206,20.056,19,7.762,6.707,6.98,4.288,3.526,1.877,1.877,3.526Z" transform="translate(0.24 -0.05)" fill="#2e2e2e"/><rect width="1.444" height="14.613" transform="translate(21.177 21.908) rotate(-45)" fill="#2e2e2e"/><path d="M136,19.29l-1.021-1.021,1.7-1.7.47.246a6.278,6.278,0,0,0,1.257.487A6.154,6.154,0,0,0,145.916,9.7l-4.3,4.3-4.266-4.266,4.3-4.3a6.154,6.154,0,0,0-7.6,7.518,6.274,6.274,0,0,0,.486,1.253l.246.47L131.546,17.9l-1.021-1.021,2.5-2.5a8.013,8.013,0,0,1-.37-1.061A7.6,7.6,0,0,1,143.262,4.5l.923.44-4.8,4.8,2.224,2.223,4.8-4.8.44.922A7.6,7.6,0,0,1,138.025,18.7a7.992,7.992,0,0,1-1.064-.371Z" transform="translate(-111.437 -3.269)" fill="#2e2e2e"/><path d="M7.949,149.592a7.574,7.574,0,0,1-3.264-.738l-.922-.44,4.8-4.8-2.223-2.223-4.8,4.8-.44-.923A7.6,7.6,0,0,1,9.921,134.66a7.7,7.7,0,0,1,1.066.368l2.731-2.731,1.021,1.021-3.466,3.466-.47-.246a6.083,6.083,0,0,0-1.255-.483,6.151,6.151,0,0,0-7.516,7.6l4.3-4.3,4.265,4.265-4.3,4.3a6.151,6.151,0,0,0,7.6-7.515,6.087,6.087,0,0,0-.484-1.257l-.246-.47,1.935-1.935,1.021,1.021-1.2,1.2a7.715,7.715,0,0,1,.368,1.068,7.592,7.592,0,0,1-7.346,9.557" transform="translate(-0.071 -113.243)" fill="#2e2e2e"/></g></g></svg>