<svg xmlns="http://www.w3.org/2000/svg" xmlns:xlink="http://www.w3.org/1999/xlink" width="65" height="60" viewBox="0 0 65 60"><defs><clipPath id="a"><rect width="46.404" height="44.266" fill="#2e2e2e"/></clipPath></defs><g transform="translate(8.647 7.681)"><g clip-path="url(#a)"><path d="M226.7,236.943a.82.82,0,0,1-.811-.707l-1.532-11.06a2.585,2.585,0,0,0-2.55-2.221h-1.6a2.618,2.618,0,0,0-2.44,1.689l-2.183,5.807a.82.82,0,0,1-.767.531h-4.1a1.043,1.043,0,0,0-1.036,1.046.994.994,0,0,0,.982,1.029h5.272a1.634,1.634,0,0,0,1.518-1.019l1.221-2.984a.82.82,0,1,1,1.518.621l-1.221,2.985a3.269,3.269,0,0,1-3.037,2.038H210.66a2.624,2.624,0,0,1-2.622-2.622,2.7,2.7,0,0,1,2.676-2.733h3.536l1.983-5.276a4.266,4.266,0,0,1,3.974-2.752h1.6a4.232,4.232,0,0,1,4.174,3.636l1.532,11.06a.82.82,0,0,1-.7.925.8.8,0,0,1-.113.008" transform="translate(-181.118 -192.677)" fill="#2e2e2e"/><path d="M273.8,158.673a4.089,4.089,0,1,1,4.089-4.089,4.094,4.094,0,0,1-4.089,4.089m0-6.539a2.45,2.45,0,1,0,2.449,2.45,2.453,2.453,0,0,0-2.449-2.45" transform="translate(-234.811 -131.02)" fill="#2e2e2e"/><path d="M273,313.808a.82.82,0,0,1-.818-.777l-.133-2.564a.82.82,0,0,1,1.638-.085l.133,2.564a.82.82,0,0,1-.776.862H273" transform="translate(-236.844 -269.542)" fill="#2e2e2e"/><path d="M.821,236.943a.8.8,0,0,1-.113-.008.82.82,0,0,1-.7-.925l1.533-11.06a4.231,4.231,0,0,1,4.174-3.636h1.6a4.265,4.265,0,0,1,3.974,2.752l1.983,5.275h3.537a2.684,2.684,0,0,1,2.676,2.686,2.635,2.635,0,0,1-2.622,2.668H11.59a3.269,3.269,0,0,1-3.037-2.038l-1.221-2.985a.82.82,0,1,1,1.518-.621l1.221,2.984a1.634,1.634,0,0,0,1.518,1.019h5.272a.983.983,0,0,0,.982-.982,1.054,1.054,0,0,0-1.036-1.093H12.7a.82.82,0,0,1-.767-.531l-2.183-5.807a2.618,2.618,0,0,0-2.44-1.689h-1.6a2.585,2.585,0,0,0-2.549,2.221l-1.533,11.06a.82.82,0,0,1-.811.707" transform="translate(0 -192.677)" fill="#2e2e2e"/><path d="M29.785,158.673a4.089,4.089,0,1,1,4.089-4.089,4.094,4.094,0,0,1-4.089,4.089m0-6.539a2.45,2.45,0,1,0,2.449,2.45,2.453,2.453,0,0,0-2.449-2.45" transform="translate(-22.371 -131.02)" fill="#2e2e2e"/><path d="M73.684,313.809h-.043a.82.82,0,0,1-.776-.862L73,310.382a.829.829,0,0,1,.862-.776.82.82,0,0,1,.777.862l-.133,2.564a.82.82,0,0,1-.818.777" transform="translate(-63.435 -269.543)" fill="#2e2e2e"/><path d="M82.968,16.647a1.488,1.488,0,0,1-.635-.143,1.468,1.468,0,0,1-.85-1.34V13.728a2.717,2.717,0,0,1-2.689-2.714v-8.3A2.717,2.717,0,0,1,81.507,0H95.654a2.717,2.717,0,0,1,2.713,2.714v8.3a2.717,2.717,0,0,1-2.713,2.714H87.027l-3.12,2.577a1.472,1.472,0,0,1-.94.341M81.507,1.64a1.075,1.075,0,0,0-1.073,1.074v8.3a1.075,1.075,0,0,0,1.073,1.074h.8a.82.82,0,0,1,.82.82v1.918l3.088-2.551a.82.82,0,0,1,.522-.188h8.921a1.075,1.075,0,0,0,1.073-1.074v-8.3A1.075,1.075,0,0,0,95.654,1.64Z" transform="translate(-68.598)" fill="#2e2e2e"/><path d="M158.132,49.675a1.471,1.471,0,0,1-.94-.342l-3.12-2.577H146.34a.82.82,0,1,1,0-1.64h8.027a.82.82,0,0,1,.522.188l3.088,2.551V45.936a.82.82,0,0,1,.82-.82h.8a1.075,1.075,0,0,0,1.074-1.074v-8.3a1.075,1.075,0,0,0-1.074-1.074H158.6a.82.82,0,1,1,0-1.64h.991a2.717,2.717,0,0,1,2.714,2.714v8.3a2.717,2.717,0,0,1-2.689,2.714v1.435a1.468,1.468,0,0,1-.851,1.34,1.485,1.485,0,0,1-.634.143" transform="translate(-126.69 -28.754)" fill="#2e2e2e"/></g></g><rect width="65" height="60" transform="translate(0 0)" fill="none"/></svg>