<svg xmlns="http://www.w3.org/2000/svg" xmlns:xlink="http://www.w3.org/1999/xlink" width="65" height="60" viewBox="0 0 65 60"><defs><clipPath id="a"><rect width="47.459" height="45.486" fill="none"/></clipPath></defs><rect width="65" height="60" transform="translate(0 0)" fill="none"/><g transform="translate(8.372 7.363)"><g clip-path="url(#a)"><path d="M97.823,69.928a.745.745,0,0,1-.745-.745V29.067H81.716v25.08a.745.745,0,1,1-1.49,0V28.322a.745.745,0,0,1,.745-.745H97.823a.745.745,0,0,1,.745.745v40.86a.745.745,0,0,1-.745.745" transform="translate(-72.255 -24.837)" fill="#2e2e2e"/><path d="M118.164,4.057a.745.745,0,0,1-.745-.745V1.49H107.1V3.312a.745.745,0,0,1-1.49,0V.745A.745.745,0,0,1,106.356,0h11.808a.745.745,0,0,1,.745.745V3.312a.745.745,0,0,1-.745.745" transform="translate(-95.118)" fill="#2e2e2e"/><path d="M121.9,90.985h-.817a.745.745,0,0,1,0-1.49h.817a.745.745,0,1,1,0,1.49" transform="translate(-108.386 -80.603)" fill="#2e2e2e"/><path d="M162.487,90.985h-.817a.745.745,0,1,1,0-1.49h.817a.745.745,0,1,1,0,1.49" transform="translate(-144.937 -80.603)" fill="#2e2e2e"/><path d="M203.069,90.985h-.817a.745.745,0,1,1,0-1.49h.817a.745.745,0,0,1,0,1.49" transform="translate(-181.487 -80.603)" fill="#2e2e2e"/><path d="M121.9,138.017h-.817a.745.745,0,0,1,0-1.49h.817a.745.745,0,1,1,0,1.49" transform="translate(-108.386 -122.963)" fill="#2e2e2e"/><path d="M162.487,138.017h-.817a.745.745,0,1,1,0-1.49h.817a.745.745,0,1,1,0,1.49" transform="translate(-144.937 -122.963)" fill="#2e2e2e"/><path d="M203.069,138.017h-.817a.745.745,0,1,1,0-1.49h.817a.745.745,0,0,1,0,1.49" transform="translate(-181.487 -122.963)" fill="#2e2e2e"/><path d="M121.9,185.047h-.817a.745.745,0,0,1,0-1.49h.817a.745.745,0,1,1,0,1.49" transform="translate(-108.386 -165.32)" fill="#2e2e2e"/><path d="M162.487,185.047h-.817a.745.745,0,1,1,0-1.49h.817a.745.745,0,1,1,0,1.49" transform="translate(-144.937 -165.32)" fill="#2e2e2e"/><path d="M203.069,185.047h-.817a.745.745,0,1,1,0-1.49h.817a.745.745,0,0,1,0,1.49" transform="translate(-181.487 -165.32)" fill="#2e2e2e"/><path d="M121.9,232.078h-.817a.745.745,0,0,1,0-1.49h.817a.745.745,0,1,1,0,1.49" transform="translate(-108.386 -207.679)" fill="#2e2e2e"/><path d="M162.487,232.078h-.817a.745.745,0,1,1,0-1.49h.817a.745.745,0,1,1,0,1.49" transform="translate(-144.937 -207.679)" fill="#2e2e2e"/><path d="M203.069,232.078h-.817a.745.745,0,1,1,0-1.49h.817a.745.745,0,0,1,0,1.49" transform="translate(-181.487 -207.679)" fill="#2e2e2e"/><path d="M121.9,279.109h-.817a.745.745,0,0,1,0-1.49h.817a.745.745,0,1,1,0,1.49" transform="translate(-108.386 -250.037)" fill="#2e2e2e"/><path d="M162.487,279.109h-.817a.745.745,0,1,1,0-1.49h.817a.745.745,0,1,1,0,1.49" transform="translate(-144.937 -250.037)" fill="#2e2e2e"/><path d="M203.069,279.109h-.817a.745.745,0,1,1,0-1.49h.817a.745.745,0,0,1,0,1.49" transform="translate(-181.487 -250.037)" fill="#2e2e2e"/><path d="M121.9,326.14h-.817a.745.745,0,0,1,0-1.49h.817a.745.745,0,1,1,0,1.49" transform="translate(-108.386 -292.395)" fill="#2e2e2e"/><path d="M162.487,326.14h-.817a.745.745,0,1,1,0-1.49h.817a.745.745,0,1,1,0,1.49" transform="translate(-144.937 -292.395)" fill="#2e2e2e"/><path d="M203.069,326.14h-.817a.745.745,0,1,1,0-1.49h.817a.745.745,0,1,1,0,1.49" transform="translate(-181.487 -292.395)" fill="#2e2e2e"/><path d="M139.06,384.5a.745.745,0,0,1-.745-.745v-5.414h-5.136v5.414a.745.745,0,1,1-1.49,0V377.6a.745.745,0,0,1,.745-.745h6.626a.745.745,0,0,1,.745.745v6.159a.745.745,0,0,1-.745.745" transform="translate(-118.605 -339.414)" fill="#2e2e2e"/><path d="M267.443,125.695a.745.745,0,0,1-.745-.745V90.986H251.336V124.95a.745.745,0,0,1-1.49,0V90.241a.745.745,0,0,1,.745-.745h16.852a.745.745,0,0,1,.745.745V124.95a.745.745,0,0,1-.745.745" transform="translate(-225.023 -80.604)" fill="#2e2e2e"/><path d="M291.525,138.017h-.817a.745.745,0,1,1,0-1.49h.817a.745.745,0,1,1,0,1.49" transform="translate(-261.154 -122.963)" fill="#2e2e2e"/><path d="M332.108,138.017h-.817a.745.745,0,1,1,0-1.49h.817a.745.745,0,0,1,0,1.49" transform="translate(-297.705 -122.963)" fill="#2e2e2e"/><path d="M372.691,138.017h-.817a.745.745,0,0,1,0-1.49h.817a.745.745,0,0,1,0,1.49" transform="translate(-334.256 -122.963)" fill="#2e2e2e"/><path d="M291.525,185.047h-.817a.745.745,0,1,1,0-1.49h.817a.745.745,0,1,1,0,1.49" transform="translate(-261.154 -165.32)" fill="#2e2e2e"/><path d="M332.108,185.047h-.817a.745.745,0,1,1,0-1.49h.817a.745.745,0,0,1,0,1.49" transform="translate(-297.705 -165.32)" fill="#2e2e2e"/><path d="M372.691,185.047h-.817a.745.745,0,0,1,0-1.49h.817a.745.745,0,0,1,0,1.49" transform="translate(-334.256 -165.32)" fill="#2e2e2e"/><path d="M291.525,232.078h-.817a.745.745,0,1,1,0-1.49h.817a.745.745,0,1,1,0,1.49" transform="translate(-261.154 -207.679)" fill="#2e2e2e"/><path d="M332.108,232.078h-.817a.745.745,0,1,1,0-1.49h.817a.745.745,0,0,1,0,1.49" transform="translate(-297.705 -207.679)" fill="#2e2e2e"/><path d="M372.691,232.078h-.817a.745.745,0,0,1,0-1.49h.817a.745.745,0,0,1,0,1.49" transform="translate(-334.256 -207.679)" fill="#2e2e2e"/><path d="M291.525,279.109h-.817a.745.745,0,1,1,0-1.49h.817a.745.745,0,1,1,0,1.49" transform="translate(-261.154 -250.037)" fill="#2e2e2e"/><path d="M332.108,279.109h-.817a.745.745,0,1,1,0-1.49h.817a.745.745,0,0,1,0,1.49" transform="translate(-297.705 -250.037)" fill="#2e2e2e"/><path d="M372.691,279.109h-.817a.745.745,0,0,1,0-1.49h.817a.745.745,0,0,1,0,1.49" transform="translate(-334.256 -250.037)" fill="#2e2e2e"/><path d="M291.525,326.14h-.817a.745.745,0,1,1,0-1.49h.817a.745.745,0,1,1,0,1.49" transform="translate(-261.154 -292.395)" fill="#2e2e2e"/><path d="M332.108,326.14h-.817a.745.745,0,1,1,0-1.49h.817a.745.745,0,0,1,0,1.49" transform="translate(-297.705 -292.395)" fill="#2e2e2e"/><path d="M372.691,326.14h-.817a.745.745,0,0,1,0-1.49h.817a.745.745,0,0,1,0,1.49" transform="translate(-334.256 -292.395)" fill="#2e2e2e"/><path d="M315.849,384.5a.745.745,0,0,1-.745-.745v-5.414h-3.358v5.414a.745.745,0,1,1-1.49,0V377.6a.745.745,0,0,1,.745-.745h4.849a.745.745,0,0,1,.745.745v6.159a.745.745,0,0,1-.745.745" transform="translate(-279.43 -339.414)" fill="#2e2e2e"/><path d="M46.714,444.317H.745a.745.745,0,0,1,0-1.49H46.714a.745.745,0,0,1,0,1.49" transform="translate(0 -398.831)" fill="#2e2e2e"/><path d="M165.78,386.561a.745.745,0,0,1-.745-.745v-5.7a.745.745,0,0,1,1.49,0v5.7a.745.745,0,0,1-.745.745" transform="translate(-148.638 -341.679)" fill="#2e2e2e"/><path d="M2.624,310.825a.746.746,0,0,1-.227-.036A3.386,3.386,0,0,1,0,307.581a3.3,3.3,0,0,1,1.072-2.436,2.962,2.962,0,0,1-.279-1.25,3.046,3.046,0,0,1,1.61-2.654,2.486,2.486,0,0,1-.09-.664,2.59,2.59,0,0,1,2.626-2.545,2.631,2.631,0,0,1,2.449,1.626,3.078,3.078,0,0,1,2.578,2.993,2.94,2.94,0,0,1-.216,1.113,3.326,3.326,0,0,1,1.439,2.733,3.41,3.41,0,0,1-2.86,3.323.745.745,0,0,1-.261-1.467A1.923,1.923,0,0,0,9.7,306.5a1.886,1.886,0,0,0-1.246-1.747.745.745,0,0,1-.311-1.164,1.475,1.475,0,0,0,.335-.935A1.608,1.608,0,0,0,6.826,301.1H6.805a.745.745,0,0,1-.739-.649,1.11,1.11,0,0,0-1.127-.927A1.1,1.1,0,0,0,3.8,300.577a1,1,0,0,0,.214.615.745.745,0,0,1-.437,1.187,1.587,1.587,0,0,0-1.3,1.515,1.476,1.476,0,0,0,.354.958.745.745,0,0,1-.2,1.123,1.858,1.858,0,0,0-.952,1.606,1.9,1.9,0,0,0,1.361,1.788.745.745,0,0,1-.227,1.455" transform="translate(0 -268.422)" fill="#2e2e2e"/><path d="M49.552,371.822a.745.745,0,0,1-.745-.745v-7.783a.745.745,0,1,1,1.49,0v7.783a.745.745,0,0,1-.745.745" transform="translate(-43.958 -326.528)" fill="#2e2e2e"/><path d="M36.365,386.4a.746.746,0,0,1-.241-.04l-1.454-.5a.745.745,0,0,1,.482-1.41l1.455.5a.745.745,0,0,1-.241,1.451" transform="translate(-30.771 -346.216)" fill="#2e2e2e"/></g></g><g transform="translate(39.86 20.968)" fill="#fff" stroke="#2e2e2e" stroke-width="1.6"><ellipse cx="10.772" cy="10.772" rx="10.772" ry="10.772" stroke="none"/><ellipse cx="10.772" cy="10.772" rx="9.972" ry="9.972" fill="none"/></g><path d="M12885.527-3622.36l3.3,3.3,5.719-5.717" transform="translate(-12839.452 3653.617)" fill="none" stroke="#2e2e2e" stroke-linecap="round" stroke-linejoin="round" stroke-width="2"/></svg>