<svg xmlns="http://www.w3.org/2000/svg" width="65" height="60" viewBox="0 0 65 60"><rect width="65" height="60" transform="translate(0 0)" fill="none"/><g transform="translate(17.12 10.847)"><path d="M27.392,568.047a.653.653,0,0,1-.653-.653v-6.087H20.653a.653.653,0,0,1,0-1.306h6.74a.653.653,0,0,1,.653.653v6.74a.653.653,0,0,1-.653.653" transform="translate(-16.532 -533.705)" fill="#2e2e2e"/><path d="M17.452,32.476H10.124a3.16,3.16,0,0,1-2.249-.931L.931,24.6A3.159,3.159,0,0,1,0,22.352V.653A.653.653,0,0,1,.653,0H24.241a.653.653,0,0,1,.653.653V21.478a.653.653,0,0,1-1.306,0V1.306H1.306V22.352a1.862,1.862,0,0,0,.549,1.325L8.8,30.622a1.862,1.862,0,0,0,1.325.549h7.327a.653.653,0,0,1,0,1.306" transform="translate(2.626 2.708)" fill="#2e2e2e"/><path d="M207.392,121.306h-6.74a.653.653,0,1,1,0-1.306h6.74a.653.653,0,0,1,0,1.306" transform="translate(-188.949 -112.237)" fill="#2e2e2e"/><path d="M134.132,201.306H120.653a.653.653,0,0,1,0-1.306h13.479a.653.653,0,1,1,0,1.306" transform="translate(-112.319 -188.867)" fill="#2e2e2e"/><path d="M134.132,281.306H120.653a.653.653,0,0,1,0-1.306h13.479a.653.653,0,1,1,0,1.306" transform="translate(-112.319 -265.498)" fill="#2e2e2e"/><g transform="translate(0 0)"><g transform="translate(14.915 15.787)" fill="#fff" stroke="#2e2e2e" stroke-width="1.6"><ellipse cx="10.772" cy="10.772" rx="10.772" ry="10.772" stroke="none"/><ellipse cx="10.772" cy="10.772" rx="9.972" ry="9.972" fill="none"/></g><path d="M12885.527-3622.36l3.3,3.3,5.719-5.717" transform="translate(-12864.397 3648.436)" fill="none" stroke="#2e2e2e" stroke-linecap="round" stroke-linejoin="round" stroke-width="2"/><path d="M13537.806-4092.888v-24.164h23.8" transform="translate(-13537.806 4117.052)" fill="none" stroke="#2e2e2e" stroke-linecap="round" stroke-linejoin="round" stroke-width="1.3"/></g></g></svg>