<svg xmlns="http://www.w3.org/2000/svg" xmlns:xlink="http://www.w3.org/1999/xlink" width="65" height="60" viewBox="0 0 65 60"><defs><clipPath id="a"><rect width="52.415" height="41.489" fill="#2e2e2e"/></clipPath><clipPath id="b"><rect width="40.138" height="32.492" transform="translate(0 0)" fill="none"/></clipPath></defs><g transform="translate(7.885 11.423)"><g clip-path="url(#a)"><path d="M153.766,288.926H139.734a1.627,1.627,0,0,1-1.612-1.845l.327-2.424a5.068,5.068,0,0,1,5.006-4.376h6.591a5.068,5.068,0,0,1,5.006,4.376l.327,2.424a1.627,1.627,0,0,1-1.612,1.845m-10.312-7.159a3.578,3.578,0,0,0-3.534,3.089l-.327,2.424a.141.141,0,0,0,.14.161h14.032a.141.141,0,0,0,.14-.161l-.327-2.424a3.578,3.578,0,0,0-3.534-3.089Z" transform="translate(-119.437 -247.437)" fill="#2e2e2e"/><path d="M179.571,205.185a4.286,4.286,0,1,1,4.287-4.286,4.291,4.291,0,0,1-4.287,4.286m0-7.087a2.8,2.8,0,1,0,2.8,2.8,2.8,2.8,0,0,0-2.8-2.8" transform="translate(-152.258 -173.572)" fill="#2e2e2e"/><path d="M288.607,288.926H274.574a1.627,1.627,0,0,1-1.612-1.845l.327-2.424a5.068,5.068,0,0,1,5.006-4.376h6.591a5.068,5.068,0,0,1,5.006,4.376l.327,2.424h0a1.627,1.627,0,0,1-1.613,1.844M278.3,281.767a3.578,3.578,0,0,0-3.534,3.089l-.327,2.424a.141.141,0,0,0,.141.161h14.032a.142.142,0,0,0,.141-.162l-.327-2.423a3.578,3.578,0,0,0-3.534-3.089Z" transform="translate(-238.476 -247.437)" fill="#2e2e2e"/><path d="M314.415,205.185A4.286,4.286,0,1,1,318.7,200.9a4.291,4.291,0,0,1-4.286,4.286m0-7.087a2.8,2.8,0,1,0,2.8,2.8,2.8,2.8,0,0,0-2.8-2.8" transform="translate(-271.301 -173.572)" fill="#2e2e2e"/></g></g><rect width="65" height="60" transform="translate(0 0)" fill="none"/><g transform="translate(4.779 6.69)"><g transform="translate(0 0)" clip-path="url(#b)"><path d="M26.079,21.689H21.847a.688.688,0,1,1,0-1.375h3.544V1.375H1.375V5.766A.688.688,0,0,1,0,5.766V.688A.688.688,0,0,1,.688,0H26.079a.688.688,0,0,1,.688.688V21a.688.688,0,0,1-.688.688" transform="translate(0.003 -0.346)" fill="#222"/><path d="M291.227,174.455a3.227,3.227,0,1,1,3.227-3.227,3.231,3.231,0,0,1-3.227,3.227m0-5.078a1.851,1.851,0,1,0,1.851,1.851,1.854,1.854,0,0,0-1.851-1.851" transform="translate(-257.527 -150.573)" fill="#222"/><rect width="5.078" height="1.375" transform="translate(26.082 19.967)" fill="#222"/><path d="M311.458,86.07h-3.385a.688.688,0,1,1,0-1.375h2.7V82.982a3.616,3.616,0,0,0-.717-2.327,24.486,24.486,0,0,0-3.085-2.808.685.685,0,0,1-.219-.236c-.849-1.509-1.263-2.209-1.742-3.02-.26-.439-.539-.911-.915-1.559a.688.688,0,0,1,1.189-.691c.374.644.652,1.113.91,1.55.469.793.875,1.48,1.679,2.907a25.4,25.4,0,0,1,3.3,3.053,4.975,4.975,0,0,1,.976,3.131v2.4a.688.688,0,0,1-.688.688" transform="translate(-271.833 -64.728)" fill="#222"/><path d="M247.459,30.453h-4.232a.688.688,0,0,1,0-1.375h2.987c-1.179-1.632-3.259-3.7-4.152-3.7h-1.374a.688.688,0,0,1,0-1.375h1.379c2.1,0,5.282,4.045,6,5.452a.688.688,0,0,1-.612,1" transform="translate(-214.606 -21.806)" fill="#222"/><path d="M269.412,105.044a.7.7,0,0,1-.075,0l-3.879-.423a.688.688,0,0,1-.574-.455l-.846-2.4a.688.688,0,0,1,1.3-.458l.7,1.99,3.449.376a.688.688,0,0,1-.074,1.371" transform="translate(-236.064 -90.524)" fill="#222"/><path d="M36.073,57.839A4.154,4.154,0,0,1,32,53.524v-1.21a4.08,4.08,0,1,1,8.147,0v1.21a4.154,4.154,0,0,1-4.073,4.315m0-8.464a2.8,2.8,0,0,0-2.7,2.939v1.21a2.708,2.708,0,1,0,5.4,0v-1.21a2.8,2.8,0,0,0-2.7-2.939" transform="translate(-28.612 -43.268)" fill="#222"/><path d="M7.338,164.8a.692.692,0,0,1-.138-.014l-2.715-.553a3.26,3.26,0,0,1-2.558-1.727.687.687,0,0,1-.053-.1l-.722-1.594c-.138-.3-.271-.577-.389-.818A5.4,5.4,0,0,1,0,157.4c0-2.686,1.421-5.4,4.6-5.4H9.5a4.7,4.7,0,0,1,3.879,1.615c.854,1.031,1.656,2,1.656,2a.688.688,0,0,1-1.061.875s-.8-.971-1.654-2c-.649-.782-1.345-1.055-2.862-1.118H4.6c-2.378,0-3.221,2.166-3.221,4.021a4.184,4.184,0,0,0,.624,2c.121.249.259.53.405.852l.7,1.544A1.888,1.888,0,0,0,4.7,162.879l.041.007,2.735.557a.688.688,0,0,1-.136,1.362" transform="translate(0.003 -136.265)" fill="#222"/><path d="M42.7,199.589a.689.689,0,0,1-.23-.04l-1.97-.7a2.709,2.709,0,0,1-1.8-1.719l-.765-1.913a.688.688,0,0,1,1.277-.511l.765,1.913a1.364,1.364,0,0,0,.987.937l1.962.7a.688.688,0,0,1-.23,1.336" transform="translate(-33.881 -174.066)" fill="#222"/><path d="M123.685,220.761H120.7a.688.688,0,0,1-.685-.632,5,5,0,0,1,1.848-3.981.688.688,0,0,1,.425-.147h2.685a1.464,1.464,0,0,1,1.237.69,1.569,1.569,0,0,1,.1,1.515l-.575,1.225a2.253,2.253,0,0,1-2.043,1.331m-2.275-1.375h2.275a.892.892,0,0,0,.8-.54l.574-1.225a.2.2,0,0,0-.011-.193c-.033-.052-.066-.052-.076-.052h-2.423a3.843,3.843,0,0,0-1.137,2.01" transform="translate(-107.3 -193.494)" fill="#222"/><path d="M68.8,194.536H62.871a1.44,1.44,0,0,1-1.229-.685,1.467,1.467,0,0,1-.072-1.431l3.818-7.773a1.441,1.441,0,0,1,1.3-.814h5.929a1.44,1.44,0,0,1,1.229.685,1.467,1.467,0,0,1,.072,1.431L72.8,188.226a.688.688,0,0,1-1.236-.6l1.113-2.278a.1.1,0,0,0,0-.1.066.066,0,0,0-.061-.037H66.689a.075.075,0,0,0-.066.045L62.8,193.027a.094.094,0,0,0,0,.1.066.066,0,0,0,.061.037H68.8a.075.075,0,0,0,.066-.045l1.036-2.11a.688.688,0,0,1,1.234.606L70.1,193.722a1.441,1.441,0,0,1-1.3.814" transform="translate(-54.917 -164.73)" fill="#222"/><path d="M32.688,258.786A.688.688,0,0,1,32,258.1v-3.619a.688.688,0,0,1,1.375,0V258.1a.688.688,0,0,1-.688.688" transform="translate(-28.612 -227.286)" fill="#222"/><path d="M112.688,275.068a.688.688,0,0,1-.688-.688v-1.693a.688.688,0,1,1,1.375,0v1.693a.688.688,0,0,1-.688.688" transform="translate(-100.148 -243.569)" fill="#222"/></g></g></svg>