<svg xmlns="http://www.w3.org/2000/svg" xmlns:xlink="http://www.w3.org/1999/xlink" width="65" height="60" viewBox="0 0 65 60"><defs><clipPath id="a"><rect width="50.872" height="41.712" fill="#2e2e2e"/></clipPath></defs><g transform="translate(6.715 9.338)"><g clip-path="url(#a)"><path d="M141.253,60.234a.843.843,0,0,1-.833-.722l-.354-2.443a4.136,4.136,0,0,0-4.071-3.524h-5.576a4.134,4.134,0,0,0-4.071,3.524l-.354,2.443a.843.843,0,1,1-1.669-.242l.354-2.443a5.83,5.83,0,0,1,5.74-4.969h5.576a5.831,5.831,0,0,1,5.74,4.969l.353,2.443a.843.843,0,0,1-.713.955.825.825,0,0,1-.122.009" transform="translate(-107.77 -44.956)" fill="#2e2e2e"/><path d="M163.148,8.588a4.294,4.294,0,1,1,4.294-4.294,4.3,4.3,0,0,1-4.294,4.294m0-6.9a2.608,2.608,0,1,0,2.607,2.608,2.61,2.61,0,0,0-2.607-2.608" transform="translate(-137.712)" fill="#2e2e2e"/><path d="M43.17,93.962a3.109,3.109,0,0,1-3.036-2.48l-1.67-8.2H32.176a3.847,3.847,0,0,1-3.843-3.843V64.791A3.967,3.967,0,0,1,32.3,60.828H32.9a4.547,4.547,0,0,1,4.453,3.547l1.125,4.9h3.769a2.8,2.8,0,1,1,0,5.6H35.44a2.421,2.421,0,0,1-2.332-1.785l-.786-2.906a.843.843,0,0,1,1.628-.44l.786,2.906a.73.73,0,0,0,.7.539h6.809a1.111,1.111,0,0,0,0-2.222h-4.44a.844.844,0,0,1-.822-.655l-1.275-5.556A2.868,2.868,0,0,0,32.9,62.515H32.3a2.278,2.278,0,0,0-2.276,2.276V79.444A2.158,2.158,0,0,0,32.176,81.6h6.977a.843.843,0,0,1,.826.675l1.807,8.87a1.412,1.412,0,0,0,2.778-.5L42.891,80.055a2.157,2.157,0,0,0-2.14-1.829H36.206a.843.843,0,0,1,0-1.687h4.545a3.835,3.835,0,0,1,3.806,3.252L46.23,90.38a3.1,3.1,0,0,1-3.061,3.582" transform="translate(-24.562 -52.732)" fill="#2e2e2e"/><path d="M33.03,16.692a4.361,4.361,0,1,1,4.361-4.361,4.366,4.366,0,0,1-4.361,4.361m0-7.035A2.674,2.674,0,1,0,35.7,12.331,2.677,2.677,0,0,0,33.03,9.657" transform="translate(-24.853 -6.909)" fill="#2e2e2e"/><path d="M11.624,112.443H6.586A6.594,6.594,0,0,1,0,105.857V91.327a.843.843,0,1,1,1.687,0v14.53a4.905,4.905,0,0,0,4.9,4.9h5.038a.843.843,0,0,1,0,1.687" transform="translate(0 -78.441)" fill="#2e2e2e"/><path d="M43.992,252.2a.843.843,0,0,1-.843-.843v-7.71a.843.843,0,0,1,1.687,0v7.71a.843.843,0,0,1-.843.843" transform="translate(-37.406 -210.491)" fill="#2e2e2e"/><path d="M16.215,302.421H6.139a.843.843,0,1,1,0-1.687H16.215a.843.843,0,0,1,0,1.687" transform="translate(-4.591 -260.709)" fill="#2e2e2e"/><path d="M222.239,93.962a3.1,3.1,0,0,1-3.061-3.582l1.673-10.589a3.836,3.836,0,0,1,3.807-3.252H229.2a.843.843,0,0,1,0,1.687h-4.545a2.157,2.157,0,0,0-2.141,1.829l-1.673,10.589a1.412,1.412,0,0,0,2.778.5l1.807-8.87a.843.843,0,0,1,.826-.675h6.977a2.158,2.158,0,0,0,2.156-2.156V64.791a2.278,2.278,0,0,0-2.276-2.276h-.606a2.868,2.868,0,0,0-2.809,2.238l-1.275,5.556a.844.844,0,0,1-.822.655h-4.44a1.111,1.111,0,0,0,0,2.222h6.809a.73.73,0,0,0,.7-.539l.786-2.906a.843.843,0,0,1,1.628.44l-.786,2.906a2.421,2.421,0,0,1-2.332,1.785H223.16a2.8,2.8,0,1,1,0-5.6h3.769l1.125-4.9a4.547,4.547,0,0,1,4.453-3.547h.606a3.967,3.967,0,0,1,3.962,3.963V79.444a3.847,3.847,0,0,1-3.843,3.843h-6.288l-1.67,8.2a3.109,3.109,0,0,1-3.036,2.48" transform="translate(-189.974 -52.732)" fill="#2e2e2e"/><path d="M292.391,16.692a4.361,4.361,0,1,1,4.361-4.361,4.366,4.366,0,0,1-4.361,4.361m0-7.035a2.674,2.674,0,1,0,2.674,2.674,2.677,2.677,0,0,0-2.674-2.674" transform="translate(-249.696 -6.909)" fill="#2e2e2e"/><path d="M294.441,112.443H289.4a.843.843,0,0,1,0-1.687h5.038a4.905,4.905,0,0,0,4.9-4.9V91.327a.843.843,0,0,1,1.687,0v14.53a6.594,6.594,0,0,1-6.586,6.586" transform="translate(-250.155 -78.441)" fill="#2e2e2e"/><path d="M327.255,252.2a.843.843,0,0,1-.843-.843v-7.71a.843.843,0,0,1,1.687,0v7.71a.843.843,0,0,1-.843.843" transform="translate(-282.969 -210.491)" fill="#2e2e2e"/><path d="M299.475,302.421H289.4a.843.843,0,1,1,0-1.687h10.075a.843.843,0,0,1,0,1.687" transform="translate(-250.152 -260.709)" fill="#2e2e2e"/><path d="M143.257,155.364H127.4a.843.843,0,0,1,0-1.687h15.861a.843.843,0,0,1,0,1.687" transform="translate(-109.71 -133.224)" fill="#2e2e2e"/></g></g><rect width="65" height="60" transform="translate(0 0)" fill="none"/></svg>