<svg xmlns="http://www.w3.org/2000/svg" xmlns:xlink="http://www.w3.org/1999/xlink" width="65" height="60" viewBox="0 0 65 60"><defs><clipPath id="a"><rect width="33.448" height="40.138" transform="translate(0)" fill="#2e2e2e"/></clipPath></defs><g transform="translate(16.246 10.512)"><g transform="translate(0 0)" clip-path="url(#a)"><path d="M27.392,568.047a.653.653,0,0,1-.653-.653v-6.087H20.653a.653.653,0,0,1,0-1.306h6.74a.653.653,0,0,1,.653.653v6.74a.653.653,0,0,1-.653.653" transform="translate(-19.157 -536.579)" fill="#2e2e2e"/><path d="M17.452,32.476H10.124a3.16,3.16,0,0,1-2.249-.931L.931,24.6A3.159,3.159,0,0,1,0,22.352V.653A.653.653,0,0,1,.653,0H24.241a.653.653,0,0,1,.653.653V21.478a.653.653,0,0,1-1.306,0V1.306H1.306V22.352a1.862,1.862,0,0,0,.549,1.325L8.8,30.622a1.862,1.862,0,0,0,1.325.549h7.327a.653.653,0,0,1,0,1.306" transform="translate(0.001 -0.165)" fill="#2e2e2e"/><path d="M350.963,385.2a5.714,5.714,0,0,1-5.708-5.708v-3.147l-3.47-4.487a3.341,3.341,0,0,1,5.005-4.406l6.269,6.269a.653.653,0,0,1-.923.923l-6.269-6.269a2.035,2.035,0,0,0-3.049,2.684l3.607,4.663a.653.653,0,0,1,.136.4v3.37a4.407,4.407,0,0,0,4.4,4.4.653.653,0,0,1,0,1.306" transform="translate(-326.721 -351.199)" fill="#2e2e2e"/><path d="M474.132,863.833a.653.653,0,0,1-.653-.653v-1.874H461.306v1.874a.653.653,0,1,1-1.306,0v-2.527a.653.653,0,0,1,.653-.653h13.479a.653.653,0,0,1,.653.653v2.527a.653.653,0,0,1-.653.653" transform="translate(-440.623 -823.94)" fill="#2e2e2e"/><path d="M624.926,315.382a.653.653,0,0,1-.619-.447l-.843-2.527a.655.655,0,0,1-.03-.275l1.366-12.972a6.088,6.088,0,0,0-1.581-4.766l-2.982-3.231a.653.653,0,1,1,.959-.886l2.982,3.231a7.394,7.394,0,0,1,1.92,5.788l-1.351,12.831.8,2.393a.653.653,0,0,1-.62.859" transform="translate(-593.945 -278.016)" fill="#2e2e2e"/><path d="M207.392,121.306h-6.74a.653.653,0,1,1,0-1.306h6.74a.653.653,0,0,1,0,1.306" transform="translate(-191.575 -115.111)" fill="#2e2e2e"/><path d="M134.132,201.306H120.653a.653.653,0,0,1,0-1.306h13.479a.653.653,0,1,1,0,1.306" transform="translate(-114.945 -191.741)" fill="#2e2e2e"/><path d="M134.132,281.306H120.653a.653.653,0,0,1,0-1.306h13.479a.653.653,0,1,1,0,1.306" transform="translate(-114.945 -268.371)" fill="#2e2e2e"/></g></g><rect width="65" height="60" transform="translate(0 0)" fill="none"/><path d="M13537.806-4092.888v-24.164h23.8" transform="translate(-13524.186 4124.69)" fill="none" stroke="#2e2e2e" stroke-linecap="round" stroke-linejoin="round" stroke-width="1.3"/></svg>