<svg xmlns="http://www.w3.org/2000/svg" xmlns:xlink="http://www.w3.org/1999/xlink" width="65" height="60" viewBox="0 0 65 60"><defs><clipPath id="a"><rect width="35.293" height="24.101" fill="#2e2e2e"/></clipPath></defs><g transform="translate(15.632 18.398)"><g clip-path="url(#a)"><path d="M2.978,0H32.315a2.985,2.985,0,0,1,2.978,2.978V21.123A2.985,2.985,0,0,1,32.315,24.1H2.978A2.985,2.985,0,0,1,0,21.123V2.978A2.985,2.985,0,0,1,2.978,0M3,1.717c4.564,4.584,8.732,8.771,13.06,13.117a2.178,2.178,0,0,0,3.181,0L32.3,1.717ZM33.571,2.861,24.3,12.177l9.275,8.342V2.978ZM23.09,13.394l-2.641,2.654a3.881,3.881,0,0,1-5.6,0l-2.621-2.633L2.406,22.246a1.25,1.25,0,0,0,.572.138H32.315a1.251,1.251,0,0,0,.6-.153ZM11.016,12.2,1.722,2.861l-.005.117V20.561Z" fill="#2e2e2e"/></g></g><rect width="65" height="60" transform="translate(0 0)" fill="none"/></svg>