<svg xmlns="http://www.w3.org/2000/svg" xmlns:xlink="http://www.w3.org/1999/xlink" width="65" height="60" viewBox="0 0 65 60"><defs><clipPath id="a"><rect width="38.71" height="41.254" fill="none"/></clipPath></defs><rect width="65" height="60" transform="translate(0 0)" fill="none"/><g transform="translate(13.325 9.849)"><g transform="translate(0 0)" clip-path="url(#a)"><path d="M16.1,25.2a.5.5,0,0,0,.474,0c.438-.236,10.742-5.834,11.867-11.894A7.887,7.887,0,0,0,24.41,4.6c-2.7-1.279-5.753-.534-8.074,1.932C14.012,4.07,10.961,3.326,8.26,4.6a7.889,7.889,0,0,0-4.03,8.705C5.355,19.368,15.661,24.967,16.1,25.2M8.689,5.509a5.328,5.328,0,0,1,2.293-.528A6.6,6.6,0,0,1,15.953,7.61a.519.519,0,0,0,.766,0c2.088-2.48,4.8-3.265,7.264-2.1a6.887,6.887,0,0,1,3.472,7.617c-.948,5.11-9.571,10.188-11.119,11.062-1.548-.875-10.173-5.952-11.12-11.062A6.889,6.889,0,0,1,8.689,5.509" transform="translate(-3.805 -2.892)" fill="#2e2e2e"/><path d="M12.605,21.809a.775.775,0,0,1-.364-.091h0a43.17,43.17,0,0,1-5.715-3.789C2.833,15.016.717,12.226.236,9.637a8.157,8.157,0,0,1,4.179-9A6.518,6.518,0,0,1,8.771.184a8.17,8.17,0,0,1,3.834,2.245A8.162,8.162,0,0,1,16.437.184a6.518,6.518,0,0,1,4.357.457,8.154,8.154,0,0,1,4.179,9c-.481,2.589-2.6,5.379-6.289,8.292a43.15,43.15,0,0,1-5.715,3.789.775.775,0,0,1-.364.091m-.111-.564a.24.24,0,0,0,.221,0c.433-.233,10.631-5.788,11.73-11.706a7.619,7.619,0,0,0-3.881-8.414C17.966-.105,15.063.595,12.8,3l-.2.207L12.41,3C10.146.6,7.242-.1,4.644,1.125A7.622,7.622,0,0,0,.763,9.539c1.1,5.914,11.288,11.467,11.731,11.706m.111-.47-.132-.074c-1.71-.966-10.288-6.047-11.252-11.247A7.157,7.157,0,0,1,4.844,1.546,5.6,5.6,0,0,1,7.251.992a6.9,6.9,0,0,1,5.176,2.724.252.252,0,0,0,.356,0c2.17-2.577,5-3.389,7.583-2.17a7.154,7.154,0,0,1,3.621,7.909c-.964,5.2-9.541,10.281-11.251,11.247ZM5.073,2.031A6.622,6.622,0,0,0,1.749,9.357C2.137,11.45,3.9,13.792,6.99,16.317a43.665,43.665,0,0,0,5.616,3.842,43.661,43.661,0,0,0,5.615-3.842c3.089-2.525,4.852-4.867,5.24-6.961a6.62,6.62,0,0,0-3.323-7.326C17.794.922,15.2,1.682,13.194,4.062a.786.786,0,0,1-1.176,0A6.373,6.373,0,0,0,7.251,1.528a5.063,5.063,0,0,0-2.178.5" transform="translate(-0.074 0.829)" fill="#2e2e2e"/><path d="M41.674,273.634H37.012a.5.5,0,0,0-.28.086l-11.995,8.128a3.25,3.25,0,0,1-3.424.128l-15.38-8.829a1.93,1.93,0,0,1,1.7-3.45l11.008,4.288a3.862,3.862,0,0,0-.021,1.483,3.026,3.026,0,0,0,2.293,2.409,4.115,4.115,0,0,0,1.044.127c1.7,0,4.713-.91,8.627-5.761a.5.5,0,0,0-.779-.628c-4.674,5.794-7.788,5.518-8.637,5.294a2.013,2.013,0,0,1-1.559-1.6c-.287-1.743.585-2.3,2.285-3.2a6.946,6.946,0,0,0,3.563-3.259c1.323-3,4.018-4.46,8.241-4.46h7.976a.5.5,0,1,0,0-1H33.7c-4.6,0-7.678,1.7-9.156,5.057a6.066,6.066,0,0,1-3.119,2.779,6.1,6.1,0,0,0-2.4,1.839L8,268.763a2.931,2.931,0,0,0-2.57,5.245l15.39,8.836a4.259,4.259,0,0,0,4.484-.167l11.867-8.042h4.508a.5.5,0,0,0,0-1" transform="translate(-3.733 -242.416)" fill="#2e2e2e"/><path d="M19.188,279.939a4.5,4.5,0,0,1-2.24-.593L1.559,270.51a3.2,3.2,0,0,1,2.8-5.728L15.195,269a6.8,6.8,0,0,1,2.368-1.749,5.858,5.858,0,0,0,3-2.651c1.525-3.462,4.688-5.217,9.4-5.217h7.976a.769.769,0,1,1,0,1.537H29.964c-4.1,0-6.72,1.407-8,4.3a7.157,7.157,0,0,1-3.679,3.386c-1.678.893-2.408,1.352-2.15,2.921a1.753,1.753,0,0,0,1.363,1.388c.805.212,3.788.465,8.36-5.2a.769.769,0,0,1,1.2.965c-3.908,4.844-6.962,5.861-8.836,5.861a4.389,4.389,0,0,1-1.112-.136,3.292,3.292,0,0,1-2.489-2.625,4.244,4.244,0,0,1-.019-1.358L3.8,266.215a1.662,1.662,0,0,0-1.464,2.971l15.374,8.827a2.982,2.982,0,0,0,3.14-.117l11.995-8.129a.761.761,0,0,1,.431-.132h4.662a.769.769,0,1,1,0,1.537H33.515l-11.8,8a4.486,4.486,0,0,1-2.528.771M3.2,265.1a2.664,2.664,0,0,0-1.365,4.949l15.385,8.832a3.991,3.991,0,0,0,4.2-.156l11.935-8.089h4.59a.232.232,0,1,0,0-.465H33.279a.227.227,0,0,0-.129.039l-12,8.129a3.521,3.521,0,0,1-3.708.138l-15.38-8.83A2.2,2.2,0,0,1,4,265.716l11.222,4.371-.049.224a3.607,3.607,0,0,0-.018,1.382,2.762,2.762,0,0,0,2.1,2.194,3.853,3.853,0,0,0,.976.118,6.827,6.827,0,0,0,3.351-1.026,19.022,19.022,0,0,0,5.067-4.636.232.232,0,0,0-.362-.292,16.409,16.409,0,0,1-5.856,4.982,4.741,4.741,0,0,1-3.058.4,2.275,2.275,0,0,1-1.755-1.819c-.316-1.918.715-2.572,2.423-3.48a6.729,6.729,0,0,0,3.444-3.13c1.37-3.109,4.146-4.62,8.486-4.62h7.976a.232.232,0,1,0,0-.465H29.964c-4.481,0-7.479,1.648-8.911,4.9a6.275,6.275,0,0,1-3.238,2.908,5.934,5.934,0,0,0-2.3,1.748l-.119.183L4.165,265.282a2.665,2.665,0,0,0-.97-.183" transform="translate(0 -238.685)" fill="#2e2e2e"/></g></g></svg>