<svg xmlns="http://www.w3.org/2000/svg" xmlns:xlink="http://www.w3.org/1999/xlink" width="1921" height="131" viewBox="0 0 1921 131"><defs><clipPath id="a"><rect width="1921" height="131" transform="translate(0 5078)" fill="#fff" stroke="#707070" stroke-width="1"/></clipPath></defs><g transform="translate(0 -5078)" clip-path="url(#a)"><g transform="translate(11 -445.532)"><path d="M15.886,0h21.97V-118.3H15.886Zm98.865-91.26c-13.182,0-24.167,4.394-31.1,12.675V-90.246H63.544V0H84.669V-45.63c0-18.083,10.14-27.209,25.181-27.209,13.52,0,21.463,7.774,21.463,23.829V0h21.125V-51.714C152.438-78.923,136.383-91.26,114.751-91.26ZM223.418-19.942a19,19,0,0,1-11.83,3.718c-8.112,0-12.506-4.732-12.506-13.52V-72.67h24.167v-16.9H199.082v-20.618H177.957V-89.57H163.085v16.9h14.872v43.433c0,19.942,11.323,30.42,31.1,30.42,7.605,0,15.21-2.028,20.28-6.084ZM324.311-44.616c0-28.223-19.266-46.644-45.63-46.644-26.871,0-46.644,19.266-46.644,46.137s19.6,46.306,49.855,46.306c15.548,0,28.223-5.07,36.335-14.7L306.9-26.533c-6.422,6.591-14.365,9.8-24.5,9.8-15.717,0-26.7-8.45-29.237-21.632h70.811C324.142-40.391,324.311-42.926,324.311-44.616ZM278.681-74.36c13.858,0,23.829,8.957,25.519,21.97H252.993C255.021-65.572,264.992-74.36,278.681-74.36Zm81.8-2.7V-90.246H340.366V0h21.125V-43.771c0-18.421,10.14-27.885,26.2-27.885a26.818,26.818,0,0,1,4.9.507V-91.26C377.546-91.26,366.561-86.528,360.477-77.064Zm113.4-13.182-28.9,66.924L416.923-90.246h-21.97L433.654,0h21.8l38.7-90.246Zm39.884-14.872c7.943,0,13.52-5.746,13.52-13.182,0-6.929-5.746-12.168-13.52-12.168s-13.52,5.577-13.52,12.675S505.986-105.118,513.76-105.118ZM503.113,0h21.125V-90.246H503.113ZM632.567-44.616c0-28.223-19.266-46.644-45.63-46.644-26.871,0-46.644,19.266-46.644,46.137S559.9,1.183,590.148,1.183c15.548,0,28.223-5.07,36.335-14.7L615.16-26.533c-6.422,6.591-14.365,9.8-24.505,9.8-15.717,0-26.7-8.45-29.237-21.632h70.811C632.4-40.391,632.567-42.926,632.567-44.616ZM586.937-74.36c13.858,0,23.829,8.957,25.519,21.97H561.249C563.277-65.572,573.248-74.36,586.937-74.36ZM768.95-90.246,744.445-23.322,720.109-90.246H702.364L677.521-23.66,653.692-90.246H633.75L666.874,0h20.28l23.66-62.192L734.136,0h20.28l33.293-90.246Z" transform="translate(1573.76 5654)" fill="#ededed"/><path d="M15.886,0h21.97V-118.3H15.886Zm98.865-91.26c-13.182,0-24.167,4.394-31.1,12.675V-90.246H63.544V0H84.669V-45.63c0-18.083,10.14-27.209,25.181-27.209,13.52,0,21.463,7.774,21.463,23.829V0h21.125V-51.714C152.438-78.923,136.383-91.26,114.751-91.26ZM223.418-19.942a19,19,0,0,1-11.83,3.718c-8.112,0-12.506-4.732-12.506-13.52V-72.67h24.167v-16.9H199.082v-20.618H177.957V-89.57H163.085v16.9h14.872v43.433c0,19.942,11.323,30.42,31.1,30.42,7.605,0,15.21-2.028,20.28-6.084ZM324.311-44.616c0-28.223-19.266-46.644-45.63-46.644-26.871,0-46.644,19.266-46.644,46.137s19.6,46.306,49.855,46.306c15.548,0,28.223-5.07,36.335-14.7L306.9-26.533c-6.422,6.591-14.365,9.8-24.5,9.8-15.717,0-26.7-8.45-29.237-21.632h70.811C324.142-40.391,324.311-42.926,324.311-44.616ZM278.681-74.36c13.858,0,23.829,8.957,25.519,21.97H252.993C255.021-65.572,264.992-74.36,278.681-74.36Zm81.8-2.7V-90.246H340.366V0h21.125V-43.771c0-18.421,10.14-27.885,26.2-27.885a26.818,26.818,0,0,1,4.9.507V-91.26C377.546-91.26,366.561-86.528,360.477-77.064Zm113.4-13.182-28.9,66.924L416.923-90.246h-21.97L433.654,0h21.8l38.7-90.246Zm39.884-14.872c7.943,0,13.52-5.746,13.52-13.182,0-6.929-5.746-12.168-13.52-12.168s-13.52,5.577-13.52,12.675S505.986-105.118,513.76-105.118ZM503.113,0h21.125V-90.246H503.113ZM632.567-44.616c0-28.223-19.266-46.644-45.63-46.644-26.871,0-46.644,19.266-46.644,46.137S559.9,1.183,590.148,1.183c15.548,0,28.223-5.07,36.335-14.7L615.16-26.533c-6.422,6.591-14.365,9.8-24.505,9.8-15.717,0-26.7-8.45-29.237-21.632h70.811C632.4-40.391,632.567-42.926,632.567-44.616ZM586.937-74.36c13.858,0,23.829,8.957,25.519,21.97H561.249C563.277-65.572,573.248-74.36,586.937-74.36ZM768.95-90.246,744.445-23.322,720.109-90.246H702.364L677.521-23.66,653.692-90.246H633.75L666.874,0h20.28l23.66-62.192L734.136,0h20.28l33.293-90.246Z" transform="translate(761.937 5654)" fill="#ededed"/><path d="M15.886,0h21.97V-118.3H15.886Zm98.865-91.26c-13.182,0-24.167,4.394-31.1,12.675V-90.246H63.544V0H84.669V-45.63c0-18.083,10.14-27.209,25.181-27.209,13.52,0,21.463,7.774,21.463,23.829V0h21.125V-51.714C152.438-78.923,136.383-91.26,114.751-91.26ZM223.418-19.942a19,19,0,0,1-11.83,3.718c-8.112,0-12.506-4.732-12.506-13.52V-72.67h24.167v-16.9H199.082v-20.618H177.957V-89.57H163.085v16.9h14.872v43.433c0,19.942,11.323,30.42,31.1,30.42,7.605,0,15.21-2.028,20.28-6.084ZM324.311-44.616c0-28.223-19.266-46.644-45.63-46.644-26.871,0-46.644,19.266-46.644,46.137s19.6,46.306,49.855,46.306c15.548,0,28.223-5.07,36.335-14.7L306.9-26.533c-6.422,6.591-14.365,9.8-24.5,9.8-15.717,0-26.7-8.45-29.237-21.632h70.811C324.142-40.391,324.311-42.926,324.311-44.616ZM278.681-74.36c13.858,0,23.829,8.957,25.519,21.97H252.993C255.021-65.572,264.992-74.36,278.681-74.36Zm81.8-2.7V-90.246H340.366V0h21.125V-43.771c0-18.421,10.14-27.885,26.2-27.885a26.818,26.818,0,0,1,4.9.507V-91.26C377.546-91.26,366.561-86.528,360.477-77.064Zm113.4-13.182-28.9,66.924L416.923-90.246h-21.97L433.654,0h21.8l38.7-90.246Zm39.884-14.872c7.943,0,13.52-5.746,13.52-13.182,0-6.929-5.746-12.168-13.52-12.168s-13.52,5.577-13.52,12.675S505.986-105.118,513.76-105.118ZM503.113,0h21.125V-90.246H503.113ZM632.567-44.616c0-28.223-19.266-46.644-45.63-46.644-26.871,0-46.644,19.266-46.644,46.137S559.9,1.183,590.148,1.183c15.548,0,28.223-5.07,36.335-14.7L615.16-26.533c-6.422,6.591-14.365,9.8-24.505,9.8-15.717,0-26.7-8.45-29.237-21.632h70.811C632.4-40.391,632.567-42.926,632.567-44.616ZM586.937-74.36c13.858,0,23.829,8.957,25.519,21.97H561.249C563.277-65.572,573.248-74.36,586.937-74.36ZM768.95-90.246,744.445-23.322,720.109-90.246H702.364L677.521-23.66,653.692-90.246H633.75L666.874,0h20.28l23.66-62.192L734.136,0h20.28l33.293-90.246Z" transform="translate(-49.886 5654)" fill="#ededed"/></g></g></svg>