<svg xmlns="http://www.w3.org/2000/svg" width="4140" height="132" viewBox="0 0 4140 132"><g transform="translate(4964 -15323)"><path d="M15.886.346H37.918V-118.268H15.886Zm99.144-91.5c-13.219,0-24.235,4.406-31.184,12.709V-90.139H63.678V.346H84.863V-45.405c0-18.131,10.169-27.281,25.252-27.281,13.558,0,21.524,7.795,21.524,23.892V.346h21.185V-51.505C152.823-78.786,136.723-91.156,115.03-91.156ZM224-19.649a19.051,19.051,0,0,1-11.863,3.728c-8.135,0-12.541-4.745-12.541-13.556v-43.04h24.235V-89.462H199.6v-20.673H178.414v20.673H163.5v16.945h14.914v43.548c0,19.995,11.355,30.5,31.184,30.5,7.626,0,15.253-2.033,20.337-6.1ZM325.181-44.388c0-28.3-19.32-46.768-45.759-46.768-26.947,0-46.776,19.317-46.776,46.259s19.659,46.429,50,46.429c15.592,0,28.3-5.083,36.437-14.742L307.725-26.257c-6.44,6.608-14.405,9.828-24.574,9.828-15.761,0-26.777-8.472-29.319-21.689h71.011C325.011-40.152,325.181-42.694,325.181-44.388ZM279.422-74.211c13.9,0,23.9,8.981,25.591,22.028H253.662C255.7-65.4,265.695-74.211,279.422-74.211Zm82.027-2.711V-90.139H341.281V.346h21.185V-43.541c0-18.47,10.169-27.959,26.269-27.959a26.9,26.9,0,0,1,4.915.508V-91.156C378.566-91.156,367.55-86.412,361.449-76.922ZM475.168-90.139l-28.98,67.1-28.133-67.1H396.022L434.832.346h21.863l38.81-90.485Zm40-14.911c7.965,0,13.558-5.761,13.558-13.217,0-6.947-5.762-12.2-13.558-12.2s-13.558,5.592-13.558,12.709S507.368-105.051,515.164-105.051ZM504.487.346h21.185V-90.139H504.487ZM634.306-44.388c0-28.3-19.32-46.768-45.759-46.768-26.947,0-46.776,19.317-46.776,46.259s19.659,46.429,50,46.429c15.592,0,28.3-5.083,36.438-14.742L616.85-26.257c-6.44,6.608-14.406,9.828-24.574,9.828-15.761,0-26.777-8.472-29.319-21.689h71.011C634.137-40.152,634.306-42.694,634.306-44.388ZM588.548-74.211c13.9,0,23.9,8.981,25.591,22.028H562.787C564.821-65.4,574.82-74.211,588.548-74.211ZM771.074-90.139,746.5-23.038l-24.4-67.1H704.3L679.387-23.377l-23.9-66.763h-20L668.71.346h20.337l23.727-62.357L736.162.346H756.5l33.387-90.485Z" transform="translate(-4979.886 15453.468)" fill="#ededed"/><rect width="54" height="90" transform="translate(-4190 15346)" fill="none"/><g transform="translate(828)"><path d="M15.886.346H37.918V-118.268H15.886Zm99.144-91.5c-13.219,0-24.235,4.406-31.184,12.709V-90.139H63.678V.346H84.863V-45.405c0-18.131,10.169-27.281,25.252-27.281,13.558,0,21.524,7.795,21.524,23.892V.346h21.185V-51.505C152.823-78.786,136.723-91.156,115.03-91.156ZM224-19.649a19.051,19.051,0,0,1-11.863,3.728c-8.135,0-12.541-4.745-12.541-13.556v-43.04h24.235V-89.462H199.6v-20.673H178.414v20.673H163.5v16.945h14.914v43.548c0,19.995,11.355,30.5,31.184,30.5,7.626,0,15.253-2.033,20.337-6.1ZM325.181-44.388c0-28.3-19.32-46.768-45.759-46.768-26.947,0-46.776,19.317-46.776,46.259s19.659,46.429,50,46.429c15.592,0,28.3-5.083,36.437-14.742L307.725-26.257c-6.44,6.608-14.405,9.828-24.574,9.828-15.761,0-26.777-8.472-29.319-21.689h71.011C325.011-40.152,325.181-42.694,325.181-44.388ZM279.422-74.211c13.9,0,23.9,8.981,25.591,22.028H253.662C255.7-65.4,265.695-74.211,279.422-74.211Zm82.027-2.711V-90.139H341.281V.346h21.185V-43.541c0-18.47,10.169-27.959,26.269-27.959a26.9,26.9,0,0,1,4.915.508V-91.156C378.566-91.156,367.55-86.412,361.449-76.922ZM475.168-90.139l-28.98,67.1-28.133-67.1H396.022L434.832.346h21.863l38.81-90.485Zm40-14.911c7.965,0,13.558-5.761,13.558-13.217,0-6.947-5.762-12.2-13.558-12.2s-13.558,5.592-13.558,12.709S507.368-105.051,515.164-105.051ZM504.487.346h21.185V-90.139H504.487ZM634.306-44.388c0-28.3-19.32-46.768-45.759-46.768-26.947,0-46.776,19.317-46.776,46.259s19.659,46.429,50,46.429c15.592,0,28.3-5.083,36.438-14.742L616.85-26.257c-6.44,6.608-14.406,9.828-24.574,9.828-15.761,0-26.777-8.472-29.319-21.689h71.011C634.137-40.152,634.306-42.694,634.306-44.388ZM588.548-74.211c13.9,0,23.9,8.981,25.591,22.028H562.787C564.821-65.4,574.82-74.211,588.548-74.211ZM771.074-90.139,746.5-23.038l-24.4-67.1H704.3L679.387-23.377l-23.9-66.763h-20L668.71.346h20.337l23.727-62.357L736.162.346H756.5l33.387-90.485Z" transform="translate(-4979.886 15453.468)" fill="#ededed"/><rect width="54" height="90" transform="translate(-4190 15346)" fill="none"/></g><g transform="translate(2484)"><path d="M15.886.346H37.918V-118.268H15.886Zm99.144-91.5c-13.219,0-24.235,4.406-31.184,12.709V-90.139H63.678V.346H84.863V-45.405c0-18.131,10.169-27.281,25.252-27.281,13.558,0,21.524,7.795,21.524,23.892V.346h21.185V-51.505C152.823-78.786,136.723-91.156,115.03-91.156ZM224-19.649a19.051,19.051,0,0,1-11.863,3.728c-8.135,0-12.541-4.745-12.541-13.556v-43.04h24.235V-89.462H199.6v-20.673H178.414v20.673H163.5v16.945h14.914v43.548c0,19.995,11.355,30.5,31.184,30.5,7.626,0,15.253-2.033,20.337-6.1ZM325.181-44.388c0-28.3-19.32-46.768-45.759-46.768-26.947,0-46.776,19.317-46.776,46.259s19.659,46.429,50,46.429c15.592,0,28.3-5.083,36.437-14.742L307.725-26.257c-6.44,6.608-14.405,9.828-24.574,9.828-15.761,0-26.777-8.472-29.319-21.689h71.011C325.011-40.152,325.181-42.694,325.181-44.388ZM279.422-74.211c13.9,0,23.9,8.981,25.591,22.028H253.662C255.7-65.4,265.695-74.211,279.422-74.211Zm82.027-2.711V-90.139H341.281V.346h21.185V-43.541c0-18.47,10.169-27.959,26.269-27.959a26.9,26.9,0,0,1,4.915.508V-91.156C378.566-91.156,367.55-86.412,361.449-76.922ZM475.168-90.139l-28.98,67.1-28.133-67.1H396.022L434.832.346h21.863l38.81-90.485Zm40-14.911c7.965,0,13.558-5.761,13.558-13.217,0-6.947-5.762-12.2-13.558-12.2s-13.558,5.592-13.558,12.709S507.368-105.051,515.164-105.051ZM504.487.346h21.185V-90.139H504.487ZM634.306-44.388c0-28.3-19.32-46.768-45.759-46.768-26.947,0-46.776,19.317-46.776,46.259s19.659,46.429,50,46.429c15.592,0,28.3-5.083,36.438-14.742L616.85-26.257c-6.44,6.608-14.406,9.828-24.574,9.828-15.761,0-26.777-8.472-29.319-21.689h71.011C634.137-40.152,634.306-42.694,634.306-44.388ZM588.548-74.211c13.9,0,23.9,8.981,25.591,22.028H562.787C564.821-65.4,574.82-74.211,588.548-74.211ZM771.074-90.139,746.5-23.038l-24.4-67.1H704.3L679.387-23.377l-23.9-66.763h-20L668.71.346h20.337l23.727-62.357L736.162.346H756.5l33.387-90.485Z" transform="translate(-4979.886 15453.468)" fill="#ededed"/><rect width="54" height="90" transform="translate(-4190 15346)" fill="none"/></g><g transform="translate(1656)"><path d="M15.886.346H37.918V-118.268H15.886Zm99.144-91.5c-13.219,0-24.235,4.406-31.184,12.709V-90.139H63.678V.346H84.863V-45.405c0-18.131,10.169-27.281,25.252-27.281,13.558,0,21.524,7.795,21.524,23.892V.346h21.185V-51.505C152.823-78.786,136.723-91.156,115.03-91.156ZM224-19.649a19.051,19.051,0,0,1-11.863,3.728c-8.135,0-12.541-4.745-12.541-13.556v-43.04h24.235V-89.462H199.6v-20.673H178.414v20.673H163.5v16.945h14.914v43.548c0,19.995,11.355,30.5,31.184,30.5,7.626,0,15.253-2.033,20.337-6.1ZM325.181-44.388c0-28.3-19.32-46.768-45.759-46.768-26.947,0-46.776,19.317-46.776,46.259s19.659,46.429,50,46.429c15.592,0,28.3-5.083,36.437-14.742L307.725-26.257c-6.44,6.608-14.405,9.828-24.574,9.828-15.761,0-26.777-8.472-29.319-21.689h71.011C325.011-40.152,325.181-42.694,325.181-44.388ZM279.422-74.211c13.9,0,23.9,8.981,25.591,22.028H253.662C255.7-65.4,265.695-74.211,279.422-74.211Zm82.027-2.711V-90.139H341.281V.346h21.185V-43.541c0-18.47,10.169-27.959,26.269-27.959a26.9,26.9,0,0,1,4.915.508V-91.156C378.566-91.156,367.55-86.412,361.449-76.922ZM475.168-90.139l-28.98,67.1-28.133-67.1H396.022L434.832.346h21.863l38.81-90.485Zm40-14.911c7.965,0,13.558-5.761,13.558-13.217,0-6.947-5.762-12.2-13.558-12.2s-13.558,5.592-13.558,12.709S507.368-105.051,515.164-105.051ZM504.487.346h21.185V-90.139H504.487ZM634.306-44.388c0-28.3-19.32-46.768-45.759-46.768-26.947,0-46.776,19.317-46.776,46.259s19.659,46.429,50,46.429c15.592,0,28.3-5.083,36.438-14.742L616.85-26.257c-6.44,6.608-14.406,9.828-24.574,9.828-15.761,0-26.777-8.472-29.319-21.689h71.011C634.137-40.152,634.306-42.694,634.306-44.388ZM588.548-74.211c13.9,0,23.9,8.981,25.591,22.028H562.787C564.821-65.4,574.82-74.211,588.548-74.211ZM771.074-90.139,746.5-23.038l-24.4-67.1H704.3L679.387-23.377l-23.9-66.763h-20L668.71.346h20.337l23.727-62.357L736.162.346H756.5l33.387-90.485Z" transform="translate(-4979.886 15453.468)" fill="#ededed"/><rect width="54" height="90" transform="translate(-4190 15346)" fill="none"/></g><g transform="translate(3312)"><path d="M15.886.346H37.918V-118.268H15.886Zm99.144-91.5c-13.219,0-24.235,4.406-31.184,12.709V-90.139H63.678V.346H84.863V-45.405c0-18.131,10.169-27.281,25.252-27.281,13.558,0,21.524,7.795,21.524,23.892V.346h21.185V-51.505C152.823-78.786,136.723-91.156,115.03-91.156ZM224-19.649a19.051,19.051,0,0,1-11.863,3.728c-8.135,0-12.541-4.745-12.541-13.556v-43.04h24.235V-89.462H199.6v-20.673H178.414v20.673H163.5v16.945h14.914v43.548c0,19.995,11.355,30.5,31.184,30.5,7.626,0,15.253-2.033,20.337-6.1ZM325.181-44.388c0-28.3-19.32-46.768-45.759-46.768-26.947,0-46.776,19.317-46.776,46.259s19.659,46.429,50,46.429c15.592,0,28.3-5.083,36.437-14.742L307.725-26.257c-6.44,6.608-14.405,9.828-24.574,9.828-15.761,0-26.777-8.472-29.319-21.689h71.011C325.011-40.152,325.181-42.694,325.181-44.388ZM279.422-74.211c13.9,0,23.9,8.981,25.591,22.028H253.662C255.7-65.4,265.695-74.211,279.422-74.211Zm82.027-2.711V-90.139H341.281V.346h21.185V-43.541c0-18.47,10.169-27.959,26.269-27.959a26.9,26.9,0,0,1,4.915.508V-91.156C378.566-91.156,367.55-86.412,361.449-76.922ZM475.168-90.139l-28.98,67.1-28.133-67.1H396.022L434.832.346h21.863l38.81-90.485Zm40-14.911c7.965,0,13.558-5.761,13.558-13.217,0-6.947-5.762-12.2-13.558-12.2s-13.558,5.592-13.558,12.709S507.368-105.051,515.164-105.051ZM504.487.346h21.185V-90.139H504.487ZM634.306-44.388c0-28.3-19.32-46.768-45.759-46.768-26.947,0-46.776,19.317-46.776,46.259s19.659,46.429,50,46.429c15.592,0,28.3-5.083,36.438-14.742L616.85-26.257c-6.44,6.608-14.406,9.828-24.574,9.828-15.761,0-26.777-8.472-29.319-21.689h71.011C634.137-40.152,634.306-42.694,634.306-44.388ZM588.548-74.211c13.9,0,23.9,8.981,25.591,22.028H562.787C564.821-65.4,574.82-74.211,588.548-74.211ZM771.074-90.139,746.5-23.038l-24.4-67.1H704.3L679.387-23.377l-23.9-66.763h-20L668.71.346h20.337l23.727-62.357L736.162.346H756.5l33.387-90.485Z" transform="translate(-4979.886 15453.468)" fill="#ededed"/><rect width="54" height="90" transform="translate(-4190 15346)" fill="none"/></g></g></svg>