<svg xmlns="http://www.w3.org/2000/svg" width="4140" height="132"><path d="M0 130.814h22.032V12.2H0zm99.144-91.5c-13.219 0-24.235 4.406-31.184 12.709V40.329H47.792v90.485h21.185V85.063c0-18.131 10.169-27.281 25.252-27.281 13.558 0 21.524 7.795 21.524 23.892v49.14h21.185V78.963c-.001-27.281-16.101-39.651-37.794-39.651zm108.97 71.505a19.051 19.051 0 01-11.863 3.728c-8.135 0-12.541-4.745-12.541-13.556v-43.04h24.235V41.006h-24.231V20.333h-21.186v20.673h-14.914v16.945h14.914v43.548c0 19.995 11.355 30.5 31.184 30.5 7.626 0 15.253-2.033 20.337-6.1zM309.295 86.08c0-28.3-19.32-46.768-45.759-46.768-26.947 0-46.776 19.317-46.776 46.259S236.419 132 266.76 132c15.592 0 28.3-5.083 36.437-14.742l-11.358-13.047c-6.44 6.608-14.405 9.828-24.574 9.828-15.761 0-26.777-8.472-29.319-21.689h71.011c.168-2.034.338-4.576.338-6.27zm-45.759-29.823c13.9 0 23.9 8.981 25.591 22.028h-51.351c2.038-13.217 12.033-22.028 25.76-22.028zm82.027-2.711V40.329h-20.168v90.485h21.185V86.927c0-18.47 10.169-27.959 26.269-27.959a26.9 26.9 0 014.915.508V39.312c-15.084 0-26.1 4.744-32.201 14.234zm113.719-13.217l-28.98 67.1-28.133-67.1h-22.033l38.81 90.485h21.863l38.81-90.485zm40-14.911c7.965 0 13.558-5.761 13.558-13.217 0-6.947-5.762-12.2-13.558-12.2s-13.558 5.592-13.558 12.709 5.758 12.707 13.554 12.707zm-10.681 105.396h21.185V40.329h-21.185zM618.42 86.08c0-28.3-19.32-46.768-45.759-46.768-26.947 0-46.776 19.317-46.776 46.259s19.659 46.429 50 46.429c15.592 0 28.3-5.083 36.438-14.742l-11.359-13.047c-6.44 6.608-14.406 9.828-24.574 9.828-15.761 0-26.777-8.472-29.319-21.689h71.011c.169-2.034.338-4.576.338-6.27zm-45.758-29.823c13.9 0 23.9 8.981 25.591 22.028h-51.352c2.034-13.217 12.033-22.028 25.761-22.028zm182.526-15.928l-24.574 67.101-24.4-67.1h-17.8l-24.913 66.761-23.9-66.763h-20l33.223 90.486h20.337l23.727-62.357 23.388 62.357h20.338l33.387-90.485z" fill="#ededed"/><path fill="none" d="M774 23h54v90h-54z"/><path d="M828 130.814h22.032V12.2H828zm99.144-91.5c-13.219 0-24.235 4.406-31.184 12.709V40.329h-20.168v90.485h21.185V85.063c0-18.131 10.169-27.281 25.252-27.281 13.558 0 21.524 7.795 21.524 23.892v49.14h21.185V78.963c-.001-27.281-16.101-39.651-37.794-39.651zm108.97 71.505a19.051 19.051 0 01-11.863 3.728c-8.135 0-12.541-4.745-12.541-13.556v-43.04h24.235V41.006h-24.231V20.333h-21.186v20.673h-14.914v16.945h14.914v43.548c0 19.995 11.355 30.5 31.184 30.5 7.626 0 15.253-2.033 20.337-6.1zm101.181-24.739c0-28.3-19.32-46.768-45.759-46.768-26.947 0-46.776 19.317-46.776 46.259s19.659 46.429 50 46.429c15.592 0 28.3-5.083 36.437-14.742l-11.358-13.047c-6.44 6.608-14.405 9.828-24.574 9.828-15.761 0-26.777-8.472-29.319-21.689h71.011c.168-2.034.338-4.576.338-6.27zm-45.759-29.823c13.9 0 23.9 8.981 25.591 22.028h-51.351c2.038-13.217 12.033-22.028 25.76-22.028zm82.027-2.711V40.329h-20.168v90.485h21.185V86.927c0-18.47 10.169-27.959 26.269-27.959a26.9 26.9 0 014.915.508V39.312c-15.084 0-26.1 4.744-32.201 14.234zm113.719-13.217l-28.98 67.1-28.133-67.1h-22.033l38.81 90.485h21.863l38.81-90.485zm40-14.911c7.965 0 13.558-5.761 13.558-13.217 0-6.947-5.762-12.2-13.558-12.2s-13.558 5.592-13.558 12.709 5.758 12.707 13.554 12.707zm-10.681 105.396h21.185V40.329h-21.185zM1446.42 86.08c0-28.3-19.32-46.768-45.759-46.768-26.947 0-46.776 19.317-46.776 46.259s19.659 46.429 50 46.429c15.592 0 28.3-5.083 36.438-14.742l-11.359-13.047c-6.44 6.608-14.406 9.828-24.574 9.828-15.761 0-26.777-8.472-29.319-21.689h71.011c.169-2.034.338-4.576.338-6.27zm-45.758-29.823c13.9 0 23.9 8.981 25.591 22.028h-51.352c2.034-13.217 12.033-22.028 25.761-22.028zm182.526-15.928l-24.574 67.101-24.4-67.1h-17.8l-24.913 66.761-23.9-66.763h-20l33.223 90.486h20.337l23.727-62.357 23.388 62.357h20.338l33.387-90.485z" fill="#ededed"/><path fill="none" d="M1602 23h54v90h-54z"/><path d="M2484 130.814h22.032V12.2H2484zm99.144-91.5c-13.219 0-24.235 4.406-31.184 12.709V40.329h-20.168v90.485h21.185V85.063c0-18.131 10.169-27.281 25.252-27.281 13.558 0 21.524 7.795 21.524 23.892v49.14h21.185V78.963c-.001-27.281-16.101-39.651-37.794-39.651zm108.97 71.505a19.051 19.051 0 01-11.863 3.728c-8.135 0-12.541-4.745-12.541-13.556v-43.04h24.235V41.006h-24.231V20.333h-21.186v20.673h-14.914v16.945h14.914v43.548c0 19.995 11.355 30.5 31.184 30.5 7.626 0 15.253-2.033 20.337-6.1zm101.181-24.739c0-28.3-19.32-46.768-45.759-46.768-26.947 0-46.776 19.317-46.776 46.259s19.659 46.429 50 46.429c15.592 0 28.3-5.083 36.437-14.742l-11.358-13.047c-6.44 6.608-14.405 9.828-24.574 9.828-15.761 0-26.777-8.472-29.319-21.689h71.011c.168-2.034.338-4.576.338-6.27zm-45.759-29.823c13.9 0 23.9 8.981 25.591 22.028h-51.351c2.038-13.217 12.033-22.028 25.76-22.028zm82.027-2.711V40.329h-20.168v90.485h21.185V86.927c0-18.47 10.169-27.959 26.269-27.959a26.9 26.9 0 014.915.508V39.312c-15.084 0-26.1 4.744-32.201 14.234zm113.719-13.217l-28.98 67.1-28.133-67.1h-22.033l38.81 90.485h21.863l38.81-90.485zm40-14.911c7.965 0 13.558-5.761 13.558-13.217 0-6.947-5.762-12.2-13.558-12.2s-13.558 5.592-13.558 12.709 5.758 12.707 13.554 12.707zm-10.681 105.396h21.185V40.329h-21.185zM3102.42 86.08c0-28.3-19.32-46.768-45.759-46.768-26.947 0-46.776 19.317-46.776 46.259s19.659 46.429 50 46.429c15.592 0 28.3-5.083 36.438-14.742l-11.359-13.047c-6.44 6.608-14.406 9.828-24.574 9.828-15.761 0-26.777-8.472-29.319-21.689h71.011c.169-2.034.338-4.576.338-6.27zm-45.758-29.823c13.9 0 23.9 8.981 25.591 22.028h-51.352c2.034-13.217 12.033-22.028 25.761-22.028zm182.526-15.928l-24.574 67.101-24.4-67.1h-17.8l-24.913 66.761-23.9-66.763h-20l33.223 90.486h20.337l23.727-62.357 23.388 62.357h20.338l33.387-90.485z" fill="#ededed"/><path fill="none" d="M3258 23h54v90h-54z"/><path d="M1656 130.814h22.032V12.2H1656zm99.144-91.5c-13.219 0-24.235 4.406-31.184 12.709V40.329h-20.168v90.485h21.185V85.063c0-18.131 10.169-27.281 25.252-27.281 13.558 0 21.524 7.795 21.524 23.892v49.14h21.185V78.963c-.001-27.281-16.101-39.651-37.794-39.651zm108.97 71.505a19.051 19.051 0 01-11.863 3.728c-8.135 0-12.541-4.745-12.541-13.556v-43.04h24.235V41.006h-24.231V20.333h-21.186v20.673h-14.914v16.945h14.914v43.548c0 19.995 11.355 30.5 31.184 30.5 7.626 0 15.253-2.033 20.337-6.1zm101.181-24.739c0-28.3-19.32-46.768-45.759-46.768-26.947 0-46.776 19.317-46.776 46.259s19.659 46.429 50 46.429c15.592 0 28.3-5.083 36.437-14.742l-11.358-13.047c-6.44 6.608-14.405 9.828-24.574 9.828-15.761 0-26.777-8.472-29.319-21.689h71.011c.168-2.034.338-4.576.338-6.27zm-45.759-29.823c13.9 0 23.9 8.981 25.591 22.028h-51.351c2.038-13.217 12.033-22.028 25.76-22.028zm82.027-2.711V40.329h-20.168v90.485h21.185V86.927c0-18.47 10.169-27.959 26.269-27.959a26.9 26.9 0 014.915.508V39.312c-15.084 0-26.1 4.744-32.201 14.234zm113.719-13.217l-28.98 67.1-28.133-67.1h-22.033l38.81 90.485h21.863l38.81-90.485zm40-14.911c7.965 0 13.558-5.761 13.558-13.217 0-6.947-5.762-12.2-13.558-12.2s-13.558 5.592-13.558 12.709 5.758 12.707 13.554 12.707zm-10.681 105.396h21.185V40.329h-21.185zM2274.42 86.08c0-28.3-19.32-46.768-45.759-46.768-26.947 0-46.776 19.317-46.776 46.259s19.659 46.429 50 46.429c15.592 0 28.3-5.083 36.438-14.742l-11.359-13.047c-6.44 6.608-14.406 9.828-24.574 9.828-15.761 0-26.777-8.472-29.319-21.689h71.011c.169-2.034.338-4.576.338-6.27zm-45.758-29.823c13.9 0 23.9 8.981 25.591 22.028h-51.352c2.034-13.217 12.033-22.028 25.761-22.028zm182.526-15.928l-24.574 67.101-24.4-67.1h-17.8l-24.913 66.761-23.9-66.763h-20l33.223 90.486h20.337l23.727-62.357 23.388 62.357h20.338l33.387-90.485z" fill="#ededed"/><path fill="none" d="M2430 23h54v90h-54z"/><path d="M3312 130.814h22.032V12.2H3312zm99.144-91.5c-13.219 0-24.235 4.406-31.184 12.709V40.329h-20.168v90.485h21.185V85.063c0-18.131 10.169-27.281 25.252-27.281 13.558 0 21.524 7.795 21.524 23.892v49.14h21.185V78.963c-.001-27.281-16.101-39.651-37.794-39.651zm108.97 71.505a19.051 19.051 0 01-11.863 3.728c-8.135 0-12.541-4.745-12.541-13.556v-43.04h24.235V41.006h-24.231V20.333h-21.186v20.673h-14.914v16.945h14.914v43.548c0 19.995 11.355 30.5 31.184 30.5 7.626 0 15.253-2.033 20.337-6.1zm101.181-24.739c0-28.3-19.32-46.768-45.759-46.768-26.947 0-46.776 19.317-46.776 46.259s19.659 46.429 50 46.429c15.592 0 28.3-5.083 36.437-14.742l-11.358-13.047c-6.44 6.608-14.405 9.828-24.574 9.828-15.761 0-26.777-8.472-29.319-21.689h71.011c.168-2.034.338-4.576.338-6.27zm-45.759-29.823c13.9 0 23.9 8.981 25.591 22.028h-51.351c2.038-13.217 12.033-22.028 25.76-22.028zm82.027-2.711V40.329h-20.168v90.485h21.185V86.927c0-18.47 10.169-27.959 26.269-27.959a26.9 26.9 0 014.915.508V39.312c-15.084 0-26.1 4.744-32.201 14.234zm113.719-13.217l-28.98 67.1-28.133-67.1h-22.033l38.81 90.485h21.863l38.81-90.485zm40-14.911c7.965 0 13.558-5.761 13.558-13.217 0-6.947-5.762-12.2-13.558-12.2s-13.558 5.592-13.558 12.709 5.758 12.707 13.554 12.707zm-10.681 105.396h21.185V40.329h-21.185zM3930.42 86.08c0-28.3-19.32-46.768-45.759-46.768-26.947 0-46.776 19.317-46.776 46.259s19.659 46.429 50 46.429c15.592 0 28.3-5.083 36.438-14.742l-11.359-13.047c-6.44 6.608-14.406 9.828-24.574 9.828-15.761 0-26.777-8.472-29.319-21.689h71.011c.169-2.034.338-4.576.338-6.27zm-45.758-29.823c13.9 0 23.9 8.981 25.591 22.028h-51.352c2.034-13.217 12.033-22.028 25.761-22.028zm182.526-15.928l-24.574 67.101-24.4-67.1h-17.8l-24.913 66.761-23.9-66.763h-20l33.223 90.486h20.337l23.727-62.357 23.388 62.357h20.338l33.387-90.485z" fill="#ededed"/><path fill="none" d="M4086 23h54v90h-54z"/></svg>