<?xml version="1.0" encoding="UTF-8"?>
<svg id="_レイヤー_2" data-name="レイヤー 2" xmlns="http://www.w3.org/2000/svg" xmlns:xlink="http://www.w3.org/1999/xlink" viewBox="0 0 162.68 19.98">
  <defs>
    <style>
      .cls-1 {
        fill: none;
      }

      .cls-1, .cls-2, .cls-3 {
        stroke-width: 0px;
      }

      .cls-4 {
        clip-path: url(#clippath);
      }

      .cls-2 {
        fill: #1e93d2;
      }

      .cls-3 {
        fill: #191310;
      }
    </style>
    <clipPath id="clippath">
      <rect class="cls-1" width="162.68" height="19.98"/>
    </clipPath>
  </defs>
  <g id="_レイヤー_2-2" data-name=" レイヤー 2">
    <g id="_レイヤー_1-2" data-name=" レイヤー 1-2">
      <g class="cls-4">
        <g>
          <path class="cls-3" d="m109.03,5.18c-.17-.5-.43-1.3-.53-1.59l-.03-.09c-.08-.25-.32-.42-.59-.41h-1.81c-.19-.02-.36.11-.39.3,0,.06,0,.12.02.17.04.14.41,1.22.61,1.77.1.27.38.44.67.4h1.62c.26,0,.36-.08.41-.15.08-.12.08-.27.02-.4"/>
          <path class="cls-3" d="m104.9,3.48c-.08-.25-.32-.41-.58-.39h-1.81c-.12,0-.25.04-.32.14-.07.1-.09.22-.05.34.05.14.41,1.23.61,1.77.1.27.38.44.67.4h1.63c.15.02.3-.04.4-.15.08-.12.09-.27.03-.4-.2-.59-.54-1.59-.58-1.7"/>
          <path class="cls-2" d="m35.4,17.66c.02,1.21-.95,2.21-2.16,2.23s-2.21-.95-2.23-2.16.95-2.21,2.16-2.23h.03c1.21-.01,2.19.96,2.2,2.16"/>
          <path class="cls-2" d="m36.72,2.27c.36-.81,0-1.75-.81-2.11-.05-.02-.1-.04-.15-.06-.91-.33-1.8.17-2.27.99-.76,1.33-4.68,8.65-5.34,9.87s-1.49,2.95-2.17,2.69c-.63-.24-1.38-2.9-1.7-3.67-.56-1.35-1.71-2.96-3.62-2.55-1.46.31-2.29,1.44-3.62,3.95-.73,1.37-1.18,2.28-1.84,3.17-1.36,1.83-2.12-1.18-2.57-2.73-.6-2.08-1.7-5.03-4.1-5.03-1.34,0-2.77.78-4.54,3.61-1.04,1.65-3.46,6.28-3.82,7.11-.39.8-.07,1.77.73,2.16.03.02.07.03.1.05.89.38,1.76-.01,2.29-.82,1.7-2.61,2.17-3.63,3.04-4.83.93-1.28,2.2-2.42,3.17.65.61,1.93,1.68,5.1,4.55,5.12,1.73.01,3.52-1.46,4.36-2.86.95-1.59,1.18-2.43,1.91-3.2.37-.39.92-.53,1.44.6.5,1.1,1.54,4.56,3.38,5.32,2.6,1.07,5.06-4.13,5.9-5.78.68-1.33,5.37-10.94,5.67-11.64"/>
          <path class="cls-3" d="m57.89,3.75c-.16-.14-.36-.21-.57-.19h0c-.77,0-15.84.02-15.84.02-.16,0-.31.07-.41.18-.09.1-.14.24-.14.37v1.98c0,.3.25.53.55.53h.09l11.55-.02h.47c.34,0,.43.06.51.16.17.23,0,.58-.03.67-.68,2.62-2.44,4.83-4.83,6.08l-.14.07-.09-.12c-.59-.8-1.03-1.35-1.54-1.98l-.07-.09c-.16-.24-.42-.4-.71-.43h-2.67c-.16,0-.31.09-.37.23-.06.14-.04.29.04.41,1.96,2.48,3.72,5.11,5.27,7.87.12.22.35.36.6.35h2.9c.14,0,.27-.08.32-.21.07-.12.07-.27,0-.39-.48-.93-1.03-1.82-1.64-2.67l-.1-.14.14-.1c3.39-2.35,6.56-5.34,6.86-12.11.02-.17-.03-.34-.15-.48"/>
          <path class="cls-3" d="m74.18,3.52c-.11-.12-.27-.19-.43-.18-.3,0-1.75,0-2.63,0-.27.02-.51.17-.63.41-1.5,3.39-5.87,5.95-11.86,6.94-.39.08-.57.3-.58.56v2.04c0,.15.06.29.18.39.13.12.31.17.48.15,2.9-.35,5.13-.92,6.89-1.71l.25-.11v7.25c.01.3.26.55.56.54h2.28c.28-.01.5-.23.52-.51v-8.85l.06-.05c2.27-1.52,4.24-4.02,4.99-6.45.04-.15,0-.31-.09-.43"/>
          <path class="cls-3" d="m86.3,10.59v-.16h5.07c.15-.01.29-.07.39-.17.1-.1.15-.23.16-.37v-1.97c0-.14-.05-.27-.14-.37-.11-.12-.26-.18-.41-.18h-5.03v-3.5c0-.3-.25-.55-.55-.55h-2.27c-.3,0-.54.24-.55.54h0v3.51h-7.59c-.16,0-.31.06-.42.17-.1.11-.16.25-.15.4v1.98c.01.3.26.53.56.52h7.57v.17c-.28,4.28-2.36,5.5-6.27,6.29-.34.08-.54.25-.54.54v2.03c0,.14.06.28.18.37s.26.14.41.13c6.56-.89,9.23-3.6,9.57-9.39"/>
          <path class="cls-3" d="m108.77,7.5c-.1-.09-.22-.14-.36-.15h-.09l-10.98.02v-3.51c0-.15-.06-.29-.16-.39-.11-.11-.27-.17-.42-.17h-2.12c-.3,0-.54.25-.54.55h0l.02,11.75c0,2.92,1.17,4.15,4.43,4.15h.26l9.9-.02c.28-.02.5-.25.51-.53v-2c0-.3-.25-.55-.55-.55h-9.06c-.82,0-1.43-.05-1.78-.34-.44-.36-.48-.89-.48-1.7v-4.22l11.04-.02c.3,0,.55-.23.55-.53v-1.98c0-.15-.06-.29-.17-.39"/>
          <path class="cls-2" d="m123.38,19.73h-8.37c-.59-.01-1.06-.49-1.06-1.08,0-2.91,2.11-4.44,4.38-5.52,2.39-1.14,3.59-1.61,3.59-2.95,0-1.12-1.14-1.65-2.73-1.65-1.21-.06-2.41.28-3.41.98-.15.1-.33.16-.52.16-.55.04-1.02-.38-1.05-.93v-.04c0-.77.72-1.24,1.93-1.73,1.01-.37,2.09-.57,3.17-.57,2.93,0,5,1.32,5,3.73,0,2.02-1.4,3.14-3.89,4.36-2.17,1.06-3.73,1.83-3.73,3.1h6.68c.58,0,1.06.48,1.06,1.06s-.47,1.05-1.06,1.06"/>
          <path class="cls-2" d="m132.15,19.97c-3.73,0-5.82-3.18-5.82-6.78s2.09-6.78,5.82-6.78,5.82,3.18,5.82,6.78-2.09,6.78-5.82,6.78m0-11.43c-1.95,0-3.43,1.85-3.43,4.66s1.47,4.66,3.43,4.66,3.43-1.85,3.43-4.66-1.48-4.66-3.43-4.66"/>
          <path class="cls-2" d="m149.32,19.73h-8.38c-.59-.01-1.06-.49-1.06-1.08,0-2.91,2.11-4.44,4.39-5.52,2.39-1.14,3.59-1.61,3.59-2.95,0-1.12-1.14-1.65-2.73-1.65-1.21-.06-2.41.28-3.41.98-.15.1-.33.16-.52.16-.55.04-1.02-.38-1.05-.93v-.04c0-.77.72-1.24,1.93-1.73,1.02-.38,2.09-.57,3.17-.57,2.93,0,5,1.32,5,3.73,0,2.02-1.4,3.14-3.89,4.36-2.17,1.06-3.73,1.83-3.73,3.1h6.68c.58,0,1.06.48,1.06,1.06s-.47,1.05-1.06,1.06"/>
          <path class="cls-2" d="m157.34,19.97c-1.69,0-3.43-.37-4.75-1.45-.26-.21-.43-.51-.46-.84-.02-.57.43-1.06,1-1.08h.06c.21,0,.42.06.6.18,1.2.79,2.03,1.18,3.55,1.18,1.8,0,2.95-.92,2.95-2.38s-1.26-2.26-2.75-2.26c-1.03-.02-2.06.22-2.97.71-.18.09-.38.14-.58.14-.82,0-1.18-.53-1.1-1.1l.88-5.44c.06-.57.56-1,1.14-.96h5.62c.59-.02,1.08.45,1.1,1.04.02.59-.45,1.08-1.04,1.1h-4.79l-.48,2.97c.74-.33,1.54-.51,2.35-.53,3.21,0,5,1.81,5,4.26,0,2.81-2.39,4.48-5.34,4.48"/>
        </g>
      </g>
    </g>
  </g>
</svg>