<svg xmlns="http://www.w3.org/2000/svg" width="163.836" height="20.314" viewBox="0 0 163.836 20.314"><g transform="translate(-8.47 -8.582)"><path d="M474,70.75h-8.388a1.087,1.087,0,0,1-1.058-1.1c0-2.956,2.117-4.513,4.393-5.612,2.4-1.158,3.595-1.638,3.595-3,0-1.138-1.138-1.678-2.736-1.678a5.385,5.385,0,0,0-3.415,1,.938.938,0,0,1-.519.16,1,1,0,0,1-1.059-.979c0-.779.719-1.258,1.937-1.757a9.1,9.1,0,0,1,3.175-.579c2.936,0,5.013,1.338,5.013,3.794,0,2.057-1.4,3.2-3.894,4.433-2.177,1.079-3.735,1.858-3.735,3.156H474a1.07,1.07,0,0,1,1.059,1.079A1.083,1.083,0,0,1,474,70.75" transform="translate(-341.891 -42.104)" fill="#00abeb"/><path d="M517.349,70.99c-3.735,0-5.832-3.235-5.832-6.89s2.1-6.89,5.832-6.89,5.832,3.235,5.832,6.89-2.1,6.89-5.832,6.89m0-11.623c-1.957,0-3.435,1.877-3.435,4.733s1.478,4.733,3.435,4.733,3.435-1.877,3.435-4.733-1.478-4.733-3.435-4.733" transform="translate(-376.457 -42.104)" fill="#00abeb"/><path d="M572.473,70.75h-8.388a1.087,1.087,0,0,1-1.058-1.1c0-2.956,2.117-4.513,4.393-5.612,2.4-1.158,3.6-1.638,3.6-3,0-1.138-1.139-1.678-2.736-1.678a5.385,5.385,0,0,0-3.415,1,.938.938,0,0,1-.519.16,1,1,0,0,1-1.059-.979c0-.779.719-1.258,1.937-1.757a9.1,9.1,0,0,1,3.175-.579c2.936,0,5.013,1.338,5.013,3.794,0,2.057-1.4,3.2-3.894,4.433-2.177,1.079-3.735,1.858-3.735,3.156h6.69a1.07,1.07,0,0,1,1.059,1.079,1.083,1.083,0,0,1-1.059,1.078" transform="translate(-414.367 -42.104)" fill="#00abeb"/><path d="M615.84,67.637v2.317a1.178,1.178,0,1,1-2.357,0V67.637h-6.231a1,1,0,0,1-1.038-1,1.159,1.159,0,0,1,.339-.779l7.17-7.909a1.233,1.233,0,0,1,.979-.439,1.069,1.069,0,0,1,1.139,1.178v6.95h1.578a1,1,0,1,1,0,2Zm-2.357-2V61.027l-4.154,4.613Z" transform="translate(-446.151 -42.327)" fill="#00abeb"/><path d="M436.508,46.525c-.17-.507-.432-1.317-.53-1.619l-.03-.09a.586.586,0,0,0-.591-.415l-1.818,0a.355.355,0,0,0-.325.14.365.365,0,0,0-.044.336c.044.14.413,1.242.614,1.8a.63.63,0,0,0,.667.408l1.622,0c.258,0,.359-.078.412-.152a.429.429,0,0,0,.022-.41" transform="translate(-318.781 -32.677)"/><path d="M422.412,44.817a.577.577,0,0,0-.585-.4l-1.818,0a.355.355,0,0,0-.323.136.372.372,0,0,0-.046.341c.047.147.415,1.248.614,1.8a.627.627,0,0,0,.668.408l1.633,0a.466.466,0,0,0,.405-.15.419.419,0,0,0,.029-.411c-.2-.6-.542-1.62-.576-1.728" transform="translate(-308.824 -32.692)"/><path d="M154.157,94.373a2.2,2.2,0,1,1-2.206-2.2,2.2,2.2,0,0,1,2.206,2.2" transform="translate(-110.212 -67.837)" fill="#00abeb"/><path d="M68.868,34.811a1.632,1.632,0,0,0-.961-2.2,1.888,1.888,0,0,0-2.273,1.008c-.758,1.349-4.689,8.8-5.348,10.031s-1.489,3-2.179,2.731c-.634-.247-1.381-2.953-1.7-3.726-.565-1.373-1.714-3-3.632-2.59-1.466.316-2.3,1.469-3.625,4.013A24.269,24.269,0,0,1,47.3,47.3c-1.361,1.858-2.129-1.195-2.578-2.773-.6-2.118-1.705-5.115-4.108-5.112-1.342,0-2.773.788-4.554,3.671-1.039,1.681-3.47,6.389-3.828,7.228a1.649,1.649,0,0,0,.84,2.243,1.819,1.819,0,0,0,2.293-.831c1.708-2.653,2.177-3.689,3.05-4.91.936-1.3,2.207-2.46,3.18.659.612,1.963,1.682,5.182,4.564,5.2,1.734.012,3.529-1.485,4.369-2.913a20.225,20.225,0,0,1,1.912-3.255c.37-.4.919-.54,1.439.613.5,1.115,1.54,4.637,3.389,5.405,2.61,1.084,5.067-4.2,5.915-5.88.684-1.357,5.383-11.121,5.685-11.834" transform="translate(-23.607 -23.922)" fill="#00abeb"/><path d="M204.447,46.38a.782.782,0,0,0-.573-.2h.012l-15.874.021a.543.543,0,0,0-.414.187.585.585,0,0,0-.137.38v2.01a.55.55,0,0,0,.551.537h.09l11.569-.015h.47c.337,0,.431.061.51.165.175.23-.006.595-.031.682a9.728,9.728,0,0,1-4.843,6.181l-.136.072-.091-.125c-.59-.81-1.034-1.37-1.548-2.017l-.073-.1a.989.989,0,0,0-.713-.434h0l-2.679,0a.373.373,0,0,0-.37.233.455.455,0,0,0,.041.419,60.442,60.442,0,0,1,5.279,8,.663.663,0,0,0,.6.356h2.905a.355.355,0,0,0,.325-.211.4.4,0,0,0,0-.392,23.62,23.62,0,0,0-1.641-2.718l-.1-.144.143-.1c3.4-2.387,6.573-5.429,6.874-12.312a.639.639,0,0,0-.147-.483" transform="translate(-137.965 -33.99)"/><path d="M268.558,45.539a.538.538,0,0,0-.43-.185c-.3,0-1.751.011-2.633.014a.754.754,0,0,0-.629.416c-1.506,3.449-5.877,6.053-11.886,7.057-.388.077-.574.3-.582.565l0,2.078a.514.514,0,0,0,.175.4.617.617,0,0,0,.485.149,23.311,23.311,0,0,0,6.909-1.743l.251-.116.01,7.374a.552.552,0,0,0,.57.552h.118l2.151,0a.546.546,0,0,0,.523-.514l-.013-8.994.077-.053a13.128,13.128,0,0,0,5-6.559.52.52,0,0,0-.1-.439" transform="translate(-185.756 -33.379)"/><path d="M327.522,52.673l.009-.167,5.073-.014a.551.551,0,0,0,.389-.167.584.584,0,0,0,.158-.372l0-2a.545.545,0,0,0-.553-.556h-.056l-4.981,0,0-3.564a.552.552,0,0,0-.576-.554H326.9l-2.161,0a.536.536,0,0,0-.4.174.555.555,0,0,0-.147.375l0,3.572-7.611.008a.558.558,0,0,0-.417.169.57.57,0,0,0-.155.4l0,2.009a.546.546,0,0,0,.565.533h.073l7.517-.014-.012.189c-.267,4.353-2.354,5.595-6.278,6.4-.342.082-.537.249-.537.547l0,2.068a.464.464,0,0,0,.174.373.585.585,0,0,0,.414.132c6.572-.909,9.252-3.661,9.587-9.545" transform="translate(-232.573 -33.324)"/><path d="M403.857,49.478a.542.542,0,0,0-.359-.148H403.4l-11.007.016-.006-3.565a.557.557,0,0,0-.157-.4.577.577,0,0,0-.425-.168h-.017l-2.1,0a.549.549,0,0,0-.546.554l.017,11.947c0,2.974,1.173,4.224,4.438,4.224h.261l9.923-.018a.551.551,0,0,0,.512-.536l0-2.032a.551.551,0,0,0-.548-.556l-9.064.009h-.012a2.947,2.947,0,0,1-1.782-.341c-.441-.369-.484-.9-.476-1.733L392.4,52.44l11.069-.016a.549.549,0,0,0,.555-.558l0-1.992a.527.527,0,0,0-.168-.4" transform="translate(-286.395 -33.275)"/></g></svg>