<?xml version="1.0" encoding="UTF-8"?>
<svg id="_レイヤー_2" xmlns="http://www.w3.org/2000/svg" version="1.1" xmlns:xlink="http://www.w3.org/1999/xlink" viewBox="0 0 162.7 20">
  <!-- Generator: Adobe Illustrator 29.5.1, SVG Export Plug-In . SVG Version: 2.1.0 Build 141)  -->
  <defs>
    <style>
      .st0 {
        fill: #1e93d2;
      }

      .st1 {
        fill: #fff;
      }

      .st2 {
        fill: #191310;
      }

      .st3 {
        fill: none;
      }

      .st4 {
        clip-path: url(#clippath);
      }
    </style>
    <clipPath id="clippath">
      <rect class="st3" y="0" width="162.7" height="20"/>
    </clipPath>
  </defs>
  <g id="_レイヤー_2-2">
    <g id="_レイヤー_1-2">
      <g class="st4">
        <g>
          <g>
            <path class="st2" d="M109,5.2c-.2-.5-.4-1.3-.5-1.6h0c0-.3-.3-.5-.6-.5h-1.8c-.2,0-.4,0-.4.3v.2c0,0,.4,1.2.6,1.8,0,.3.4.4.7.4h1.6c.3,0,.4,0,.4-.2v-.4"/>
            <path class="st2" d="M104.9,3.5c0-.2-.3-.4-.6-.4h-1.8c0,0-.2,0-.3,0v.3c0,0,.4,1.2.6,1.8s.4.4.7.4h1.6c.2,0,.3,0,.4-.2v-.4c-.2-.6-.5-1.6-.6-1.7"/>
            <path class="st0" d="M35.4,17.7c0,1.2-1,2.2-2.2,2.2s-2.2-1-2.2-2.2,1-2.2,2.2-2.2h0c1.2,0,2.2,1,2.2,2.2"/>
            <path class="st0" d="M36.7,2.3c.4-.8,0-1.8-.8-2.1h-.2c-.9-.3-1.8.2-2.3,1-.8,1.3-4.7,8.6-5.3,9.9s-1.5,2.9-2.2,2.7c-.6-.2-1.4-2.9-1.7-3.7-.6-1.4-1.7-3-3.6-2.6-1.5.3-2.3,1.4-3.6,3.9-.7,1.4-1.2,2.3-1.8,3.2-1.4,1.8-2.1-1.2-2.6-2.7-.6-2.1-1.7-5-4.1-5s-2.8.8-4.5,3.6c-1,1.6-3.5,6.3-3.8,7.1-.4.8,0,1.8.7,2.2h0c.9.4,1.8,0,2.3-.8,1.7-2.6,2.2-3.6,3-4.8.9-1.3,2.2-2.4,3.2.6.6,1.9,1.7,5.1,4.6,5.1s3.5-1.5,4.4-2.9c1-1.6,1.2-2.4,1.9-3.2.4-.4.9-.5,1.4.6s1.5,4.6,3.4,5.3c2.6,1.1,5.1-4.1,5.9-5.8.7-1.3,5.4-10.9,5.7-11.6"/>
            <path class="st2" d="M57.9,3.7c-.2,0-.4-.2-.6-.2h-15.8c-.2,0-.3,0-.4.2,0,0,0,.2,0,.4v2c0,.3.2.5.5.5h12.1c.3,0,.4,0,.5.2.2.2,0,.6,0,.7-.7,2.6-2.4,4.8-4.8,6.1h0c-.6-.8-1-1.4-1.5-2h0c-.2-.3-.4-.5-.7-.5h-2.7c-.2,0-.3,0-.4.2v.4c2,2.5,3.7,5.1,5.3,7.9,0,.2.3.4.6.4h2.9c0,0,.3,0,.3-.2v-.4c-.5-.9-1-1.8-1.6-2.7h0c0-.1,0-.2,0-.2,3.4-2.4,6.6-5.3,6.9-12.1,0-.2,0-.3-.2-.5"/>
            <path class="st2" d="M74.2,3.5c0,0-.3-.2-.4-.2h-2.6c-.3,0-.5.2-.6.4-1.5,3.4-5.9,5.9-11.9,6.9-.4,0-.6.3-.6.6v2c0,.1,0,.3.2.4,0,.1.3.2.5.1,2.9-.4,5.1-.9,6.9-1.7h.2c0-.1,0,7.1,0,7.1,0,.3.3.5.6.5h2.3c.3,0,.5-.2.5-.5v-8.9h0c2.3-1.6,4.2-4.1,5-6.5v-.4"/>
            <path class="st2" d="M86.3,10.6v-.2h5.1c.2,0,.3,0,.4-.2s.2-.2.2-.4v-2c0,0,0-.3,0-.4s-.3-.2-.4-.2h-5v-3.5c0-.3-.2-.5-.6-.5h-2.3c-.3,0-.5.2-.6.5h0v3.5h-7.6c-.2,0-.3,0-.4.2,0,0-.2.2-.2.4v2c0,.3.3.5.6.5h7.6v.2c-.3,4.3-2.4,5.5-6.3,6.3-.3,0-.5.2-.5.5v2c0,.1,0,.3.2.4s.3.1.4.1c6.6-.9,9.2-3.6,9.6-9.4"/>
            <path class="st2" d="M108.8,7.5s-.2,0-.4-.2h-11.1v-3.5c0-.2,0-.3-.2-.4,0,0-.3-.2-.4-.2h-2.1c-.3,0-.5.2-.5.5h0v11.7c0,2.9,1.2,4.2,4.4,4.2h10.2c.3,0,.5-.3.5-.6v-2c0-.3-.2-.5-.6-.5h-9.1c-.8,0-1.4,0-1.8-.3-.4-.4-.5-.9-.5-1.7v-4.2h11c.3,0,.6-.2.6-.6v-2c0-.2,0-.3-.2-.4"/>
            <path class="st0" d="M123.4,19.7h-8.4c-.6,0-1.1-.5-1.1-1.1,0-2.9,2.1-4.4,4.4-5.5,2.4-1.1,3.6-1.6,3.6-2.9s-1.1-1.6-2.7-1.6-2.4.3-3.4,1c-.2.1-.3.2-.5.2-.6,0-1-.4-1.1-.9h0c0-.8.7-1.3,1.9-1.8,1-.4,2.1-.6,3.2-.6,2.9,0,5,1.3,5,3.7s-1.4,3.1-3.9,4.4c-2.2,1.1-3.7,1.8-3.7,3.1h6.7c.6,0,1.1.5,1.1,1.1s-.5,1-1.1,1.1"/>
            <path class="st0" d="M132.1,20c-3.7,0-5.8-3.2-5.8-6.8s2.1-6.8,5.8-6.8,5.8,3.2,5.8,6.8-2.1,6.8-5.8,6.8M132.1,8.5c-1.9,0-3.4,1.9-3.4,4.7s1.5,4.7,3.4,4.7,3.4-1.9,3.4-4.7-1.5-4.7-3.4-4.7"/>
            <path class="st0" d="M149.3,19.7h-8.4c-.6,0-1.1-.5-1.1-1.1,0-2.9,2.1-4.4,4.4-5.5,2.4-1.1,3.6-1.6,3.6-2.9s-1.1-1.6-2.7-1.6-2.4.3-3.4,1c-.1.1-.3.2-.5.2-.6,0-1-.4-1.1-.9h0c0-.8.7-1.3,1.9-1.8,1-.4,2.1-.6,3.2-.6,2.9,0,5,1.3,5,3.7s-1.4,3.1-3.9,4.4c-2.2,1.1-3.7,1.8-3.7,3.1h6.7c.6,0,1.1.5,1.1,1.1s-.5,1-1.1,1.1"/>
          </g>
          <rect class="st1" x="148.4" y="19.7" width="2.2" height=".3"/>
          <rect class="st1" x="122.3" y="19.7" width="2.2" height=".3"/>
        </g>
      </g>
    </g>
  </g>
  <path class="st0" d="M160,6.5c.2,0,.5.2.5.5.3,1.4-2.4,1.9-3.6,2.9s-1.6,1.5-1.9,2.4c3.7-2.1,9,.1,7.4,4.8s-7,3.7-9.1,1.2c-3.7-4.2,1.5-12.3,6.7-11.9h0Z"/>
  <ellipse class="st1" cx="157.6" cy="15.7" rx="2.9" ry="2.4"/>
</svg>