<svg xmlns="http://www.w3.org/2000/svg" width="84.755" height="75.365" viewBox="0 0 84.755 75.365"><g transform="translate(-27.943 -1.386)"><path d="M2.925.12C5.07.12,6.21-1.035,6.21-3.375V-10.5H.93V-9.2h3.8v5.9c0,1.41-.615,2.13-1.8,2.13A2.618,2.618,0,0,1,.735-2.415L-.135-1.4A3.66,3.66,0,0,0,2.925.12Z" transform="translate(31.359 16.501) rotate(-18.253)" fill="#fff"/><path d="M4.77.09A3.956,3.956,0,0,0,8.895-3.975,3.944,3.944,0,0,0,4.77-8.025,3.956,3.956,0,0,0,.63-3.975,3.968,3.968,0,0,0,4.77.09Zm0-1.26a2.632,2.632,0,0,1-2.685-2.8A2.62,2.62,0,0,1,4.77-6.765a2.608,2.608,0,0,1,2.67,2.79A2.621,2.621,0,0,1,4.77-1.17Z" transform="translate(38.253 14.117) rotate(-9.002)" fill="#fff"/><path d="M2.085-9.48a.942.942,0,0,0,.975-.96.933.933,0,0,0-.975-.915.948.948,0,0,0-.975.945A.936.936,0,0,0,2.085-9.48ZM1.365,0h1.44V-7.95H1.365Z" transform="translate(47.366 12.826) rotate(-1.7)" fill="#fff"/><path d="M5.61-8.025A3.408,3.408,0,0,0,2.745-6.75v-1.2H1.365V0H2.8V-4.095a2.361,2.361,0,0,1,2.52-2.64c1.365,0,2.145.765,2.145,2.325V0H8.91V-4.575C8.91-6.915,7.545-8.025,5.61-8.025Z" transform="translate(51.215 12.488) rotate(5.889)" fill="#fff"/><path transform="translate(61.019 13.684) rotate(13.535)" fill="#fff"/><path d="M4.77.09A3.956,3.956,0,0,0,8.9-3.975,3.944,3.944,0,0,0,4.77-8.025,3.956,3.956,0,0,0,.63-3.975,3.968,3.968,0,0,0,4.77.09Zm0-1.26A2.632,2.632,0,0,1,2.085-3.975,2.62,2.62,0,0,1,4.77-6.765a2.608,2.608,0,0,1,2.67,2.79A2.621,2.621,0,0,1,4.77-1.17Z" transform="translate(64.669 14.361) rotate(20.816)" fill="#fff"/><path d="M7.335-7.95v4.11A2.339,2.339,0,0,1,4.875-1.2C3.51-1.2,2.73-1.98,2.73-3.54V-7.95H1.29v4.575A3.124,3.124,0,0,0,4.71.09,3.235,3.235,0,0,0,7.41-1.2V0H8.775V-7.95Z" transform="matrix(0.854, 0.521, -0.521, 0.854, 73.176, 17.522)" fill="#fff"/><path d="M2.745-6.615V-7.95H1.365V0h1.44V-3.96A2.372,2.372,0,0,1,5.31-6.645a2.543,2.543,0,0,1,.33.015v-1.4A3.035,3.035,0,0,0,2.745-6.615Z" transform="translate(81.471 22.726) rotate(40.087)" fill="#fff"/><path transform="matrix(0.701, 0.713, -0.713, 0.701, 85.957, 26.553)" fill="#fff"/><path d="M3.66,0H5.145V-9.195h3.6v-1.3H.06v1.3h3.6Z" transform="translate(88.689 29.103) rotate(52.309)" fill="#fff"/><path d="M3.075-1.3v-3.39H8.34V-5.97H3.075V-9.195h5.91v-1.3H1.575V0h7.62V-1.3Z" transform="translate(93.898 35.693) rotate(62.4)" fill="#fff"/><path d="M9.42,0H11L6.225-10.5H4.74L-.015,0H1.53L2.685-2.625h5.58ZM3.21-3.825,5.475-8.97,7.74-3.825Z" transform="matrix(0.281, 0.96, -0.96, 0.281, 98.416, 44.132)" fill="#fff"/><path d="M12.75,0l-.015-10.5H11.5L7.185-3.12,2.8-10.5H1.575V0h1.44V-7.6L6.81-1.275H7.5L11.295-7.65,11.31,0Z" transform="matrix(0.048, 0.999, -0.999, 0.048, 101.594, 54.085)" fill="#fff"/><path transform="translate(101.867 67.954) rotate(96.928)" fill="#fff"/><path d="M1.44-3.315H2.58L2.865-10.5H1.17ZM2.025.09a.948.948,0,0,0,.96-.96.939.939,0,0,0-.96-.96.955.955,0,0,0-.99.96A.964.964,0,0,0,2.025.09Z" transform="translate(101.411 71.774) rotate(101.251)" fill="#fff"/></g></svg>