<svg xmlns="http://www.w3.org/2000/svg" width="84.755" height="75.365"><path d="M6.231 14.313c2.037-.672 2.758-2.126 2.025-4.348L6.025 3.198 1.01 4.852l.408 1.235 3.608-1.19L6.874 10.5c.442 1.339.083 2.215-1.042 2.586a2.618 2.618 0 01-2.474-.495l-.509 1.237a3.66 3.66 0 003.382.485zm8.804-2.239a3.956 3.956 0 003.438-4.66 3.944 3.944 0 00-4.707-3.356 3.956 3.956 0 00-3.456 4.648 3.968 3.968 0 004.725 3.368zm-.197-1.245a2.632 2.632 0 01-3.09-2.345 2.62 2.62 0 012.215-3.181 2.608 2.608 0 013.073 2.338 2.621 2.621 0 01-2.198 3.188zm6.388-8.927a.942.942 0 00.946-.988.933.933 0 00-1.002-.886.948.948 0 00-.946.974.936.936 0 001.002.9zm-.439 9.498l1.44-.043-.236-7.947-1.44.043zm8.889-7.705a3.408 3.408 0 00-2.98.974l.122-1.193-1.373-.142-.815 7.908 1.427.147.42-4.073a2.361 2.361 0 012.778-2.368c1.358.14 2.055.981 1.895 2.533l-.452 4.387 1.437.148.47-4.55c.24-2.328-1.004-3.573-2.93-3.771zm11.477 11.059a3.956 3.956 0 005.305-2.332 3.944 3.944 0 00-2.422-5.253 3.956 3.956 0 00-5.309 2.314 3.968 3.968 0 002.426 5.271zm.447-1.178A2.632 2.632 0 0140.087 10a2.62 2.62 0 013.502-1.653 2.608 2.608 0 011.504 3.556 2.621 2.621 0 01-3.493 1.673zm14.039-.408l-2.141 3.51a2.34 2.34 0 01-3.477.973c-1.165-.711-1.425-1.784-.612-3.116l2.297-3.766-1.23-.75-2.383 3.907a3.125 3.125 0 001.115 4.74 3.236 3.236 0 002.978.306l-.625 1.025 1.166.71 4.142-6.789zm4.249 4.879l.86-1.022-1.056-.888-5.12 6.082 1.102.927 2.55-3.03a2.372 2.372 0 013.646-.44 2.543 2.543 0 01.242.223l.902-1.07a3.035 3.035 0 00-3.126-.782zm3.096 12.566l.908 1.175 7.276-5.622 2.2 2.85 1.03-.796-5.31-6.872-1.03.795 2.202 2.848zm5.548 5.817l3.004-1.57 2.44 4.665 1.134-.593-2.44-4.666 2.858-1.494 2.738 5.238 1.152-.603-3.433-6.567-9.3 4.863 3.53 6.753 1.152-.603zm4.588 15.36l.444 1.516 8.738-7.535-.417-1.425-11.416-1.614.434 1.483 2.844.371 1.568 5.357zm1.927-7.037l5.576.728-4.303 3.62zm-.784 20.683l10.489-.519-.06-1.234-7.58-3.956 7.163-4.735-.059-1.224-10.49.504.07 1.439 7.592-.365-6.136 4.095.033.69 6.55 3.485-7.641.382zm2.175 7.011l-.222 1.118 6.991 1.682.33-1.663zm-3.453-.09a.948.948 0 00.754 1.128.939.939 0 001.129-.754.955.955 0 00-.749-1.158.964.964 0 00-1.134.784z" fill="#fff"/></svg>