<svg xmlns="http://www.w3.org/2000/svg" xmlns:xlink="http://www.w3.org/1999/xlink" width="139.325" height="85.012" viewBox="0 0 139.325 85.012"><defs><clipPath id="a"><rect width="90.603" height="68.815" fill="none"/></clipPath><clipPath id="b"><rect width="9.16" height="9.16" transform="translate(0 0)" fill="none"/></clipPath><clipPath id="f"><rect width="36.89" height="6.036" fill="#2e2e2e"/></clipPath></defs><g transform="translate(-1248 -751)"><g transform="translate(1249.476 753.053)"><g transform="translate(23.66 13.437)"><g clip-path="url(#a)"><path d="M118.329,68.739h-44.2a.964.964,0,0,1-.965-.965V.965A.964.964,0,0,1,74.132,0h44.2a.964.964,0,0,1,.964.965V67.774a.964.964,0,0,1-.964.965M75.1,66.81h42.268V1.929H75.1Z" transform="translate(-50.929)" fill="#272727"/><path d="M241.788,102.462H219.55a.964.964,0,0,1-.965-.965V49.413a.964.964,0,0,1,.965-.965h22.238a.964.964,0,0,1,.965.965V101.5a.964.964,0,0,1-.965.965m-21.274-1.929h20.309V50.377H220.514Z" transform="translate(-152.15 -33.723)" fill="#272727"/><path d="M23.2,102.462H.965A.964.964,0,0,1,0,101.5V49.413a.964.964,0,0,1,.965-.965H23.2a.964.964,0,0,1,.965.965V101.5a.964.964,0,0,1-.965.965M1.929,100.533H22.238V50.377H1.929Z" transform="translate(0 -33.723)" fill="#272727"/><path d="M252.9,80.536h-5.015a.965.965,0,1,1,0-1.929H252.9a.965.965,0,1,1,0,1.929" transform="translate(-171.871 -54.716)" fill="#272727"/><path d="M34.314,80.536H29.3a.965.965,0,0,1,0-1.929h5.015a.965.965,0,1,1,0,1.929" transform="translate(-19.722 -54.716)" fill="#272727"/><path d="M252.9,108.3h-5.015a.965.965,0,1,1,0-1.929H252.9a.965.965,0,1,1,0,1.929" transform="translate(-171.871 -74.041)" fill="#272727"/><path d="M34.314,108.3H29.3a.965.965,0,0,1,0-1.929h5.015a.965.965,0,1,1,0,1.929" transform="translate(-19.722 -74.041)" fill="#272727"/><path d="M252.9,136.06h-5.015a.965.965,0,1,1,0-1.929H252.9a.965.965,0,1,1,0,1.929" transform="translate(-171.871 -93.364)" fill="#272727"/><path d="M34.314,136.06H29.3a.965.965,0,0,1,0-1.929h5.015a.965.965,0,1,1,0,1.929" transform="translate(-19.722 -93.364)" fill="#272727"/><path d="M252.9,163.823h-5.015a.965.965,0,1,1,0-1.929H252.9a.965.965,0,1,1,0,1.929" transform="translate(-171.871 -112.689)" fill="#272727"/><path d="M34.314,163.823H29.3a.965.965,0,0,1,0-1.929h5.015a.965.965,0,1,1,0,1.929" transform="translate(-19.722 -112.689)" fill="#272727"/><path d="M252.9,191.583h-5.015a.965.965,0,1,1,0-1.929H252.9a.965.965,0,1,1,0,1.929" transform="translate(-171.871 -132.012)" fill="#272727"/><path d="M34.314,191.583H29.3a.965.965,0,0,1,0-1.929h5.015a.965.965,0,1,1,0,1.929" transform="translate(-19.722 -132.012)" fill="#272727"/><path d="M181.945,95.782h-5.017a.965.965,0,0,1,0-1.929h5.017a.965.965,0,1,1,0,1.929" transform="translate(-122.483 -65.328)" fill="#272727"/><path d="M105.268,95.782h-5.015a.965.965,0,0,1,0-1.929h5.015a.965.965,0,1,1,0,1.929" transform="translate(-69.111 -65.328)" fill="#272727"/><path d="M181.945,128.181h-5.017a.965.965,0,0,1,0-1.929h5.017a.965.965,0,1,1,0,1.929" transform="translate(-122.483 -87.88)" fill="#272727"/><path d="M105.268,128.181h-5.015a.965.965,0,0,1,0-1.929h5.015a.965.965,0,1,1,0,1.929" transform="translate(-69.111 -87.88)" fill="#272727"/><path d="M181.945,160.584h-5.017a.965.965,0,0,1,0-1.929h5.017a.965.965,0,1,1,0,1.929" transform="translate(-122.483 -110.434)" fill="#272727"/><path d="M105.268,160.584h-5.015a.965.965,0,0,1,0-1.929h5.015a.965.965,0,1,1,0,1.929" transform="translate(-69.111 -110.434)" fill="#272727"/><path d="M143.784,95.782h-4.74a.965.965,0,1,1,0-1.929h4.74a.965.965,0,1,1,0,1.929" transform="translate(-96.112 -65.328)" fill="#272727"/><path d="M143.784,128.181h-4.74a.965.965,0,1,1,0-1.929h4.74a.965.965,0,1,1,0,1.929" transform="translate(-96.112 -87.88)" fill="#272727"/><path d="M143.784,160.584h-4.74a.965.965,0,1,1,0-1.929h4.74a.965.965,0,1,1,0,1.929" transform="translate(-96.112 -110.434)" fill="#272727"/><path d="M141.09,185.506a.967.967,0,0,1-.889-.59,3.818,3.818,0,0,0-7.132,0,.965.965,0,0,1-1.779-.75,5.748,5.748,0,0,1,10.69,0,.966.966,0,0,1-.889,1.339" transform="translate(-91.333 -125.663)" fill="#272727"/><path d="M140.587,201.45h-9.695a.964.964,0,0,1-.964-.965v-7.032a5.905,5.905,0,0,1,.469-2.316.964.964,0,1,1,1.775.752,4,4,0,0,0-.315,1.565v6.067h7.766v-6.067a4,4,0,0,0-.315-1.565.964.964,0,1,1,1.775-.752,5.906,5.906,0,0,1,.469,2.316v7.032a.964.964,0,0,1-.965.965" transform="translate(-90.439 -132.635)" fill="#272727"/></g></g><g transform="translate(14.501 6.638)"><g transform="translate(0 0)" clip-path="url(#b)"><path d="M30.512,3.024a.926.926,0,0,1-.926-.926V.926a.926.926,0,1,1,1.852,0V2.1a.926.926,0,0,1-.926.926" transform="translate(-25.932 0)" fill="#333"/><path d="M30.512,52.709a.926.926,0,0,1-.926-.926V50.611a.926.926,0,1,1,1.852,0v1.172a.926.926,0,0,1-.926.926" transform="translate(-25.932 -43.549)" fill="#333"/><path d="M2.1,31.439H.926a.926.926,0,1,1,0-1.852H2.1a.926.926,0,1,1,0,1.852" transform="translate(0 -25.933)" fill="#333"/><path d="M51.783,31.439H50.611a.926.926,0,0,1,0-1.852h1.172a.926.926,0,1,1,0,1.852" transform="translate(-43.549 -25.933)" fill="#333"/></g></g><g transform="translate(104.938 0)"><g transform="translate(0 0)" clip-path="url(#b)"><path d="M30.512,3.024a.926.926,0,0,1-.926-.926V.926a.926.926,0,1,1,1.852,0V2.1a.926.926,0,0,1-.926.926" transform="translate(-25.932 0)" fill="#333"/><path d="M30.512,52.709a.926.926,0,0,1-.926-.926V50.611a.926.926,0,1,1,1.852,0v1.172a.926.926,0,0,1-.926.926" transform="translate(-25.932 -43.549)" fill="#333"/><path d="M2.1,31.439H.926a.926.926,0,1,1,0-1.852H2.1a.926.926,0,1,1,0,1.852" transform="translate(0 -25.933)" fill="#333"/><path d="M51.783,31.439H50.611a.926.926,0,0,1,0-1.852h1.172a.926.926,0,1,1,0,1.852" transform="translate(-43.549 -25.933)" fill="#333"/></g></g><g transform="translate(126.033 37.646)"><g transform="translate(0 0)" clip-path="url(#b)"><path d="M30.512,3.024a.926.926,0,0,1-.926-.926V.926a.926.926,0,1,1,1.852,0V2.1a.926.926,0,0,1-.926.926" transform="translate(-25.932 0)" fill="#333"/><path d="M30.512,52.709a.926.926,0,0,1-.926-.926V50.611a.926.926,0,1,1,1.852,0v1.172a.926.926,0,0,1-.926.926" transform="translate(-25.932 -43.549)" fill="#333"/><path d="M2.1,31.439H.926a.926.926,0,1,1,0-1.852H2.1a.926.926,0,1,1,0,1.852" transform="translate(0 -25.933)" fill="#333"/><path d="M51.783,31.439H50.611a.926.926,0,0,1,0-1.852h1.172a.926.926,0,1,1,0,1.852" transform="translate(-43.549 -25.933)" fill="#333"/></g></g><g transform="translate(0 45.625)"><g transform="translate(0 0)" clip-path="url(#b)"><path d="M30.512,3.024a.926.926,0,0,1-.926-.926V.926a.926.926,0,1,1,1.852,0V2.1a.926.926,0,0,1-.926.926" transform="translate(-25.932 0)" fill="#333"/><path d="M30.512,52.709a.926.926,0,0,1-.926-.926V50.611a.926.926,0,1,1,1.852,0v1.172a.926.926,0,0,1-.926.926" transform="translate(-25.932 -43.549)" fill="#333"/><path d="M2.1,31.439H.926a.926.926,0,1,1,0-1.852H2.1a.926.926,0,1,1,0,1.852" transform="translate(0 -25.933)" fill="#333"/><path d="M51.783,31.439H50.611a.926.926,0,0,1,0-1.852h1.172a.926.926,0,1,1,0,1.852" transform="translate(-43.549 -25.933)" fill="#333"/></g></g><g transform="translate(10.894 28.252)" fill="#fff" stroke="#272727" stroke-width="1"><circle cx="1.018" cy="1.018" r="1.018" stroke="none"/><circle cx="1.018" cy="1.018" r="0.518" fill="none"/></g><g transform="translate(34.838 3.085)" fill="#fff" stroke="#272727" stroke-width="1"><circle cx="1.018" cy="1.018" r="1.018" stroke="none"/><circle cx="1.018" cy="1.018" r="0.518" fill="none"/></g><g transform="translate(125.97 20.271)" fill="#fff" stroke="#272727" stroke-width="1"><circle cx="1.018" cy="1.018" r="1.018" stroke="none"/><circle cx="1.018" cy="1.018" r="0.518" fill="none"/></g><g transform="translate(51.093 22.532)"><rect width="1.953" height="5.983" transform="translate(18.323 0.001)" fill="#2e2e2e"/><g transform="translate(0 0)"><g clip-path="url(#f)"><path d="M134.531,1.527a2.575,2.575,0,0,0-1.746.583V.015h-1.952V6h1.952V3.526a.9.9,0,0,1,.847-.714c.617,0,.821.513.821,1V6h1.952V3.172a1.718,1.718,0,0,0-1.875-1.644" transform="translate(-118.519 -0.014)" fill="#2e2e2e"/><path d="M84.144,8.921V7.851h-.719a.572.572,0,0,1-.642-.644V5.82h1.184V4.69H82.783V3.307l-1.952.715V4.69H79.676V5.82H80.83V7.842c0,.668.3,1.079.9,1.137a10.468,10.468,0,0,0,2.414-.058" transform="translate(-72.177 -2.996)" fill="#2e2e2e"/><path d="M285.689,8.921V7.851h-.719a.572.572,0,0,1-.642-.644V5.82h1.184V4.69h-1.184V3.307l-1.952.715V4.69h-1.154V5.82h1.154V7.842c0,.668.3,1.079.9,1.137a10.471,10.471,0,0,0,2.415-.058" transform="translate(-254.754 -2.996)" fill="#2e2e2e"/><path d="M6.635,5.983H8.754L5.537,0H3.086L0,5.983H2.119l.45-.872h3.6ZM3.325,3.645,4.33,1.7,5.379,3.645Z" transform="translate(0 0)" fill="#2e2e2e"/><path d="M223.821,16.87a2.138,2.138,0,0,0-2.154-2.317,4.972,4.972,0,0,0-1.451,0,2.32,2.32,0,0,0-2.25,2.317,2.248,2.248,0,0,0,2.225,2.248,4.876,4.876,0,0,0,1.435,0,2.085,2.085,0,0,0,2.2-1.58h-1.984a.931.931,0,0,1-1.81-.289h3.794Zm-3.827-.6c0-.52.517-.675.976-.675s.97.212.97.675Z" transform="translate(-197.452 -13.135)" fill="#2e2e2e"/><path d="M335.612,16.87a2.138,2.138,0,0,0-2.154-2.317,4.974,4.974,0,0,0-1.451,0,2.32,2.32,0,0,0-2.25,2.317,2.248,2.248,0,0,0,2.224,2.248,4.877,4.877,0,0,0,1.435,0,2.086,2.086,0,0,0,2.2-1.58h-1.984a.932.932,0,0,1-1.811-.289h3.795Zm-3.827-.6c0-.52.518-.675.976-.675s.971.212.971.675Z" transform="translate(-298.722 -13.135)" fill="#2e2e2e"/></g></g></g></g><rect width="139.325" height="85.012" transform="translate(1248 751)" fill="none"/></g></svg>