<svg xmlns="http://www.w3.org/2000/svg" xmlns:xlink="http://www.w3.org/1999/xlink" width="119.999" height="127" viewBox="0 0 119.999 127"><defs><clipPath id="a"><rect width="56.05" height="52.629" fill="none"/></clipPath></defs><g transform="translate(-1015.999 -2080.938)"><g transform="translate(1015.999 2080.938)" fill="#fff" stroke-linejoin="round"><path d="M 25.58899116516113 124.7312088012695 L 27.54502868652344 109.984619140625 L 27.62659454345703 109.3696975708008 L 27.11191177368164 109.0234298706055 C 23.1865119934082 106.3824996948242 19.57791137695312 103.2678833007812 16.38636207580566 99.76608276367188 C 13.18566131591797 96.25424957275391 10.41406154632568 92.36344909667969 8.148561477661133 88.20175170898438 C 5.843595027923584 83.96759796142578 4.06592845916748 79.45798492431641 2.864895105361938 74.79817962646484 C 1.627445101737976 69.99703216552734 0.9999950528144836 65.02408599853516 0.9999950528144836 60.01748275756836 C 0.9999950528144836 52.04949951171875 2.559745073318481 44.32048416137695 5.63591194152832 37.04513168334961 C 7.114445209503174 33.54830169677734 8.944511413574219 30.17553329467773 11.07529544830322 27.02053260803223 C 13.18599510192871 23.89525032043457 15.61004543304443 20.95635032653809 18.28009414672852 18.28546714782715 C 20.95012855529785 15.61458301544189 23.88811111450195 13.18978309631348 27.01241111755371 11.07841682434082 C 30.16642761230469 8.946967124938965 33.53812789916992 7.116333484649658 37.03386306762695 5.637350082397461 C 44.30691146850586 2.560233354568481 52.03351211547852 1 59.99902725219727 1 C 67.96454620361328 1 75.69119262695312 2.560233354568481 82.96434783935547 5.637350082397461 C 86.46012878417969 7.116333484649658 89.83187866210938 8.946983337402344 92.98594665527344 11.07841682434082 C 96.11031341552734 13.18978309631348 99.04834747314453 15.61460018157959 101.7184448242188 18.28546714782715 C 104.3885650634766 20.95635032653809 106.8126602172852 23.89525032043457 108.9234313964844 27.02053260803223 C 111.0542602539062 30.17555046081543 112.884391784668 33.54830169677734 114.3629608154297 37.04513168334961 C 117.4392318725586 44.32051849365234 118.9990310668945 52.04951477050781 118.9990310668945 60.01748275756836 C 118.9990310668945 67.98556518554688 117.4392318725586 75.71465301513672 114.3629608154297 82.99003601074219 C 112.884391784668 86.48688507080078 111.0542602539062 89.85964965820312 108.9234313964844 93.0146484375 C 106.8126602172852 96.13991546630859 104.3885650634766 99.07881927490234 101.7184448242188 101.7496795654297 C 99.04834747314453 104.4205322265625 96.11031341552734 106.8453140258789 92.98594665527344 108.9566802978516 C 89.83189392089844 111.0880966186523 86.46014404296875 112.9187164306641 82.96434783935547 114.3976821899414 C 75.69121551513672 117.4747695922852 67.96456146240234 119.0349655151367 59.99902725219727 119.0349655151367 C 52.71162796020508 119.0349655151367 45.59797668457031 117.7218170166016 38.85564422607422 115.1319808959961 L 38.33206176757812 114.9308700561523 L 37.88744354248047 115.2727966308594 L 25.58899116516113 124.7312088012695 Z" stroke="none"/><path d="M 26.8986930847168 122.4624176025391 L 37.27780151367188 114.4801254272461 C 37.83014678955078 114.0553359985352 38.56376266479492 113.9486236572266 39.2142219543457 114.1984939575195 C 45.84165573120117 116.7441787719727 52.83465576171875 118.0349655151367 59.99901962280273 118.0349655151367 C 67.82996368408203 118.0349655151367 75.42552947998047 116.5013427734375 82.57471466064453 113.4767303466797 C 86.01102447509766 112.0229110717773 89.32549285888672 110.2233810424805 92.42604064941406 108.1281280517578 C 95.49765777587891 106.0523986816406 98.38614654541016 103.6685256958008 101.0112380981445 101.0426712036133 C 103.636344909668 98.41681671142578 106.0195846557617 95.52748870849609 108.0947265625 92.45496368408203 C 110.1894226074219 89.35345458984375 111.9884719848633 86.0379638671875 113.4419097900391 82.60060119628906 C 116.4657821655273 75.44908905029297 117.9990234375 67.85103607177734 117.9990234375 60.01749038696289 C 117.9990234375 52.18405532836914 116.4657821655273 44.58605575561523 113.4419097900391 37.4345817565918 C 111.9884719848633 33.99721908569336 110.1894226074219 30.68172645568848 108.0947113037109 27.58023643493652 C 106.0195846557617 24.5076904296875 103.636344909668 21.61834526062012 101.0112380981445 18.99247360229492 C 98.38613128662109 16.36660003662109 95.49765777587891 13.98269081115723 92.42601776123047 11.90696334838867 C 89.32547760009766 9.811691284179688 86.01100158691406 8.012145042419434 82.57469177246094 6.558309078216553 C 75.42549133300781 3.533636331558228 67.82994842529297 2 59.99901962280273 2 C 52.16810989379883 2 44.57260131835938 3.533636331558228 37.42349243164062 6.558309078216553 C 33.98723983764648 8.012126922607422 30.67283821105957 9.811673164367676 27.57233047485352 11.90696334838867 C 24.50076675415039 13.98269081115723 21.61234855651855 16.36660003662109 18.98731231689453 18.99245452880859 C 16.36225700378418 21.61832809448242 13.97909355163574 24.50765419006348 11.90400218963623 27.5802001953125 C 9.809366226196289 30.68170928955078 8.010348320007324 33.99720001220703 6.556966304779053 37.43456268310547 C 3.53318452835083 44.58603668212891 2.00000262260437 52.18401718139648 2.00000262260437 60.01749038696289 C 2.00000262260437 64.93994903564453 2.61680269241333 69.82891082763672 3.83325719833374 74.548583984375 C 5.013784408569336 79.12887573242188 6.761166095733643 83.56159973144531 9.026857376098633 87.72361755371094 C 11.25402069091797 91.81487274169922 13.97878456115723 95.63990783691406 17.12545776367188 99.09247589111328 C 20.26322174072266 102.5352554321289 23.81096649169922 105.5973663330078 27.67012977600098 108.1937255859375 C 28.30063819885254 108.6179122924805 28.63627624511719 109.3627853393555 28.53634834289551 110.1161117553711 L 26.8986930847168 122.4624176025391 M 24.27929306030273 127 L 26.5537109375 109.8531265258789 C 10.53612995147705 99.07685089111328 2.627841013236321e-06 80.77923583984375 2.627841013236321e-06 60.01749038696289 C 2.627841013236321e-06 26.87007331848145 26.86133003234863 0 59.99901962280273 0 C 93.13671112060547 0 119.9990234375 26.87007331848145 119.9990234375 60.01749038696289 C 119.9990234375 93.16538238525391 93.13671112060547 120.0349655151367 59.99901962280273 120.0349655151367 C 52.42089462280273 120.0349655151367 45.17285537719727 118.6297607421875 38.49707412719727 116.0654907226562 L 24.27929306030273 127 Z" stroke="none" fill="#272727"/></g><g transform="translate(1048.272 2110.819)"><g clip-path="url(#a)"><path d="M56.038,51.728l-1.214-6.676a12.926,12.926,0,0,0-7.108-9.314L37.34,30.878a3.957,3.957,0,0,0-1.764-2,.76.76,0,0,0-.367-.092,2.259,2.259,0,0,1-.03-.362V26.306a16.955,16.955,0,0,0,2.1-5.112.762.762,0,0,0,.108-.2c2.484-6.827,2.718-12.113.7-15.711-1.431-2.546-3.927-4.192-7.417-4.89C22.642-1.213,20.382,2.554,20.01,3.326a2.909,2.909,0,0,0-.238,1.117A3.045,3.045,0,0,0,16.9,5.792c-1.434,1.87-1.27,5-.879,7.3a25.4,25.4,0,0,0,2.512,7.447,17.526,17.526,0,0,0,2.239,5.745v2.151a2.244,2.244,0,0,1-.028.35.821.821,0,0,0-.3.1,3.951,3.951,0,0,0-1.729,1.965L8.371,35.749a12.917,12.917,0,0,0-7.15,9.335L.012,51.728a.763.763,0,0,0,.751.9H55.287a.763.763,0,0,0,.751-.9M35.673,30.986a6.822,6.822,0,0,1,.546,4.346A20.261,20.261,0,0,1,35.5,38.6a9.368,9.368,0,0,0-4.855-2.937c3.269-1.643,4.539-3.444,5.029-4.677m-1.425-.524c-.438,1.079-1.826,3-6.212,4.68-4.5-1.713-5.862-3.691-6.276-4.761a3.824,3.824,0,0,0,.54-1.95v-.283A8.331,8.331,0,0,0,27.984,30.7a8.324,8.324,0,0,0,5.668-2.533v.257a3.812,3.812,0,0,0,.6,2.041M28.04,36.734a12.548,12.548,0,0,1,2.888.625l-.881,1.761H25.981l-.869-1.739a12.9,12.9,0,0,1,2.928-.647M18.113,6.721a1.65,1.65,0,0,1,1.255-.786,1.387,1.387,0,0,1,.8.292.764.764,0,0,0,1.195-.756,3.419,3.419,0,0,1,.018-1.482c.175-.364,1.915-3.512,8.983-2.1,3.034.607,5.183,2,6.386,4.142,1.324,2.356,1.525,5.62.6,9.738a8.257,8.257,0,0,0-2.328-5.181,5.139,5.139,0,0,0-5.005-.752c-7.014,2.016-8.378-2.025-8.43-2.192a.763.763,0,0,0-1.488.32,13.231,13.231,0,0,1-.784,6.118,23.708,23.708,0,0,0-.727,2.8C17.3,13.23,16.633,8.651,18.113,6.721M20.047,20.31a.771.771,0,0,0-.007-.1,12.218,12.218,0,0,1,.743-5.682,18.8,18.8,0,0,0,.917-4.188c.138.12.287.237.448.351,1.374.973,3.93,1.869,8.3.614a3.673,3.673,0,0,1,3.595.448c1.994,1.691,2.086,6.219,1.921,8.378-.007.021-.013.043-.017.065a15.942,15.942,0,0,1-2.058,5.3,7.423,7.423,0,0,1-5.9,3.679,7.423,7.423,0,0,1-5.9-3.679,15.826,15.826,0,0,1-2.032-5.181m-.033,11.4a.775.775,0,0,0,.031-.087,3.167,3.167,0,0,1,.313-.629c.495,1.236,1.778,3.039,5.074,4.682a12.719,12.719,0,0,0-1.624.572.766.766,0,0,0-.1.04l-.033.018a8.244,8.244,0,0,0-3.11,2.3c-.543-1.781-1.244-4.912-.553-6.9M23.2,51.1H11.223V45.4a.763.763,0,0,0-1.527,0v5.7H1.678l1.045-5.744a11.387,11.387,0,0,1,6.3-8.229l9.226-4.375a12.4,12.4,0,0,0,.1,2.993,21.793,21.793,0,0,0,.78,3.389c.126.4.261.787.38,1.089.161.409.3.763.727.86a.762.762,0,0,0,.168.019.766.766,0,0,0,.705-.462,5.617,5.617,0,0,1,2.6-2.647l1,2Zm1.541,0L26.16,40.647h3.707L31.288,51.1Zm21.433,0V45.4a.763.763,0,0,0-1.527,0v5.7H32.829L31.319,39.99l1.011-2.022a5.709,5.709,0,0,1,2.635,2.674.769.769,0,0,0,.7.463h0c.58,0,.742-.458,1.011-1.214.141-.4.354-1.044.566-1.866a15.821,15.821,0,0,0,.551-5.247l9.265,4.339a11.393,11.393,0,0,1,6.26,8.208l1.05,5.776Z" transform="translate(0 0.001)" fill="#272727"/></g></g></g></svg>