<svg xmlns="http://www.w3.org/2000/svg" xmlns:xlink="http://www.w3.org/1999/xlink" width="84" height="84" viewBox="0 0 84 84"><defs><clipPath id="a"><rect width="78.708" height="76.871" fill="none"/></clipPath></defs><g transform="translate(-554.5 -2303)"><g transform="translate(557.5 2305.282)"><g clip-path="url(#a)"><path d="M175.594,342.316a1.175,1.175,0,0,1-.807-2.028l4.508-4.26.013-.013a1.031,1.031,0,0,0,.026-1.5,1.035,1.035,0,0,0-1.4-.037l-4.559,4.025a1.175,1.175,0,0,1-1.558,0l-5.744-5.107a1.175,1.175,0,0,1,1.561-1.756l4.967,4.416,3.779-3.337a3.38,3.38,0,0,1,4.528,5.02L176.4,342a1.17,1.17,0,0,1-.807.321" transform="translate(-139.728 -279.454)" fill="#272727"/><path d="M116.938,338.994a1.171,1.171,0,0,1-.855-.369l-.283-.3c-1.982-2.094-2.886-3.05-2.375-6.568a1.175,1.175,0,0,1,2.325.338c-.348,2.392-.108,2.645,1.757,4.616l.285.3a1.174,1.174,0,0,1-.854,1.98" transform="translate(-95.544 -278.954)" fill="#272727"/><path d="M124.092,278.859a4.328,4.328,0,0,1-4.117-2.984,1.1,1.1,0,1,1,2.085-.676,2.112,2.112,0,0,0,2.693,1.362,2.153,2.153,0,0,0,1.39-2.683l-1.187-3.094A1.1,1.1,0,0,1,127,270l1.2,3.123c.007.018.013.036.019.055a4.344,4.344,0,0,1-4.129,5.683" transform="translate(-101.14 -227.121)" fill="#272727"/><path d="M101.674,248.732c-2.3,0-3.714-2.984-4.421-4.478-.049-.1-.094-.2-.135-.283a3.731,3.731,0,0,1,.418-4.014,4.8,4.8,0,0,1,3.41-3.2,4.47,4.47,0,0,0,2.45-1.4,1.048,1.048,0,0,1,.736-.51,1.083,1.083,0,0,1,.886.252,6.973,6.973,0,0,1,2.467,6.434,1.1,1.1,0,0,1-2.153-.412,4.79,4.79,0,0,0-1-3.622,7.7,7.7,0,0,1-2.82,1.374l-.05.012A2.56,2.56,0,0,0,99.61,240.7a.988.988,0,0,1-.314.57,1.494,1.494,0,0,0-.2,1.743c.043.09.091.191.143.3,1.073,2.266,1.941,3.345,2.573,3.207a1.1,1.1,0,0,1,.465,2.143,2.815,2.815,0,0,1-.6.066" transform="translate(-81.57 -198.057)" fill="#272727"/><path d="M70.328,331.429a56.7,56.7,0,0,1-24.645-5.537,40.611,40.611,0,0,1-8.875-5.6,1.174,1.174,0,0,1,1.572-1.746,39.3,39.3,0,0,0,8.413,5.277,54.365,54.365,0,0,0,23.536,5.261c20.027,0,31.175-9.853,31.285-9.953a1.175,1.175,0,0,1,1.574,1.744,37.6,37.6,0,0,1-8.556,5.318,56.983,56.983,0,0,1-24.3,5.24" transform="translate(-30.716 -268.401)" fill="#272727"/><path d="M39.606,332.473c-6.7,0-11.873-1.1-15.829-3.375-3.641-2.09-6.372-5.184-8.594-9.735-5-10.234-11.115-13.949-14.009-13.949a1.175,1.175,0,0,1,0-2.349c4.314,0,10.971,4.721,16.12,15.268a19.093,19.093,0,0,0,7.652,8.728c3.591,2.061,8.386,3.063,14.66,3.063a26.834,26.834,0,0,0,15.216-4.373,29.261,29.261,0,0,0,8.373-8.805l.079-.124c4.081-6.449,8.706-13.757,13.768-13.757a1.175,1.175,0,0,1,0,2.349c-3.769,0-8.212,7.022-11.783,12.664l-.079.124a31.586,31.586,0,0,1-9.052,9.5,29.137,29.137,0,0,1-16.523,4.77" transform="translate(0 -255.601)" fill="#272727"/><path d="M270.158,338.337a1.171,1.171,0,0,1-.8-.316l-6.6-6.172a2.851,2.851,0,0,0-4.453,1,1.175,1.175,0,0,1-2.144-.96,5.2,5.2,0,0,1,8.15-1.8l.033.03,6.622,6.188a1.175,1.175,0,0,1-.8,2.033" transform="translate(-215.952 -277.32)" fill="#272727"/><path d="M286.277,370.312a1.17,1.17,0,0,1-.772-.29l-3.245-2.834a1.175,1.175,0,1,1,1.545-1.77l3.245,2.833a1.175,1.175,0,0,1-.773,2.059" transform="translate(-237.716 -307.947)" fill="#272727"/><path d="M352.534,173.267a10.827,10.827,0,0,1-2.475-.27,1.175,1.175,0,0,1,.58-2.276,8.458,8.458,0,0,0,4.682-.31,1.175,1.175,0,0,1,.9,2.169,9.652,9.652,0,0,1-3.689.688" transform="translate(-294.491 -143.646)" fill="#272727"/><path d="M349.907,170.039a1.175,1.175,0,0,1-1.053-.652,143.845,143.845,0,0,1-10.2-27.774,1.175,1.175,0,0,1,2.288-.532,141.3,141.3,0,0,0,10.014,27.26,1.175,1.175,0,0,1-1.051,1.7" transform="translate(-285.593 -118.22)" fill="#272727"/><path d="M383.412,150.645a1.175,1.175,0,0,1-1.125-.84c-2.647-8.893-10.254-26.438-10.33-26.614a1.174,1.174,0,1,1,2.154-.936c.315.725,7.74,17.85,10.427,26.879a1.175,1.175,0,0,1-1.126,1.51" transform="translate(-313.622 -102.513)" fill="#272727"/><path d="M371.887,205.8a1.175,1.175,0,0,1-.8-2.031c.023-.022,2.355-2.216,4.039-4.069a1.175,1.175,0,1,1,1.739,1.58c-1.747,1.923-4.071,4.109-4.169,4.2a1.17,1.17,0,0,1-.8.319" transform="translate(-312.655 -168.104)" fill="#272727"/><path d="M386.591,262.8a1.175,1.175,0,0,1-.131-2.342,17.009,17.009,0,0,0,5.152-1.612,1.175,1.175,0,0,1,1.074,2.089,19.132,19.132,0,0,1-5.963,1.857,1.189,1.189,0,0,1-.132.007" transform="translate(-325.058 -218.203)" fill="#272727"/><path d="M215.235,84.9a1.174,1.174,0,0,1-1.158-.974,10.94,10.94,0,0,1,5.442-11.4L233.74,64.3a1.175,1.175,0,0,1,1.176,2.034l-14.228,8.229-.016.009a8.591,8.591,0,0,0-4.4,7.186l13.99-8.208c.864-.516,2.891-1.918,2.891-3.688a1.175,1.175,0,0,1,2.349,0c0,1.23-.525,3.608-4.043,5.709l-15.63,9.171a1.174,1.174,0,0,1-.594.161" transform="translate(-180.416 -54.093)" fill="#272727"/><path d="M165.856,75.018a1.175,1.175,0,0,1-1.174-1.191c.056-4.117,3.3-7.329,7.895-7.81l20.117-1.873a1.175,1.175,0,1,1,.218,2.339l-20.1,1.872c-3.162.331-4.948,2.1-5.548,4.053l7.395-1.284a1.174,1.174,0,0,1,.4,2.314l-9,1.563a1.176,1.176,0,0,1-.2.017" transform="translate(-138.891 -54.094)" fill="#272727"/><path d="M240.122,14.338a1.171,1.171,0,0,1-.786-.3l-8.8-7.933a7.248,7.248,0,0,0-4.205-1.449,4.255,4.255,0,0,0-2.678.928l5.428,4.664a1.175,1.175,0,1,1-1.531,1.782L221.2,6.569a1.175,1.175,0,0,1-.183-1.584,6.489,6.489,0,0,1,5.287-2.68,9.572,9.572,0,0,1,5.668,1.935,1.114,1.114,0,0,1,.093.076l8.846,7.974a1.175,1.175,0,0,1-.787,2.047" transform="translate(-186.21 -1.944)" fill="#272727"/><path d="M371.788,92.821a1.174,1.174,0,0,1-.665-.206l-13.547-9.3a1.175,1.175,0,1,1,1.33-1.936l11.9,8.17a8.591,8.591,0,0,0-4.188-7.194l-8.165-4.6a1.175,1.175,0,0,1,1.153-2.047l8.178,4.6.023.013a10.941,10.941,0,0,1,5.137,11.554,1.175,1.175,0,0,1-1.151.943" transform="translate(-301.147 -63.723)" fill="#272727"/><path d="M398.753,69.075a1.17,1.17,0,0,1-.263-.03l-7.035-1.616a1.175,1.175,0,1,1,.526-2.289l5.416,1.244a5.584,5.584,0,0,0-5.318-4.152l-9.329-.128a1.175,1.175,0,0,1,.032-2.349l9.329.127a7.926,7.926,0,0,1,7.816,8.034,1.174,1.174,0,0,1-1.174,1.158" transform="translate(-321.832 -50.397)" fill="#272727"/><path d="M363.625,11.641a1.175,1.175,0,0,1-.5-2.239L375.6,3.573a5.98,5.98,0,0,0-2.841-1.158,6.468,6.468,0,0,0-4.527.994l-.056.036L357.522,9.936A1.175,1.175,0,1,1,356.3,7.93l10.622-6.475A8.847,8.847,0,0,1,373.078.088a7.882,7.882,0,0,1,5.447,3.2,1.174,1.174,0,0,1-.469,1.731L364.121,11.53a1.171,1.171,0,0,1-.5.111" transform="translate(-300.025 0)" fill="#272727"/><path d="M324.85,21.936a1.175,1.175,0,0,1-1.081-.714l-1.383-3.241a1.239,1.239,0,0,0-2.3.047l-1.158,3.053a1.175,1.175,0,1,1-2.2-.833l1.158-3.053a3.572,3.572,0,0,1,3.281-2.315h.075a3.571,3.571,0,0,1,3.3,2.179L325.93,20.3a1.175,1.175,0,0,1-1.08,1.636" transform="translate(-267.066 -12.55)" fill="#272727"/></g></g><rect width="84" height="84" transform="translate(554.5 2303)" fill="none"/></g></svg>