<svg xmlns="http://www.w3.org/2000/svg" xmlns:xlink="http://www.w3.org/1999/xlink" width="84" height="84" viewBox="0 0 84 84"><defs><clipPath id="a"><rect width="48.77" height="82.49" fill="none"/></clipPath></defs><g transform="translate(-523.519 -2302.317)"><rect width="84" height="84" transform="translate(523.519 2302.317)" fill="none"/><g transform="translate(541.518 2303.827)"><g clip-path="url(#a)"><path d="M74.179,18.013a1.309,1.309,0,0,1-.681-.191,7.407,7.407,0,0,1-1.642-11.3l.273-.3a1.315,1.315,0,0,1,1.949,1.765l-.273.3a4.778,4.778,0,0,0,1.059,7.291,1.315,1.315,0,0,1-.684,2.438" transform="translate(-46.952 -3.884)" fill="#272727"/><path d="M61.266,24.578a1.306,1.306,0,0,1-.681-.191,5.151,5.151,0,0,1-1.142-7.861l.172-.19A1.314,1.314,0,1,1,61.562,18.1l-.172.19a2.522,2.522,0,0,0,.559,3.848,1.315,1.315,0,0,1-.684,2.438" transform="translate(-39.011 -10.677)" fill="#272727"/><path d="M24.385,82.49c-10.966,0-20.041-8.719-21.108-20.282L.024,26.942c0-.024,0-.048,0-.072A26.738,26.738,0,0,1,7.326,7.376a23.414,23.414,0,0,1,34.118,0A26.738,26.738,0,0,1,48.751,26.87c0,.024,0,.048,0,.072L45.493,62.209C44.426,73.771,35.352,82.49,24.385,82.49M2.645,26.736,5.9,61.967c.941,10.2,8.89,17.894,18.49,17.894s17.548-7.693,18.49-17.894l3.251-35.231A24.1,24.1,0,0,0,39.551,9.2a20.786,20.786,0,0,0-30.331,0A24.1,24.1,0,0,0,2.645,26.736" transform="translate(0)" fill="#272727"/><path d="M63.916,144.742a1.315,1.315,0,0,1-1.178-.728l-2.222-4.456a22.776,22.776,0,0,0-5.249-6.964q-.278-.249-.555-.48a23.745,23.745,0,0,0-6.29-3.762,26.437,26.437,0,0,1-14.259-13.827l-1.387-3.145a1.315,1.315,0,1,1,2.406-1.061l1.387,3.145a23.809,23.809,0,0,0,12.84,12.451,26.367,26.367,0,0,1,6.986,4.178c.21.175.42.356.622.538a25.38,25.38,0,0,1,5.853,7.754l2.222,4.456a1.315,1.315,0,0,1-1.176,1.9" transform="translate(-21.929 -73.537)" fill="#272727"/><path d="M74.93,128.881a1.315,1.315,0,0,1-.848-2.32,33.6,33.6,0,0,0,10.028-14.523,1.314,1.314,0,1,1,2.48.873,36.23,36.23,0,0,1-10.814,15.661,1.31,1.31,0,0,1-.847.309" transform="translate(-49.422 -74.628)" fill="#272727"/><path d="M38.561,59.836c-9.5,0-17.225-8.382-17.225-18.685s7.727-18.685,17.225-18.685,17.225,8.382,17.225,18.685S48.058,59.836,38.561,59.836m0-34.741c-8.048,0-14.6,7.2-14.6,16.056s6.547,16.056,14.6,16.056,14.6-7.2,14.6-16.056S46.609,25.1,38.561,25.1" transform="translate(-14.324 -15.083)" fill="#272727"/><path d="M87.162,65.539a1.31,1.31,0,0,1-.828-.294,2.976,2.976,0,0,0-3.919,0l-.834-1.016-.814-1.033.006,0a5.617,5.617,0,0,1,7.218.013,1.315,1.315,0,0,1-.829,2.335" transform="translate(-54.224 -41.547)" fill="#272727"/><path d="M51.187,65.539a1.31,1.31,0,0,1-.828-.294,2.976,2.976,0,0,0-3.919,0l-.834-1.016-.814-1.033.006,0a5.617,5.617,0,0,1,7.218.013,1.315,1.315,0,0,1-.829,2.335" transform="translate(-30.072 -41.547)" fill="#272727"/><path d="M58.98,99.173a11.859,11.859,0,0,1-6.64-2.04,1.315,1.315,0,0,1,1.47-2.18,9.213,9.213,0,0,0,10.342,0,1.315,1.315,0,0,1,1.486,2.169l-.011.008a11.876,11.876,0,0,1-6.647,2.042" transform="translate(-34.75 -63.597)" fill="#272727"/></g></g></g></svg>