<svg xmlns="http://www.w3.org/2000/svg" xmlns:xlink="http://www.w3.org/1999/xlink" width="119.999" height="127" viewBox="0 0 119.999 127"><defs><clipPath id="a"><rect width="54" height="45.924" transform="translate(0 0)" fill="none"/></clipPath></defs><g transform="translate(-1015.999 -2080.938)"><g transform="translate(1135.998 2207.938) rotate(180)" fill="#fff" stroke-linejoin="round"><path d="M 59.99902725219727 126 C 52.03351211547852 126 44.30691146850586 124.4397659301758 37.03386306762695 121.3626480102539 C 33.53812789916992 119.8836669921875 30.16642761230469 118.0530319213867 27.01241111755371 115.9215850830078 C 23.88811111450195 113.8102188110352 20.95012855529785 111.3854141235352 18.28009414672852 108.7145309448242 C 15.61004543304443 106.0436477661133 13.18599510192871 103.1047515869141 11.07529544830322 99.97946929931641 C 8.944511413574219 96.824462890625 7.114445209503174 93.45169830322266 5.63591194152832 89.95486450195312 C 2.559745073318481 82.67951965332031 0.9999950528144836 74.95050048828125 0.9999950528144836 66.98251342773438 C 0.9999950528144836 61.97591781616211 1.627445101737976 57.00298309326172 2.864895105361938 52.20183181762695 C 4.06592845916748 47.54203414916992 5.843595027923584 43.03241729736328 8.148561477661133 38.79826736450195 C 10.41406154632568 34.63656616210938 13.18566131591797 30.74576759338379 16.38636207580566 27.23393249511719 C 19.57791137695312 23.73213386535645 23.1865119934082 20.61751747131348 27.11191177368164 17.97658348083496 L 27.62659454345703 17.63031578063965 L 27.54502868652344 17.01539993286133 L 25.58899116516113 2.26878833770752 L 37.88744354248047 11.72719955444336 L 38.33206176757812 12.06913375854492 L 38.85564422607422 11.86801624298096 C 45.59797668457031 9.278182983398438 52.71162796020508 7.965033531188965 59.99902725219727 7.965033531188965 C 67.96456146240234 7.965033531188965 75.69121551513672 9.525233268737793 82.96434783935547 12.60231685638428 C 86.46014404296875 14.08128356933594 89.83189392089844 15.91191673278809 92.98594665527344 18.04333305358887 C 96.11031341552734 20.15468406677246 99.04834747314453 22.57946586608887 101.7184448242188 25.25031661987305 C 104.3885650634766 27.92119979858398 106.8126602172852 30.86008262634277 108.9234313964844 33.98536682128906 C 111.0542602539062 37.14036560058594 112.884391784668 40.51313400268555 114.3629608154297 44.00996780395508 C 117.4392318725586 51.28536605834961 118.9990310668945 59.01445007324219 118.9990310668945 66.98251342773438 C 118.9990310668945 74.95048522949219 117.4392318725586 82.67948150634766 114.3629608154297 89.95486450195312 C 112.884391784668 93.45169830322266 111.0542602539062 96.82444763183594 108.9234313964844 99.97946929931641 C 106.8126602172852 103.1047515869141 104.3885650634766 106.0436477661133 101.7184448242188 108.7145309448242 C 99.04834747314453 111.3853988647461 96.11031341552734 113.8102188110352 92.98594665527344 115.9215850830078 C 89.83187866210938 118.0530166625977 86.46012878417969 119.8836669921875 82.96434783935547 121.3626480102539 C 75.69119262695312 124.4397659301758 67.96454620361328 126 59.99902725219727 126 Z" stroke="none"/><path d="M 26.89868927001953 4.537582397460938 L 28.53634643554688 16.88388824462891 C 28.63627624511719 17.63721466064453 28.30063629150391 18.38208770751953 27.67012786865234 18.8062744140625 C 23.81096649169922 21.40263366699219 20.26322174072266 24.46474456787109 17.12545776367188 27.90752410888672 C 13.97878265380859 31.36009216308594 11.25402069091797 35.18512725830078 9.02685546875 39.27638244628906 C 6.76116943359375 43.43840026855469 5.013786315917969 47.87112426757812 3.833259582519531 52.451416015625 C 2.616806030273438 57.17108917236328 2 62.06005096435547 2 66.98251342773438 C 2 74.81597900390625 3.533187866210938 82.41396331787109 6.556968688964844 89.56543731689453 C 8.010345458984375 93.00279998779297 9.809364318847656 96.31829071044922 11.90399932861328 99.4197998046875 C 13.97909545898438 102.4923477172852 16.36225891113281 105.3816680908203 18.98731231689453 108.0075454711914 C 21.61235046386719 110.6333999633789 24.50076293945312 113.0173110961914 27.57232666015625 115.0930328369141 C 30.67283630371094 117.1883239746094 33.98723602294922 118.9878692626953 37.42349243164062 120.4416885375977 C 44.57260131835938 123.4663619995117 52.16811370849609 125 59.99901962280273 125 C 67.82994842529297 125 75.42549133300781 123.4663619995117 82.57469177246094 120.4416885375977 C 86.01100158691406 118.9878540039062 89.32547760009766 117.1883087158203 92.426025390625 115.0930328369141 C 95.49765777587891 113.0173110961914 98.38613128662109 110.6333999633789 101.0112380981445 108.0075225830078 C 103.6363525390625 105.3816528320312 106.0195846557617 102.4923095703125 108.0947113037109 99.41976165771484 C 110.1894226074219 96.31827545166016 111.9884796142578 93.00277709960938 113.4419097900391 89.56541442871094 C 116.4657821655273 82.4139404296875 117.9990234375 74.81594848632812 117.9990234375 66.98251342773438 C 117.9990234375 59.14896392822266 116.4657821655273 51.55091094970703 113.4419097900391 44.39939880371094 C 111.9884796142578 40.9620361328125 110.1894226074219 37.64654541015625 108.0947265625 34.54503631591797 C 106.0195846557617 31.47251129150391 103.6363525390625 28.58318328857422 101.0112380981445 25.95732879638672 C 98.38614654541016 23.33147430419922 95.49765777587891 20.94760131835938 92.42604064941406 18.87187194824219 C 89.32549285888672 16.77661895751953 86.01101684570312 14.97708892822266 82.57470703125 13.52326965332031 C 75.42552947998047 10.4986572265625 67.82997131347656 8.965034484863281 59.99901962280273 8.965034484863281 C 52.83470916748047 8.965034484863281 45.84169006347656 10.25582122802734 39.21421813964844 12.80150604248047 C 38.56378173828125 13.05136871337891 37.83015441894531 12.94468688964844 37.27780151367188 12.51987457275391 L 26.89868927001953 4.537582397460938 M 24.279296875 0 L 38.49707794189453 10.93450927734375 C 45.17285919189453 8.370254516601562 52.42089080810547 6.965034484863281 59.99901962280273 6.965034484863281 C 93.13671112060547 6.965034484863281 119.9990234375 33.83461761474609 119.9990234375 66.98251342773438 C 119.9990234375 100.1299285888672 93.13671112060547 127 59.99901962280273 127 C 26.861328125 127 0 100.1299285888672 0 66.98251342773438 C 0 46.22076416015625 10.5361328125 27.92314910888672 26.5537109375 17.14687347412109 L 24.279296875 0 Z" stroke="none" fill="#272727"/></g><g transform="translate(1049 2116.861)"><g clip-path="url(#a)"><path d="M99.128,41.585a.819.819,0,0,1-.7-.394c-5.232-8.626-21.891-8.964-22.059-8.966a.818.818,0,0,1-.806-.818V.817a.816.816,0,0,1,.244-.583A.783.783,0,0,1,76.393,0c.721.01,17.733.352,23.435,9.753a.828.828,0,0,1,.118.425V40.767a.817.817,0,0,1-.6.788.807.807,0,0,1-.221.03M77.2,30.617c3.247.156,15.2,1.168,21.111,7.7V10.41C93.647,3.068,80.619,1.861,77.2,1.67Z" transform="translate(-72.128 0.001)" fill="#272727"/><path d="M576.818,41.587a.807.807,0,0,1-.221-.03.817.817,0,0,1-.6-.788V10.178a.828.828,0,0,1,.118-.425C581.821.352,598.832.01,599.554,0a.845.845,0,0,1,.586.235.816.816,0,0,1,.244.583V31.409a.818.818,0,0,1-.806.818c-.168,0-16.827.34-22.059,8.966a.819.819,0,0,1-.7.394m.818-31.176V38.317c5.915-6.531,17.864-7.543,21.111-7.7V1.671c-3.42.191-16.448,1.4-21.111,8.74" transform="translate(-549.818 0)" fill="#272727"/><path d="M603,152.862H576.818a.818.818,0,0,1-.818-.818v-4.337a.818.818,0,0,1,.818-.818h25.364V113.667h-2.616a.818.818,0,0,1,0-1.636H603a.818.818,0,0,1,.818.818v39.195a.818.818,0,0,1-.818.818m-25.364-1.636h24.545v-2.7H577.636Z" transform="translate(-549.818 -106.939)" fill="#272727"/><path d="M27,152.862H.818A.818.818,0,0,1,0,152.044V112.849a.818.818,0,0,1,.818-.818H4.253a.818.818,0,0,1,0,1.636H1.636v33.222H27a.818.818,0,0,1,.818.818v4.337a.818.818,0,0,1-.818.818M1.636,151.226H26.182v-2.7H1.636Z" transform="translate(0 -106.939)" fill="#272727"/></g></g></g></svg>