<svg xmlns="http://www.w3.org/2000/svg" xmlns:xlink="http://www.w3.org/1999/xlink" width="100" height="100" viewBox="0 0 100 100"><defs><clipPath id="a"><rect width="74.961" height="82.697" fill="none"/></clipPath><clipPath id="b"><rect width="24.264" height="24.264" fill="none"/></clipPath></defs><g transform="translate(-584.801 -2303)"><rect width="100" height="100" transform="translate(584.801 2303)" fill="none"/><g transform="translate(585.801 2313.321)"><g clip-path="url(#a)"><path d="M107.5,16.2c-4.133,0-7.5-3.633-7.5-8.1S103.366,0,107.5,0,115,3.633,115,8.1s-3.363,8.1-7.5,8.1m0-13.64A5.353,5.353,0,0,0,102.37,8.1a5.144,5.144,0,1,0,10.258,0A5.353,5.353,0,0,0,107.5,2.557" transform="translate(-92.112)" fill="#272727"/><path d="M841.187,558.362A1.234,1.234,0,0,1,840,557.084v-35.8a1.187,1.187,0,1,1,2.367,0v35.8a1.234,1.234,0,0,1-1.184,1.279" transform="translate(-773.722 -475.67)" fill="#272727"/><path d="M102.489,266.486h-14.2a1.283,1.283,0,0,1,0-2.557h14.2a3.848,3.848,0,0,0,0-7.673l-11.722.01h0a1.171,1.171,0,0,1-1.027-.644l-5.016-9.475a6.742,6.742,0,0,0-4.578-3.449,5.085,5.085,0,0,0-4.835,1.75,5.859,5.859,0,0,0-1.171,5.093,1.29,1.29,0,0,1-.855,1.555,1.179,1.179,0,0,1-1.439-.923,8.56,8.56,0,0,1,1.71-7.441A7.318,7.318,0,0,1,80.5,240.17a9.1,9.1,0,0,1,6.242,4.642l.024.043,4.687,8.853,11.036-.01a6.413,6.413,0,0,1,0,12.787" transform="translate(-65.96 -219.599)" fill="#272727"/><path d="M37.378,393.7a6.055,6.055,0,0,1-5.787-5.066l-3.982-18.8H11.549a7.621,7.621,0,0,1-7.264-6.1c0-.019-.009-.037-.012-.056L.025,341.536a1.28,1.28,0,0,1,.919-1.512,1.189,1.189,0,0,1,1.4.993l4.242,22.12a5.212,5.212,0,0,0,4.964,4.146h17a1.207,1.207,0,0,1,1.154.994l4.194,19.8,0,.022a3.568,3.568,0,0,0,4.206,2.964,3.847,3.847,0,0,0,2.744-4.538l-5.029-24.512a1.283,1.283,0,0,1,.9-1.525,1.186,1.186,0,0,1,1.412.972l5.031,24.519,0,.013a6.412,6.412,0,0,1-4.572,7.574,5.491,5.491,0,0,1-1.221.138" transform="translate(0 -311.013)" fill="#272727"/><path d="M608.465,77.952a1.1,1.1,0,0,1-.3-.043,1.292,1.292,0,0,1-.843-1.562l7.486-30.69a1.179,1.179,0,0,1,1.446-.911,1.292,1.292,0,0,1,.843,1.562L609.609,77a1.2,1.2,0,0,1-1.144.953" transform="translate(-559.362 -40.893)" fill="#272727"/><path d="M497.483,522.557h-36.3a1.283,1.283,0,0,1,0-2.557h36.3a1.283,1.283,0,0,1,0,2.557" transform="translate(-423.706 -475.67)" fill="#272727"/><path d="M83.28,869.438A1.234,1.234,0,0,1,82.1,868.16c0-1.812-1.654-3.1-2.639-3.712a15.181,15.181,0,0,0-14.448,0c-.986.609-2.639,1.9-2.639,3.712a1.187,1.187,0,1,1-2.367,0c0-4.541,5.372-8.1,12.23-8.1s12.23,3.557,12.23,8.1a1.234,1.234,0,0,1-1.184,1.279" transform="translate(-55.268 -786.741)" fill="#272727"/><path d="M201.187,679.613A1.234,1.234,0,0,1,200,678.334V661.279a1.187,1.187,0,1,1,2.367,0v17.055a1.234,1.234,0,0,1-1.184,1.279" transform="translate(-184.222 -603.735)" fill="#272727"/><path d="M647.5,303.017a1.234,1.234,0,0,1-1.183-1.279V282.557h-5.129a1.283,1.283,0,0,1,0-2.557H647.5a1.234,1.234,0,0,1,1.184,1.279v20.46a1.234,1.234,0,0,1-1.184,1.279" transform="translate(-589.503 -256.13)" fill="#272727"/></g></g><g transform="translate(659.762 2308)"><g clip-path="url(#b)"><path d="M21.324,10.341A10.983,10.983,0,1,1,10.341,21.324,10.983,10.983,0,0,1,21.324,10.341" transform="translate(-9.192 -9.192)" fill="#fff"/><path d="M12.132,0A12.132,12.132,0,1,1,3.553,3.553,12.13,12.13,0,0,1,12.132,0M19.1,5.169a9.835,9.835,0,0,0-13.891,0A9.792,9.792,0,0,0,2.3,12.132,9.646,9.646,0,0,0,5.2,19.059a9.817,9.817,0,0,0,16.762-6.927A9.911,9.911,0,0,0,19.1,5.169" transform="translate(0 0)" fill="#272727"/><path d="M99.654,33.608h.431a.762.762,0,0,1,.769.769v7.139a.762.762,0,0,1-.769.769h-.431a.762.762,0,0,1-.769-.769V34.377a.762.762,0,0,1,.769-.769" transform="translate(-87.901 -27.819)" fill="#272727"/><path d="M100.79,108.956l.308-.308a.78.78,0,0,1,1.108,0l3.385,3.385a.743.743,0,0,1,0,1.077l-.308.308a.743.743,0,0,1-1.077,0l-3.416-3.385a.8.8,0,0,1,0-1.077" transform="translate(-89.437 -95.505)" fill="#272727"/></g></g></g></svg>