<svg xmlns="http://www.w3.org/2000/svg" xmlns:xlink="http://www.w3.org/1999/xlink" width="100" height="100" viewBox="0 0 100 100"><defs><clipPath id="a"><rect width="86.443" height="98.822" fill="none"/></clipPath></defs><g transform="translate(-1150.723 -1713.841)"><rect width="100" height="100" transform="translate(1150.723 1713.841)" fill="none"/><g transform="translate(1157.723 1714.841)"><g clip-path="url(#a)"><path d="M168.482,373.708a.735.735,0,0,1-.736-.736v-26.16a.736.736,0,0,1,.562-.715l15.105-3.676a.736.736,0,0,1,.91.715V369.3a.736.736,0,0,1-.562.715l-15.1,3.676a.738.738,0,0,1-.174.021m.736-26.318v24.646l13.633-3.318V344.072ZM183.587,369.3h0Z" transform="translate(-136.889 -279.415)" fill="#1d1d1d"/><path d="M114.817,361.762a.734.734,0,0,1-.329-.078l-3.655-1.828a.736.736,0,0,1-.407-.658v-9.818l-8.049-4.241a.736.736,0,0,1-.393-.651V328.5a.736.736,0,0,1,1.079-.651l12.1,6.369a.735.735,0,0,1,.393.651v26.16a.736.736,0,0,1-.736.736m-2.919-3.018,2.184,1.092V335.31l-10.625-5.594v14.329l8.049,4.241a.736.736,0,0,1,.393.651Z" transform="translate(-83.225 -267.469)" fill="#1d1d1d"/><path d="M114.819,319.293a.734.734,0,0,1-.343-.085l-12.1-6.369a.736.736,0,0,1,.169-1.366l15.1-3.676a.736.736,0,0,1,.517.064l12.1,6.369a.736.736,0,0,1-.169,1.366l-15.105,3.676a.734.734,0,0,1-.174.021m-10.033-6.85,10.129,5.333,12.945-3.151-10.13-5.333Z" transform="translate(-83.226 -251.16)" fill="#1d1d1d"/><path d="M271.222,289.945a.735.735,0,0,1-.736-.736V249.831a.736.736,0,0,1,.562-.715l15.105-3.676a.736.736,0,0,1,.91.715v39.378a.736.736,0,0,1-.562.715l-15.1,3.676a.74.74,0,0,1-.174.021m.736-39.535v37.863l13.633-3.318V247.091Zm14.369,35.124h0Z" transform="translate(-220.73 -200.274)" fill="#1d1d1d"/><path d="M217.558,278a.737.737,0,0,1-.306-.067l-3.794-1.734a.736.736,0,0,1-.43-.669V252.492l-7.909-4.156a.736.736,0,0,1-.394-.651v-16.17a.736.736,0,0,1,1.079-.651l12.1,6.369a.735.735,0,0,1,.393.651v39.378a.736.736,0,0,1-.736.736m-3.058-2.943,2.323,1.062V238.328L206.2,232.733v14.506l7.909,4.156a.736.736,0,0,1,.394.651Z" transform="translate(-167.066 -188.326)" fill="#1d1d1d"/><path d="M217.557,223.533a.735.735,0,0,1-.343-.085l-12.1-6.369a.736.736,0,0,1,.188-1.37l15.849-3.4a.735.735,0,0,1,.5.071l11.352,6.094a.736.736,0,0,1-.174,1.363l-15.1,3.676a.737.737,0,0,1-.174.021m-9.959-6.811,10.056,5.295,12.967-3.156L221.2,213.8Z" transform="translate(-167.065 -173.24)" fill="#1d1d1d"/><path d="M373.961,206.363a.735.735,0,0,1-.736-.736v-52.78a.736.736,0,0,1,.562-.715l15.105-3.676a.736.736,0,0,1,.91.715v52.78a.736.736,0,0,1-.562.715l-15.1,3.676a.738.738,0,0,1-.174.021m.736-52.938v51.266l13.633-3.318V150.108Zm14.369,48.526h0Z" transform="translate(-304.57 -121.131)" fill="#1d1d1d"/><path d="M320.3,194.416a.736.736,0,0,1-.306-.067l-3.794-1.734a.736.736,0,0,1-.43-.669V155.509l-7.909-4.156a.736.736,0,0,1-.394-.651v-16.17a.736.736,0,0,1,1.079-.651l12.1,6.369a.735.735,0,0,1,.393.651v52.78a.736.736,0,0,1-.736.736m-3.058-2.943,2.323,1.062V141.344l-10.625-5.594v14.506l7.909,4.156a.736.736,0,0,1,.394.651Z" transform="translate(-250.906 -109.183)" fill="#1d1d1d"/><path d="M320.3,126.55a.735.735,0,0,1-.343-.085l-12.1-6.369a.736.736,0,0,1,.188-1.37l15.849-3.4a.734.734,0,0,1,.5.071l11.352,6.094a.736.736,0,0,1-.174,1.363l-15.1,3.676a.736.736,0,0,1-.174.021m-9.959-6.811,10.056,5.295,12.967-3.156-9.421-5.057Z" transform="translate(-250.905 -94.097)" fill="#1d1d1d"/><path d="M66.5,456.967a.735.735,0,0,1-.736-.736V443.013a.736.736,0,0,1,.574-.718l15.1-3.4a.736.736,0,0,1,.9.718v12.942a.736.736,0,0,1-.562.715l-15.1,3.676a.735.735,0,0,1-.174.021m.736-13.365v11.693l13.633-3.318V440.532ZM81.6,452.555h0Z" transform="translate(-53.664 -358.144)" fill="#1d1d1d"/><path d="M12.833,443.8a.735.735,0,0,1-.343-.085l-12.1-6.369A.735.735,0,0,1,0,436.692V423.474a.736.736,0,0,1,1.079-.651l12.1,6.369a.735.735,0,0,1,.393.651v13.218a.736.736,0,0,1-.736.736M1.472,436.248,12.1,441.842V430.288L1.472,424.693Z" transform="translate(0 -344.975)" fill="#1d1d1d"/><path d="M12.832,415.493a.734.734,0,0,1-.343-.085l-12.1-6.369a.736.736,0,0,1,.181-1.369l15.105-3.4a.736.736,0,0,1,.5.067l12.1,6.369a.736.736,0,0,1-.181,1.369l-15.1,3.4a.74.74,0,0,1-.162.018m-9.987-6.826,10.09,5.313,12.892-2.9-10.09-5.313Z" transform="translate(0 -329.889)" fill="#1d1d1d"/><path d="M382.76,28.005a.736.736,0,0,1-.736-.736V.736a.736.736,0,0,1,1.472,0V27.269a.736.736,0,0,1-.736.736" transform="translate(-311.75)" fill="#1d1d1d"/><path d="M382.76,15.77a.736.736,0,0,1-.736-.736V.736a.736.736,0,0,1,1.058-.661l14.7,7.149a.736.736,0,0,1,0,1.323l-14.7,7.149a.737.737,0,0,1-.322.074M383.5,1.912V13.858l12.28-5.973Z" transform="translate(-311.75 0)" fill="#1d1d1d"/></g></g></g></svg>