<svg xmlns="http://www.w3.org/2000/svg" xmlns:xlink="http://www.w3.org/1999/xlink" width="100" height="100" viewBox="0 0 100 100"><defs><clipPath id="a"><rect width="54.206" height="94" fill="none"/></clipPath></defs><g transform="translate(-1176 -1713.724)"><g transform="translate(1199 1713.724)"><g clip-path="url(#a)"><path d="M431.973,129.912a.828.828,0,0,1-.822-.833V50.162h-17.84a.833.833,0,0,1,0-1.667h18.662a.828.828,0,0,1,.822.833v79.751a.828.828,0,0,1-.822.833" transform="translate(-378.59 -44.454)" fill="#272727"/><path d="M.822,129.912A.828.828,0,0,1,0,129.079V49.328A.828.828,0,0,1,.822,48.5H19.839a.833.833,0,0,1,0,1.667H1.644v78.917a.828.828,0,0,1-.822.833" transform="translate(0 -44.454)" fill="#272727"/><path d="M54.822,179.412a.828.828,0,0,1-.822-.833V103.328a.828.828,0,0,1,.822-.833H69.4a.833.833,0,0,1,0,1.667H55.644v74.417a.828.828,0,0,1-.822.833" transform="translate(-49.562 -93.954)" fill="#272727"/><path d="M586.382,179.412a.828.828,0,0,1-.822-.833V103.328a.822.822,0,1,1,1.644,0v75.251a.828.828,0,0,1-.822.833" transform="translate(-537.436 -93.954)" fill="#272727"/><path d="M232.221,94a.814.814,0,0,1-.494-.167.837.837,0,0,1-.328-.666V.833a.837.837,0,0,1,.328-.666.813.813,0,0,1,.722-.134l29.107,8.541a.832.832,0,0,1,.593.8V84.625a.832.832,0,0,1-.593.8l-29.107,8.541a.812.812,0,0,1-.228.033m.822-92.058V92.058L260.506,84V10Zm28.285,82.683h0Z" transform="translate(-212.382 0)" fill="#272727"/><path d="M287,541.165a1.513,1.513,0,0,1-1.071-.467,2.8,2.8,0,0,1,0-3.633,1.5,1.5,0,0,1,1.085-.466c.968.01,1.726,1.013,1.726,2.283s-.758,2.273-1.726,2.283H287m0-2.779a1.326,1.326,0,1,0,.1.5,1.207,1.207,0,0,0-.1-.5" transform="translate(-261.815 -491.881)" fill="#272727"/><path d="M312.549,555.662h-4.124a.833.833,0,0,1,0-1.667h4.124a.833.833,0,0,1,0,1.667" transform="translate(-282.323 -507.828)" fill="#272727"/></g></g><rect width="100" height="100" transform="translate(1176 1713.724)" fill="none"/></g></svg>