<svg xmlns="http://www.w3.org/2000/svg" xmlns:xlink="http://www.w3.org/1999/xlink" width="119.999" height="127" viewBox="0 0 119.999 127"><defs><clipPath id="a"><rect width="53.426" height="67.982" fill="none"/></clipPath></defs><g transform="translate(-1428 -1930)"><g transform="translate(1428 1930)" fill="#fff" stroke-linejoin="round"><path d="M 25.58897972106934 124.7317047119141 L 27.54502868652344 109.984504699707 L 27.62659454345703 109.3695678710938 L 27.11189460754395 109.023307800293 C 23.18649482727051 106.3824920654297 19.57789421081543 103.267951965332 16.38636207580566 99.7662353515625 C 13.18566131591797 96.25448608398438 10.41406154632568 92.36375427246094 8.148545265197754 88.20211791992188 C 5.843595027923584 83.96802520751953 4.065911769866943 79.45845794677734 2.864895105361938 74.79869079589844 C 1.627445101737976 69.99757385253906 0.9999950528144836 65.024658203125 0.9999950528144836 60.01807022094727 C 0.9999950528144836 52.04995346069336 2.559745073318481 44.32085418701172 5.63591194152832 37.04547119140625 C 7.114445209503174 33.54862213134766 8.944511413574219 30.17583847045898 11.07529544830322 27.02083778381348 C 13.18599510192871 23.89555549621582 15.61004543304443 20.9566707611084 18.28009414672852 18.28578758239746 C 20.95012855529785 15.61493873596191 23.88811111450195 13.19013786315918 27.01241111755371 11.07878875732422 C 30.16641235351562 8.947371482849121 33.53811264038086 7.11675500869751 37.03386306762695 5.637771606445312 C 44.3068962097168 2.560688257217407 52.03349685668945 1.00048828125 59.99902725219727 1.00048828125 C 67.96456146240234 1.00048828125 75.69121551513672 2.560688257217407 82.96434783935547 5.637771606445312 C 86.46014404296875 7.11675500869751 89.83189392089844 8.947371482849121 92.98594665527344 11.0788049697876 C 96.11031341552734 13.19015502929688 99.04834747314453 15.61493873596191 101.7184448242188 18.28580474853516 C 104.3885650634766 20.9566707611084 106.8126602172852 23.89557075500488 108.9234313964844 27.02085494995117 C 111.0542602539062 30.17585563659668 112.884391784668 33.54863739013672 114.3629608154297 37.04548645019531 C 117.4392318725586 44.32088851928711 118.9990310668945 52.04998779296875 118.9990310668945 60.01807022094727 C 118.9990310668945 67.98603820800781 117.4392318725586 75.71507263183594 114.3629608154297 82.99045562744141 C 112.884391784668 86.48728942871094 111.0542602539062 89.86005401611328 108.9234313964844 93.01506805419922 C 106.8126602172852 96.14035797119141 104.3885650634766 99.07926940917969 101.7184448242188 101.7501525878906 C 99.04834747314453 104.4210357666016 96.11031341552734 106.8458404541016 92.98594665527344 108.9572219848633 C 89.83187866210938 111.0886535644531 86.46012878417969 112.919303894043 82.96434783935547 114.398307800293 C 75.69119262695312 117.4754180908203 67.96454620361328 119.0356521606445 59.99902725219727 119.0356521606445 C 52.71157836914062 119.0356521606445 45.59792709350586 117.7224197387695 38.85567855834961 115.1324234008789 L 38.33206176757812 114.9312896728516 L 37.88744354248047 115.2732391357422 L 25.58897972106934 124.7317047119141 Z" stroke="none"/><path d="M 26.8986701965332 122.4629058837891 L 37.27780151367188 114.4805603027344 C 37.83016204833984 114.0557708740234 38.56379699707031 113.9490737915039 39.21425628662109 114.1989440917969 C 45.84164047241211 116.7447967529297 52.83464050292969 118.0356521606445 59.99901962280273 118.0356521606445 C 67.82994842529297 118.0356521606445 75.42549133300781 116.5020141601562 82.57469177246094 113.4773254394531 C 86.01100158691406 112.0235061645508 89.32547760009766 110.2239456176758 92.42601776123047 108.1286697387695 C 95.49765777587891 106.0529251098633 98.38613128662109 103.6690139770508 101.0112380981445 101.0431442260742 C 103.636344909668 98.41726684570312 106.0195693969727 95.52792358398438 108.0947113037109 92.45537567138672 C 110.1894226074219 89.35386657714844 111.9884719848633 86.03837585449219 113.4419097900391 82.60099792480469 C 116.4657821655273 75.44952392578125 117.9990234375 67.85152435302734 117.9990234375 60.01807022094727 C 117.9990234375 52.18450546264648 116.4657821655273 44.58643341064453 113.4419097900391 37.4349250793457 C 111.9884719848633 33.99754333496094 110.1894226074219 30.68205261230469 108.0947113037109 27.58054351806641 C 106.0195846557617 24.50801467895508 103.636344909668 21.6186695098877 101.0112380981445 18.9928150177002 C 98.38614654541016 16.3669605255127 95.49765777587891 13.98307037353516 92.42604064941406 11.9073429107666 C 89.32547760009766 9.812088012695312 86.01102447509766 8.012560844421387 82.57471466064453 6.558743000030518 C 75.42552947998047 3.534106492996216 67.82996368408203 2.00048828125 59.99901962280273 2.00048828125 C 52.16809463500977 2.00048828125 44.57258605957031 3.534106492996216 37.42349243164062 6.558743000030518 C 33.98723983764648 8.012542724609375 30.67282104492188 9.812088012695312 27.57233047485352 11.9073429107666 C 24.50076675415039 13.98305225372314 21.61234855651855 16.366943359375 18.98731231689453 18.9927978515625 C 16.36225700378418 21.61865234375 13.97909355163574 24.50797843933105 11.90400218963623 27.58052444458008 C 9.809366226196289 30.68203353881836 8.010348320007324 33.99752426147461 6.556966304779053 37.43490600585938 C 3.53318452835083 44.58639907836914 2.00000262260437 52.18447113037109 2.00000262260437 60.01807022094727 C 2.00000262260437 64.94052124023438 2.61680269241333 69.8294677734375 3.83325719833374 74.54908752441406 C 5.013784408569336 79.12934112548828 6.761166095733643 83.56201934814453 9.026857376098633 87.72397613525391 C 11.25400257110596 91.81517791748047 13.97876644134521 95.64014434814453 17.12543869018555 99.09263610839844 C 20.26320266723633 102.5353240966797 23.8109302520752 105.5973434448242 27.67009353637695 108.1936187744141 C 28.30062103271484 108.6177978515625 28.63627624511719 109.3626708984375 28.53634834289551 110.1160125732422 L 26.8986701965332 122.4629058837891 M 24.27929306030273 127.00048828125 L 26.5537109375 109.8530349731445 C 10.53612995147705 99.07714080810547 2.627841013236321e-06 80.77977752685547 2.627841013236321e-06 60.01807022094727 C 2.627841013236321e-06 26.87012481689453 26.86133003234863 0.00048828125 59.99901962280273 0.00048828125 C 93.13671112060547 0.00048828125 119.9990234375 26.87012481689453 119.9990234375 60.01807022094727 C 119.9990234375 93.16552734375 93.13671112060547 120.0356521606445 59.99901962280273 120.0356521606445 C 52.42089462280273 120.0356521606445 45.17285537719727 118.6303787231445 38.49707412719727 116.0659255981445 L 24.27929306030273 127.00048828125 Z" stroke="none" fill="#272727"/></g><g transform="translate(1460 1954.016)"><g clip-path="url(#a)"><path d="M302.966,179.333a1.019,1.019,0,0,1-.528-.147l-8.15-4.893a1.03,1.03,0,0,1-.353-1.414l13.5-22.434a1.026,1.026,0,0,1,1.412-.352l8.15,4.893a1.03,1.03,0,0,1,.353,1.414l-7.134,11.875a.978.978,0,0,1-.1.132l-6.267,10.426a1.028,1.028,0,0,1-.884.5m-6.734-6.275,6.383,3.832,5.817-9.675a1.157,1.157,0,0,1,.093-.131l6.525-10.863-6.383-3.832Z" transform="translate(-276.975 -141.365)" fill="#272727"/><path d="M222.344,525.987a1.03,1.03,0,0,1-.531-.148L208,517.523a1.031,1.031,0,0,1-.351-1.414l2.106-3.5a1.029,1.029,0,0,1,.634-.469,1.044,1.044,0,0,1,.781.118l13.815,8.316a1.03,1.03,0,0,1,.35,1.413l-2.106,3.5a1.028,1.028,0,0,1-.882.5m-12.4-9.7,12.05,7.254,1.045-1.735-12.053-7.251Z" transform="translate(-195.625 -482.808)" fill="#272727"/><path d="M568.071,85.986a1.025,1.025,0,0,1-.53-.148l-4.428-2.664a1.03,1.03,0,0,1-.351-1.414l3.2-5.315a1.029,1.029,0,0,1,1.414-.351l4.429,2.665a1.03,1.03,0,0,1,.351,1.414l-3.2,5.314a1.029,1.029,0,0,1-.884.5m-3.014-4.046,2.664,1.6,2.135-3.549-2.663-1.6Z" transform="translate(-530.42 -71.601)" fill="#272727"/><path d="M590.917,10.356a1.033,1.033,0,0,1-.531-.148l-8.7-5.234a1.031,1.031,0,0,1-.351-1.414L583.176.5A1.027,1.027,0,0,1,584.589.15l8.7,5.234a1.03,1.03,0,0,1,.351,1.414l-1.84,3.06a1.028,1.028,0,0,1-.882.5M583.63,3.741l6.935,4.172.778-1.295-6.934-4.172Z" transform="translate(-547.93 -0.001)" fill="#272727"/><path d="M561.731,380.922a1.006,1.006,0,0,1-.209-.021,1.028,1.028,0,0,1-.762-.665,10.4,10.4,0,0,0-3.311-4.616,1.03,1.03,0,0,1-.168-1.433,12.675,12.675,0,0,0,2.662-7.836,12.9,12.9,0,0,0-11.63-12.88,1.031,1.031,0,0,1-.781-1.554l3.333-5.559a1.026,1.026,0,0,1,1.128-.471,21.036,21.036,0,0,1,10.493,34.708,1.032,1.032,0,0,1-.755.329m-2.249-6.264a12.544,12.544,0,0,1,2.532,3.315,18.983,18.983,0,0,0-9.78-29.894l-2.147,3.582A14.954,14.954,0,0,1,562,366.349a14.732,14.732,0,0,1-2.521,8.308" transform="translate(-516.063 -326.064)" fill="#272727"/><path d="M781.816,928.7a1.03,1.03,0,0,1-1.03-1.03,10.125,10.125,0,0,0-.645-3.589,1.029,1.029,0,1,1,1.926-.728,12.145,12.145,0,0,1,.779,4.317,1.03,1.03,0,0,1-1.03,1.03" transform="translate(-735.436 -869.886)" fill="#272727"/><path d="M389.858,916.2a1.03,1.03,0,0,1-1.03-1.03,12.146,12.146,0,0,1,1.125-5.144,1.03,1.03,0,1,1,1.87.866,10.09,10.09,0,0,0-.935,4.278,1.03,1.03,0,0,1-1.03,1.03" transform="translate(-366.578 -857.388)" fill="#272727"/><path d="M538.372,794.953a1.026,1.026,0,0,1-.644-.226,10.678,10.678,0,0,0-9.9-1.738,1.03,1.03,0,1,1-.668-1.949,12.769,12.769,0,0,1,11.853,2.079,1.03,1.03,0,0,1-.644,1.834" transform="translate(-496.341 -745.171)" fill="#272727"/><path d="M52.4,1003.04H1.03A1.03,1.03,0,0,1,0,1002.01v-4.948a5.256,5.256,0,0,1,5.249-5.249H48.177a5.256,5.256,0,0,1,5.249,5.249v4.948a1.03,1.03,0,0,1-1.03,1.03M2.06,1000.98H51.366v-3.918a3.193,3.193,0,0,0-3.189-3.189H5.249a3.193,3.193,0,0,0-3.189,3.189Z" transform="translate(0 -935.059)" fill="#272727"/><path d="M553.74,857.295a3.335,3.335,0,1,1,3.334-3.335,3.338,3.338,0,0,1-3.334,3.335m0-4.61a1.275,1.275,0,1,0,1.274,1.275,1.276,1.276,0,0,0-1.274-1.275" transform="translate(-518.91 -801.95)" fill="#272727"/><path d="M119.1,808.919H101.577a1.03,1.03,0,0,1-1.03-1.03,7.237,7.237,0,0,1,7.241-7.256H125.95a1.03,1.03,0,0,1,.325,2.008,10.422,10.422,0,0,0-6.063,5.3l-.079.162a1.2,1.2,0,0,1-1.029.811m-16.394-2.06H118.45a12.466,12.466,0,0,1,3.437-4.166h-14.1a5.144,5.144,0,0,0-3.664,1.516,5.238,5.238,0,0,0-1.415,2.65" transform="translate(-94.793 -754.819)" fill="#272727"/></g></g></g></svg>