<svg xmlns="http://www.w3.org/2000/svg" xmlns:xlink="http://www.w3.org/1999/xlink" width="210" height="62" viewBox="0 0 210 62"><defs><clipPath id="a"><rect width="210" height="62" transform="translate(881 5733)" fill="#fff" stroke="#707070" stroke-width="1"/></clipPath><clipPath id="b"><rect width="44.828" height="57.56" transform="translate(0 0)" fill="none" stroke="#272727" stroke-width="0.7"/></clipPath></defs><g transform="translate(-881 -5733)" clip-path="url(#a)"><path d="M7.714.38c5.852,0,8.968-3.078,8.968-9.348V-26.6H2.28v4.142h9.462V-8.7c0,3.268-1.406,4.9-4.142,4.9A6.451,6.451,0,0,1,2.318-6.84L-.494-3.458A10.032,10.032,0,0,0,7.714.38Zm22.23-20.9a14.267,14.267,0,0,0-8.588,2.508l1.862,3.458a10.046,10.046,0,0,1,6.156-2.014c3.382,0,5.054,1.634,5.054,4.408v.3H29.184c-6.156,0-8.436,2.66-8.436,6.042,0,3.534,2.926,6.08,7.562,6.08,3.04,0,5.244-.988,6.384-2.736V0h4.484V-11.894C39.178-17.746,35.8-20.52,29.944-20.52ZM29.3-3.192c-2.432,0-3.876-1.1-3.876-2.812,0-1.482.874-2.7,4.1-2.7h4.9v2.356A5.172,5.172,0,0,1,29.3-3.192ZM55.556-20.52a8.367,8.367,0,0,0-6.726,2.888v-2.66H44.308V7.372h4.75V-2.47a8.337,8.337,0,0,0,6.5,2.736c5.928,0,10.3-4.1,10.3-10.412C65.854-16.416,61.484-20.52,55.556-20.52ZM55.024-3.8c-3.42,0-6.042-2.47-6.042-6.346s2.622-6.346,6.042-6.346,6,2.47,6,6.346S58.444-3.8,55.024-3.8ZM76.912-20.52a14.268,14.268,0,0,0-8.588,2.508l1.862,3.458a10.046,10.046,0,0,1,6.156-2.014c3.382,0,5.054,1.634,5.054,4.408v.3H76.152c-6.156,0-8.436,2.66-8.436,6.042,0,3.534,2.926,6.08,7.562,6.08,3.04,0,5.244-.988,6.384-2.736V0h4.484V-11.894C86.146-17.746,82.764-20.52,76.912-20.52ZM76.266-3.192c-2.432,0-3.876-1.1-3.876-2.812,0-1.482.874-2.7,4.1-2.7h4.9v2.356A5.172,5.172,0,0,1,76.266-3.192ZM102.79-20.52A8.823,8.823,0,0,0,95.8-17.67v-2.622H91.276V0h4.75V-10.26c0-4.066,2.28-6.118,5.662-6.118,3.04,0,4.826,1.748,4.826,5.358V0h4.75V-11.628C111.264-17.746,107.654-20.52,102.79-20.52Z" transform="translate(953 5778)" fill="#272727"/><g transform="translate(-38 5)"><g transform="translate(924.55 5730.178)"><g transform="translate(0 0.003)" clip-path="url(#b)"><path d="M7.232,1278.225H4.345a1.273,1.273,0,0,1-1.272-1.272v-4.729h-1.8A1.274,1.274,0,0,1,0,1270.953v-2.8a1.274,1.274,0,0,1,1.272-1.272H5.038a1.28,1.28,0,0,1,1.267,1.161l0,.022h.926a1.273,1.273,0,0,1,1.272,1.272v7.615a1.273,1.273,0,0,1-1.272,1.272m-5.96-10.712a.642.642,0,0,0-.641.641v2.8a.642.642,0,0,0,.641.641H3.388a.316.316,0,0,1,.315.316v5.044a.642.642,0,0,0,.641.641H7.232a.642.642,0,0,0,.641-.641v-7.615a.642.642,0,0,0-.641-.641H5.994a.315.315,0,0,1-.315-.315v-.227c0-.017,0-.036,0-.056a.645.645,0,0,0-.639-.585Z" transform="translate(0 -1229.895)" fill="#1d1d1d" stroke="#272727" stroke-width="0.7"/><path d="M1100.169,13.077h-2.992a1.273,1.273,0,0,1-1.272-1.272V1.623a1.622,1.622,0,0,1,1.62-1.62h9.592a1.622,1.622,0,0,1,1.62,1.62V9.908a1.622,1.622,0,0,1-1.62,1.62h-5.676v.278a1.274,1.274,0,0,1-1.272,1.272M1097.525.634a.99.99,0,0,0-.989.989V11.805a.642.642,0,0,0,.641.641h2.992a.642.642,0,0,0,.641-.641v-.593a.315.315,0,0,1,.315-.315h5.991a.99.99,0,0,0,.989-.989V1.623a.99.99,0,0,0-.989-.989Z" transform="translate(-1063.909 -0.003)" fill="#1d1d1d" stroke="#272727" stroke-width="0.7"/><path d="M299.1,485.04h-5.11a1.274,1.274,0,0,1-1.272-1.272V478.29h-9.341a1.274,1.274,0,0,1-1.272-1.272v-2.752a1.274,1.274,0,0,1,1.272-1.272H297.6v-.832s0-.007,0-.01v-2.9a.719.719,0,0,1,.718-.718h1.326a.719.719,0,0,1,.718.718v1.614h2.73c1.989-.453,2.739-2.567,2.776-4.4v-9.981a1.273,1.273,0,0,1,1.272-1.272h4.465v-.267a1.274,1.274,0,0,1,1.272-1.272h2a1.274,1.274,0,0,1,1.272,1.272v27.1a1.273,1.273,0,0,1-1.272,1.272h-14.5v.449a1.273,1.273,0,0,1-1.272,1.272m-15.723-11.416a.642.642,0,0,0-.641.642v2.752a.642.642,0,0,0,.641.641h9.656a.315.315,0,0,1,.315.315v5.794a.642.642,0,0,0,.642.641h5.11a.642.642,0,0,0,.641-.641V483a.315.315,0,0,1,.315-.315h14.82a.642.642,0,0,0,.641-.641v-27.1a.642.642,0,0,0-.641-.641h-2a.642.642,0,0,0-.641.641v.582a.315.315,0,0,1-.315.315h-4.781a.642.642,0,0,0-.641.641v9.984s0,0,0,.006a6.741,6.741,0,0,1-.735,3,3.8,3.8,0,0,1-2.57,2.015.32.32,0,0,1-.067.007h-3.08a.315.315,0,0,1-.315-.315v-1.929a.089.089,0,0,0-.087-.088h-1.326a.089.089,0,0,0-.087.088v2.9s0,.007,0,.01v1.144a.315.315,0,0,1-.315.315Z" transform="translate(-273.874 -440.428)" fill="#1d1d1d" stroke="#272727" stroke-width="0.7"/><path d="M337.429,1337.315h-5.606a1.224,1.224,0,0,1-1.223-1.222v-2.877a1.224,1.224,0,0,1,1.223-1.223h5.606a1.224,1.224,0,0,1,1.223,1.223v2.877a1.224,1.224,0,0,1-1.223,1.222m-5.606-4.692a.593.593,0,0,0-.592.592v2.877a.593.593,0,0,0,.592.592h5.606a.593.593,0,0,0,.592-.592v-2.877a.593.593,0,0,0-.592-.592Z" transform="translate(-320.949 -1293.104)" fill="#1d1d1d" stroke="#272727" stroke-width="0.7"/><path d="M67.387,1810.879H66.194a.707.707,0,0,1-.706-.706v-3.42a.707.707,0,0,1,.706-.706h1.193a.707.707,0,0,1,.706.706v3.42a.707.707,0,0,1-.706.706m-1.193-4.2a.076.076,0,0,0-.075.075v3.42a.076.076,0,0,0,.075.075h1.193a.076.076,0,0,0,.075-.075v-3.42a.076.076,0,0,0-.075-.075Z" transform="translate(-63.576 -1753.318)" fill="#1d1d1d" stroke="#272727" stroke-width="0.7"/></g></g><rect width="59" height="62" transform="translate(919 5728)" fill="none"/></g></g></svg>