<svg xmlns="http://www.w3.org/2000/svg" xmlns:xlink="http://www.w3.org/1999/xlink" width="210" height="62" viewBox="0 0 210 62"><defs><clipPath id="a"><rect width="210" height="62" transform="translate(881 5808)" fill="#fff" stroke="#707070" stroke-width="1"/></clipPath><clipPath id="b"><rect width="59" height="62" transform="translate(919 5798)" fill="none"/></clipPath><clipPath id="c"><rect width="44.733" height="47.265" fill="none"/></clipPath></defs><g transform="translate(-881 -5808)" clip-path="url(#a)"><path d="M23.484,0h5.168L16.644-26.6H11.78L-.19,0H4.9L7.524-6.156h13.3ZM9.2-10.032,14.174-21.66,19.19-10.032ZM41.876-20.52a8.435,8.435,0,0,0-6.5,2.7V-28.2h-4.75V0H35.15V-2.622A8.367,8.367,0,0,0,41.876.266c5.928,0,10.3-4.1,10.3-10.412S47.8-20.52,41.876-20.52ZM41.344-3.8c-3.42,0-6.042-2.47-6.042-6.346s2.622-6.346,6.042-6.346,6,2.47,6,6.346S44.764-3.8,41.344-3.8ZM60.268-17.328v-2.964H55.746V0H60.5V-9.842c0-4.142,2.28-6.27,5.89-6.27a6.03,6.03,0,0,1,1.1.114V-20.52C64.106-20.52,61.636-19.456,60.268-17.328ZM79.5.266c6.308,0,10.83-4.332,10.83-10.412S85.8-20.52,79.5-20.52c-6.232,0-10.792,4.294-10.792,10.374S73.264.266,79.5.266Zm0-4.066c-3.42,0-6-2.47-6-6.346s2.584-6.346,6-6.346c3.458,0,6.042,2.47,6.042,6.346S82.954-3.8,79.5-3.8Zm21.926-16.72a14.267,14.267,0,0,0-8.588,2.508L94.7-14.554a10.046,10.046,0,0,1,6.156-2.014c3.382,0,5.054,1.634,5.054,4.408v.3h-5.244c-6.156,0-8.436,2.66-8.436,6.042,0,3.534,2.926,6.08,7.562,6.08,3.04,0,5.244-.988,6.384-2.736V0h4.484V-11.894C110.656-17.746,107.274-20.52,101.422-20.52Zm-.646,17.328C98.344-3.192,96.9-4.294,96.9-6c0-1.482.874-2.7,4.1-2.7h4.9v2.356A5.172,5.172,0,0,1,100.776-3.192Zm30.324-25v10.412a8.309,8.309,0,0,0-6.536-2.736c-5.89,0-10.26,4.066-10.26,10.374S118.674.266,124.564.266a8.367,8.367,0,0,0,6.726-2.888V0h4.56V-28.2ZM125.134-3.8c-3.42,0-6.042-2.47-6.042-6.346s2.622-6.346,6.042-6.346,6.042,2.47,6.042,6.346S128.554-3.8,125.134-3.8Z" transform="translate(953 5853)" fill="#272727"/><g transform="translate(-38 10)" clip-path="url(#b)"><g transform="translate(951.971 5795.948) rotate(45)"><g clip-path="url(#c)"><path d="M22.363,47.459A2.67,2.67,0,0,1,19.69,44.9l-.112-2.137L11.9,45.409a.719.719,0,0,1-.953-.68V41.266a.719.719,0,0,1,.323-.6l7.924-5.223-.362-6.9-17.9,5.7A.719.719,0,0,1,0,33.559V28.2a.719.719,0,0,1,.307-.589L18.131,15.161l-.2-3.823C17.855,9.607,19.018,2.731,20.992.669a1.738,1.738,0,0,1,2.741,0c1.974,2.062,3.137,8.937,3.062,10.663l-.2,3.829L44.418,27.608a.719.719,0,0,1,.307.589v5.362a.719.719,0,0,1-.937.685l-17.9-5.7-.362,6.9,7.924,5.223a.719.719,0,0,1,.323.6v3.463a.719.719,0,0,1-.953.68l-7.678-2.646-.112,2.143a2.669,2.669,0,0,1-2.673,2.552m-2.117-6.405a.719.719,0,0,1,.718.681l.162,3.1a1.237,1.237,0,0,0,2.472.006l.163-3.1a.719.719,0,0,1,.952-.642l7.627,2.628V41.653L24.4,36.417a.719.719,0,0,1-.322-.638l.432-8.239a.719.719,0,0,1,.936-.648l17.846,5.683v-4L25.444,16.111a.719.719,0,0,1-.306-.627l.221-4.221c.075-1.721-1.182-8.051-2.664-9.6-.159-.167-.278-.226-.332-.226s-.172.059-.332.226c-1.482,1.549-2.739,7.878-2.664,9.605l.221,4.215a.719.719,0,0,1-.306.627L1.438,28.572v4l17.846-5.683a.719.719,0,0,1,.936.648l.432,8.239a.719.719,0,0,1-.322.638l-7.945,5.236V43.72l7.627-2.628a.717.717,0,0,1,.234-.039" fill="#272727"/></g></g></g></g></svg>