<svg xmlns="http://www.w3.org/2000/svg" width="146.853" height="229.172" viewBox="0 0 146.853 229.172"><g transform="translate(-420 -5435.992)"><path d="M129.345,0l-17.97,3.59L98.547,23.356l-24.637,4.1V15.269H55.949v7.059L45.038,31.434l-4.619,26.18-14.24,21.56,4.619,10L25.02,109.2l5.778,11.93L9.621,143.847,0,153.851l18.859,13.473,3.469,21.944H30.8L25.02,220.641v8.532H53.126l32.332-21.43V188.5l9.237-16.81-3.852-11.87,4.819-15.974,14.432-11.356,18.284,8.078h18.475l-2.884-8.078-4.619-8.854L135.5,107.785l-2.048-10.266,5.9-6.666-3.076-14.179h-15.66l-6.928-2.763.514-13.6,9.5-17.316,20.271-6.545V20.271l-10-5Z" transform="translate(420 5435.991)" fill="#c80421"/><path d="M17.15,24.824a7.28,7.28,0,0,0,7.293-7.293A7.5,7.5,0,0,0,17.15,9.978,7.28,7.28,0,0,0,9.857,17.27,7.687,7.687,0,0,0,17.15,24.824ZM4.909,5.029A17.312,17.312,0,0,1,29.391,29.512L17.15,41.753,4.909,29.512A17.784,17.784,0,0,1,4.909,5.029Z" transform="translate(481.479 5527.615)" fill="#fff" fill-rule="evenodd"/></g></svg>