<svg xmlns="http://www.w3.org/2000/svg" xmlns:xlink="http://www.w3.org/1999/xlink" width="43.322" height="54" viewBox="0 0 43.322 54"><defs><clipPath id="a"><rect width="43.322" height="54" fill="#272727"/></clipPath></defs><g clip-path="url(#a)"><path d="M32.305,0H13.991a2.179,2.179,0,0,0-2.175,2.177V5.908H8.083A2.179,2.179,0,0,0,5.908,8.085v3.731H2.175A2.179,2.179,0,0,0,0,13.993v37.83A2.179,2.179,0,0,0,2.175,54H29.331a2.179,2.179,0,0,0,2.176-2.177V48.092h3.732a2.179,2.179,0,0,0,2.176-2.177V42.184h3.732a2.179,2.179,0,0,0,2.176-2.177V11.017Zm.433,2.521,7.729,7.729H32.738Zm-2.709,49.3a.7.7,0,0,1-.7.7H2.175a.7.7,0,0,1-.7-.7V13.993a.7.7,0,0,1,.7-.7H5.908V45.915a2.179,2.179,0,0,0,2.175,2.177H30.029Zm5.908-5.908a.7.7,0,0,1-.7.7H8.083a.7.7,0,0,1-.7-.7V8.085a.7.7,0,0,1,.7-.7h3.732V40.007a2.179,2.179,0,0,0,2.175,2.177H35.937Zm5.908-5.908a.7.7,0,0,1-.7.7H13.991a.7.7,0,0,1-.7-.7V2.177a.7.7,0,0,1,.7-.7h17.27v10.25H41.845Z" fill="#272727"/><path d="M107.87,78.013H89.208a.738.738,0,0,0,0,1.477H107.87a.738.738,0,0,0,0-1.477" transform="translate(-70.97 -62.582)" fill="#272727"/><path d="M107.87,103.273H89.208a.738.738,0,0,0,0,1.477H107.87a.738.738,0,0,0,0-1.477" transform="translate(-70.97 -82.845)" fill="#272727"/><path d="M107.87,128.533H89.208a.738.738,0,0,0,0,1.477H107.87a.738.738,0,0,0,0-1.477" transform="translate(-70.97 -103.109)" fill="#272727"/><path d="M107.766,153.8H89.208a.739.739,0,0,0,0,1.477h18.558a.739.739,0,0,0,0-1.477" transform="translate(-70.97 -123.378)" fill="#272727"/><path d="M107.766,179.061H89.208a.738.738,0,0,0,0,1.477h18.558a.738.738,0,0,0,0-1.477" transform="translate(-70.97 -143.642)" fill="#272727"/></g></svg>