<svg xmlns="http://www.w3.org/2000/svg" width="36" height="36" viewBox="0 0 36 36"><g transform="translate(-1853 -8619.001)"><g transform="translate(1.5 1.5)"><path d="M8.967,0,8.315.652l2.469,2.469H0v.932H10.784L8.315,6.522l.652.652,3.587-3.587Z" transform="translate(1865.794 8645.351) rotate(-90)" fill="#272727"/><path d="M11.762.4H0A.4.4,0,0,1-.4,0,.4.4,0,0,1,0-.4H11.762a.4.4,0,0,1,.4.4A.4.4,0,0,1,11.762.4Z" transform="translate(1863.5 8629.5)" fill="#272727"/></g><path d="M18,1A17,17,0,0,0,5.979,30.021,17,17,0,1,0,30.021,5.979,16.889,16.889,0,0,0,18,1m0-1A18,18,0,1,1,0,18,18,18,0,0,1,18,0Z" transform="translate(1853 8619)" fill="#272727" opacity="0.15"/></g></svg>