<svg xmlns="http://www.w3.org/2000/svg" xmlns:xlink="http://www.w3.org/1999/xlink" width="1" height="10" viewBox="0 0 1 10"><defs><clipPath id="a"><rect width="10" height="1" transform="translate(675 2013)" fill="#fff"/></clipPath></defs><g transform="translate(2014 -675) rotate(90)" clip-path="url(#a)"><path d="M811.367.058h-1v-1h1Zm-6,0h-5v-1h5Zm-10,0h-5v-1h5Zm-10,0h-5v-1h5Zm-10,0h-5v-1h5Zm-10,0h-5v-1h5Zm-10,0h-5v-1h5Zm-10,0h-5v-1h5Zm-10,0h-5v-1h5Zm-10,0h-5v-1h5Zm-10,0h-5v-1h5Zm-10,0h-5v-1h5Zm-10,0h-5v-1h5Zm-10,0h-5v-1h5Zm-10,0h-5v-1h5Zm-10,0h-5v-1h5Zm-10,0h-5v-1h5Zm-10,0h-5v-1h5Zm-10,0h-5v-1h5Zm-10,0h-5v-1h5Zm-10,0h-5v-1h5Zm-10,0h-5v-1h5Zm-10,0h-5v-1h5Zm-10,0h-5v-1h5Zm-10,0h-5v-1h5Zm-10,0h-5v-1h5Zm-10,0h-5v-1h5Zm-10,0h-5v-1h5Zm-10,0h-5v-1h5Zm-10,0h-5v-1h5Zm-10,0h-5v-1h5Zm-10,0h-5v-1h5Zm-10,0h-5v-1h5Zm-10,0h-5v-1h5Zm-10,0h-5v-1h5Zm-10,0h-5v-1h5Zm-10,0h-5v-1h5Zm-10,0h-5v-1h5Zm-10,0h-5v-1h5Zm-10,0h-5v-1h5Zm-10,0h-5v-1h5Zm-10,0h-5v-1h5Zm-10,0h-5v-1h5Zm-10,0h-5v-1h5Zm-10,0h-5v-1h5Zm-10,0h-5v-1h5Zm-10,0h-5v-1h5Zm-10,0h-5v-1h5Zm-10,0h-5v-1h5Zm-10,0h-5v-1h5Zm-10,0h-5v-1h5Zm-10,0h-5v-1h5Zm-10,0h-5v-1h5Zm-10,0h-5v-1h5Zm-10,0h-5v-1h5Zm-10,0h-5v-1h5Zm-10,0h-5v-1h5Zm-10,0h-5v-1h5Zm-10,0h-5v-1h5Zm-10,0h-5v-1h5Zm-10,0h-5v-1h5Zm-10,0h-5v-1h5Zm-10,0h-5v-1h5Zm-10,0h-5v-1h5Zm-10,0h-5v-1h5Zm-10,0h-5v-1h5Zm-10,0h-5v-1h5Zm-10,0h-5v-1h5Zm-10,0h-5v-1h5Zm-10,0h-5v-1h5Zm-10,0h-5v-1h5Zm-10,0h-5v-1h5Zm-10,0h-5v-1h5Zm-10,0h-5v-1h5Zm-10,0h-5v-1h5Zm-10,0h-5v-1h5Zm-10,0h-5v-1h5Zm-10,0h-5v-1h5Zm-10,0h-5v-1h5Zm-10,0h-5v-1h5Zm-10,0h-5v-1h5Zm-10,0h-5v-1h5Z" transform="translate(674.633 2013.942)" fill="#2e2e2e"/></g></svg>