<svg xmlns="http://www.w3.org/2000/svg" xmlns:xlink="http://www.w3.org/1999/xlink" width="194" height="31.744" viewBox="0 0 194 31.744"><defs><clipPath id="a"><rect width="194" height="31.744" fill="#c80421"/></clipPath></defs><rect width="10.268" height="31.464" transform="translate(96.359 0.007)" fill="#c80421"/><g transform="translate(0 0)"><g clip-path="url(#a)"><path d="M150.283,7.968c-4.019,0-7.374,1.323-9.183,3.065V.015H130.832V31.479H141.1v-13c0-1.323,1.944-3.755,4.456-3.755,3.242,0,4.319,2.7,4.319,5.267V31.479h10.268V16.616c0-6.079-5.4-8.648-9.86-8.648" transform="translate(-66.079 -0.008)" fill="#c80421"/><path d="M103.17,32.831V27.2H99.39c-2.3,0-3.375-1.226-3.375-3.385v-7.3h6.226V10.579H96.015V3.307L85.747,7.065v3.514H79.676V16.52h6.071V27.157c0,3.514,1.584,5.674,4.727,5.978a55.05,55.05,0,0,0,12.7-.3" transform="translate(-40.242 -1.67)" fill="#c80421"/><path d="M304.718,32.831V27.2h-3.783c-2.3,0-3.376-1.226-3.376-3.385v-7.3h6.229V10.579H297.56V3.307L287.292,7.065v3.514h-6.071V16.52h6.071V27.157c0,3.514,1.589,5.674,4.728,5.978a55.064,55.064,0,0,0,12.7-.3" transform="translate(-142.037 -1.67)" fill="#c80421"/><path d="M34.894,31.465H46.035L29.119,0H16.228L0,31.465H11.145l2.365-4.584H32.427ZM17.485,19.171,22.771,8.922l5.515,10.249Z" transform="translate(0 0)" fill="#c80421"/><path d="M248.759,26.966c0-7.932-4.661-11.48-11.328-12.187a26.149,26.149,0,0,0-7.632,0c-6.874.5-11.834,5.589-11.834,12.187s4.624,11.01,11.7,11.821a25.639,25.639,0,0,0,7.547,0c4.56-.3,10.335-1.823,11.549-8.307H238.323c-1.009,4.152-8.913,5.064-9.519-1.519h19.955ZM228.635,23.8c0-2.735,2.719-3.549,5.132-3.549,2.385,0,5.1,1.117,5.1,3.549Z" transform="translate(-110.088 -7.323)" fill="#c80421"/><path d="M360.55,26.966c0-7.932-4.66-11.48-11.326-12.187a26.161,26.161,0,0,0-7.633,0c-6.873.5-11.834,5.589-11.834,12.187s4.62,11.01,11.7,11.821a25.648,25.648,0,0,0,7.548,0c4.56-.3,10.335-1.823,11.549-8.307H350.116c-1.012,4.152-8.916,5.064-9.523-1.519H360.55ZM340.423,23.8c0-2.735,2.722-3.549,5.134-3.549,2.383,0,5.106,1.117,5.106,3.549Z" transform="translate(-166.55 -7.323)" fill="#c80421"/></g></g></svg>