<svg xmlns="http://www.w3.org/2000/svg" xmlns:xlink="http://www.w3.org/1999/xlink" width="160" height="26.18" viewBox="0 0 160 26.18"><defs><clipPath id="a"><rect width="160" height="26.18" fill="#ba1e30"/></clipPath></defs><rect width="8.469" height="25.95" transform="translate(79.471 0.007)" fill="#ba1e30"/><g transform="translate(0 0)"><g clip-path="url(#a)"><path d="M146.874,6.574A11.17,11.17,0,0,0,139.3,9.1V.015h-8.468v25.95H139.3V15.243a3.9,3.9,0,0,1,3.675-3.1c2.674,0,3.562,2.226,3.562,4.344v9.474h8.468V13.706c0-5.013-4.457-7.132-8.132-7.132" transform="translate(-77.428 -0.009)" fill="#ba1e30"/><path d="M99.053,27.657V23.014H95.935a2.48,2.48,0,0,1-2.783-2.792V14.2h5.135V9.3H93.151v-6l-8.468,3.1V9.3H79.676v4.9h5.007v8.772c0,2.9,1.307,4.68,3.9,4.931a45.4,45.4,0,0,0,10.471-.251" transform="translate(-47.153 -1.957)" fill="#ba1e30"/><path d="M300.6,27.657V23.014h-3.12a2.48,2.48,0,0,1-2.784-2.792V14.2h5.137V9.3H294.7v-6l-8.468,3.1V9.3h-5.007v4.9h5.007v8.772c0,2.9,1.311,4.68,3.9,4.931a45.413,45.413,0,0,0,10.473-.251" transform="translate(-166.43 -1.957)" fill="#ba1e30"/><path d="M28.778,25.95h9.189L24.015,0H13.384L0,25.95H9.192l1.95-3.781h15.6ZM14.421,15.811,18.78,7.358l4.548,8.453Z" transform="translate(0 0)" fill="#ba1e30"/><path d="M243.362,24.782c0-6.542-3.844-9.468-9.343-10.051a21.566,21.566,0,0,0-6.294,0c-5.669.416-9.76,4.61-9.76,10.051s3.813,9.081,9.648,9.75a21.146,21.146,0,0,0,6.224,0c3.761-.251,8.524-1.5,9.525-6.851h-8.607c-.832,3.425-7.351,4.177-7.851-1.253h16.458Zm-16.6-2.615c0-2.256,2.242-2.927,4.233-2.927,1.967,0,4.209.921,4.209,2.927Z" transform="translate(-128.994 -8.581)" fill="#ba1e30"/><path d="M355.153,24.782c0-6.542-3.843-9.468-9.341-10.051a21.576,21.576,0,0,0-6.3,0c-5.669.416-9.76,4.61-9.76,10.051s3.81,9.081,9.647,9.75a21.153,21.153,0,0,0,6.225,0c3.761-.251,8.523-1.5,9.525-6.851h-8.605c-.835,3.425-7.353,4.177-7.854-1.253h16.46Zm-16.6-2.615c0-2.256,2.245-2.927,4.234-2.927,1.965,0,4.211.921,4.211,2.927Z" transform="translate(-195.153 -8.581)" fill="#ba1e30"/></g></g></svg>