<?xml version="1.0" encoding="utf-8"?>
<!-- Generator: Adobe Illustrator 28.0.0, SVG Export Plug-In . SVG Version: 6.00 Build 0)  -->
<svg version="1.1" id="_レイヤー_2" xmlns="http://www.w3.org/2000/svg" xmlns:xlink="http://www.w3.org/1999/xlink" x="0px"
	 y="0px" viewBox="0 0 408.9 27.7" style="enable-background:new 0 0 408.9 27.7;" xml:space="preserve">
<path d="M59.5,19.1c0,2.4,0.7,4.4,4,4.4c2.4,0,3.9-0.9,4.2-2.6h8c-0.3,2.4-2.2,4.1-4.3,5.1c-2,1-4.6,1.4-7.3,1.4
	c-9.2,0-12.8-3.1-12.8-10.3c0-5.8,5.4-9.1,12.3-9.1c9.3,0,12.3,4.3,12.3,11.1L59.5,19.1L59.5,19.1z M67.7,15.4c0-1-0.4-2-1.1-2.7
	c-0.7-0.8-1.7-1.2-3-1.2c-3,0.1-3.8,1.8-4,3.9H67.7L67.7,15.4z"/>
<path d="M107.1,8.6V5.8l8.7-2.6v5.4h5V13h-5v7.3c0,0.5-0.4,2.9,1.7,2.9c1.1,0,2.3,0,3.3-0.1v4.1c-2,0.3-3.4,0.4-4.7,0.4
	c-5.9,0-9.5-0.6-9-6.3V13h-4.5V8.6C102.6,8.6,107.1,8.6,107.1,8.6z"/>
<path d="M130,19.1c-0.1,2.4,0.7,4.4,4,4.4c2.4,0,3.9-0.9,4.2-2.6h8c-0.3,2.4-2.1,4.1-4.3,5.1c-2,1-4.6,1.4-7.3,1.4
	c-9.2,0-12.8-3.1-12.8-10.3c0-5.8,5.4-9.1,12.3-9.1c9.3,0,12.3,4.3,12.3,11.1L130,19.1L130,19.1z M138.3,15.4c0-1-0.4-2-1.1-2.7
	c-0.7-0.8-1.7-1.2-3-1.2c-3,0.1-3.8,1.8-4,3.9H138.3z"/>
<path d="M281.6,19.1c0,2.4,0.7,4.4,4,4.4c2.4,0,3.9-0.9,4.2-2.6h8c-0.3,2.4-2.1,4.1-4.3,5.1c-2,1-4.6,1.4-7.3,1.4
	c-9.2,0-12.8-3.1-12.8-10.3c0-5.8,5.4-9.1,12.3-9.1c9.3,0,12.3,4.3,12.3,11.1L281.6,19.1L281.6,19.1z M289.9,15.4c0-1-0.4-2-1-2.7
	c-0.7-0.8-1.7-1.2-3-1.2c-3,0.1-3.8,1.8-4,3.9H289.9z"/>
<path d="M168,27.5h-9.1V1.1h23.3v5.1H168v6.1h13.2v5.1H168L168,27.5L168,27.5z"/>
<path d="M306.7,27.5l13-26.4h11.1l13,26.4h-10.3l-2.2-5.1H318l-2.1,5.1H306.7L306.7,27.5z M329.1,17.2l-4.2-11h-0.1l-4.5,11H329.1
	L329.1,17.2z"/>
<path d="M22,8.9c-0.2-2.4-2.5-3.7-6.2-3.7c-5.2,0-6.2,4.9-6.2,8.9s1.1,8.4,6.2,8.4c3.8,0,6-1.4,6.2-3.9h9.6c0.1,6.6-7.8,9-15.8,9
	C5.5,27.5,0,22.5,0,13.7S5.5,0.1,15.8,0c8,0,15.9,2.2,15.8,8.9H22z"/>
<path d="M354.3,12.6L354.3,12.6c1.1-3,3.9-4.1,7.8-4v5.9c-0.6,0-1.2,0-1.8,0c-4.5,0-6.1,2.2-5.9,5.7v7.4h-8.7V13.9
	c0-1.6,0-2.7-0.3-4.7h8.8L354.3,12.6L354.3,12.6z"/>
<path d="M42.3,12.6L42.3,12.6c1.1-3,3.9-4.1,7.8-4v5.9c-0.6,0-1.2,0-1.8,0c-4.5,0-6.1,2.2-5.9,5.7v7.4h-8.7V13.9
	c0-1.6,0-2.7-0.3-4.7h8.8L42.3,12.6L42.3,12.6z"/>
<path d="M264.7,12.6L264.7,12.6c1.1-3,3.9-4.1,7.8-4v5.9c-0.6,0-1.2,0-1.8,0c-4.5,0-6.1,2.2-5.9,5.7v7.4H256V13.9
	c0-1.6,0-2.7-0.3-4.7h8.8L264.7,12.6L264.7,12.6z"/>
<path d="M93.7,26.9c-0.2-0.6-0.2-1.2-0.2-2.5h-0.1c-1.1,1.3-3,3-7.3,3c-5.4,0-8.3-2.3-8.2-6.1c0.1-4.5,5.2-6.3,12.7-6.3h2.7
	c0-1.6,0.5-3.9-3-3.8c-2.1,0.1-2.8,1.7-2.8,2.8h-8.2c0-2.6,1.7-4.1,4-4.9c2.4-0.9,5.3-1.1,7.9-1.1c4.7,0,10.3,1.6,10.2,5.7v9.4
	c0,0.8,0.2,1.6,0.5,3.8L93.7,26.9L93.7,26.9z M89.3,23.5c3.8,0,4.1-2.8,4.1-5.3c-1.8,0-3.6-0.1-4.8,0.4c-1.3,0.5-2.3,1.2-2.3,2.5
	S87.6,23.5,89.3,23.5z"/>
<path d="M213.2,8.6V5.8l8.7-2.6v5.4h5V13h-5v7.3c0,0.5-0.4,2.9,1.6,2.9c1.1,0,2.3,0,3.3-0.1v4.1c-2,0.3-3.4,0.4-4.7,0.4
	c-5.9,0-9.4-0.6-9-6.3V13h-4.5V8.6L213.2,8.6L213.2,8.6z"/>
<path d="M368.2,8.6V5.8l8.7-2.6v5.4h5V13h-5v7.3c0,0.5-0.4,2.9,1.6,2.9c1.1,0,2.3,0,3.3-0.1v4.1c-2,0.3-3.4,0.4-4.7,0.4
	c-5.9,0-9.5-0.6-9-6.3V13h-4.5V8.6L368.2,8.6L368.2,8.6z"/>
<path d="M198.5,24.9c-2,1.8-4.2,2.5-7.2,2.5c-4.9,0-8.6-2.5-8.6-6.6V8.6h8.7v10.8c0.1,1.8,0.6,3.7,3.3,3.7c4.3,0,3.7-3.8,3.7-4V8.6
	h8.7v13.6c0,1.6,0,2.7,0.3,4.7h-8.8L198.5,24.9L198.5,24.9z"/>
<path d="M245.1,24.9c-2,1.8-4.2,2.5-7.2,2.5c-4.9,0-8.6-2.5-8.6-6.6V8.6h8.7v10.8c0.1,1.8,0.6,3.7,3.3,3.7c4.3,0,3.7-3.8,3.7-4V8.6
	h8.7v13.6c0,1.6,0,2.7,0.3,4.7h-8.8L245.1,24.9L245.1,24.9z"/>
<path d="M383.8,20.9h7.8c0,1.2,0.5,2.2,4.1,2.2s4.2-0.7,4.2-1.7c0-0.6-0.4-1.1-1.6-1.2c-1.4-0.2-3.2-0.2-4.9-0.3
	c-3.7-0.2-6.2-0.6-7.5-1.5c-1.4-0.8-2.1-2.3-2.1-3.9c0-4.2,4.2-6.9,12.3-6.9c9.9,0,11.8,3.2,11.8,6.9H400c0-1.4-0.6-2.3-3.5-2.3
	s-3.9,0.7-3.9,1.7c0,0.7,0.4,1.1,1.9,1.4c1.3,0.2,3,0.2,5.1,0.3c2.7,0.2,5.1,0.4,6.6,1.1c1.9,0.9,2.6,2.5,2.6,4.3
	c0,3.2-2.1,6.7-12.9,6.7S383.8,23.9,383.8,20.9L383.8,20.9z"/>
</svg>
