<svg xmlns="http://www.w3.org/2000/svg" width="33.3" height="7.16" viewBox="0 0 33.3 7.16"><path d="M4.18.08a3.473,3.473,0,0,0,2.67-1.1L6.2-1.65a2.6,2.6,0,0,1-1.97.84A2.644,2.644,0,0,1,1.48-3.5,2.644,2.644,0,0,1,4.23-6.19a2.594,2.594,0,0,1,1.97.83l.65-.63A3.459,3.459,0,0,0,4.19-7.08,3.541,3.541,0,0,0,.48-3.5,3.538,3.538,0,0,0,4.18.08ZM8.28,0h4.79V-.87H9.28V-7h-1Zm8.97.08A3.547,3.547,0,0,0,20.96-3.5a3.547,3.547,0,0,0-3.71-3.58A3.558,3.558,0,0,0,13.52-3.5,3.558,3.558,0,0,0,17.25.08Zm0-.89A2.633,2.633,0,0,1,14.52-3.5a2.633,2.633,0,0,1,2.73-2.69A2.628,2.628,0,0,1,19.96-3.5,2.628,2.628,0,0,1,17.25-.81Zm7.28.89c1.85,0,2.71-.92,2.71-1.99,0-2.57-4.24-1.5-4.24-3.21,0-.61.51-1.11,1.7-1.11a3.615,3.615,0,0,1,1.92.57l.33-.8a4.118,4.118,0,0,0-2.25-.62c-1.84,0-2.68.92-2.68,2,0,2.6,4.24,1.52,4.24,3.23,0,.61-.52,1.08-1.73,1.08a3.6,3.6,0,0,1-2.31-.81l-.37.78A4.155,4.155,0,0,0,24.53.08ZM29.7-.87V-3.13h3.51v-.85H29.7V-6.13h3.94V-7H28.7V0h5.08V-.87Z" transform="translate(-0.48 7.08)" fill="#272727"/></svg>