<svg xmlns="http://www.w3.org/2000/svg" xmlns:xlink="http://www.w3.org/1999/xlink" width="187" height="34.713" viewBox="0 0 187 34.713"><defs><clipPath id="a"><rect width="187" height="34.713" fill="none"/></clipPath></defs><g transform="translate(0 0)" clip-path="url(#a)"><path d="M165.347,83.783a3.763,3.763,0,1,1-3.769-3.758,3.763,3.763,0,0,1,3.769,3.758" transform="translate(-104.725 -53.102)" fill="#009de8"/><path d="M62.871,3.943A2.789,2.789,0,0,0,61.23.176,3.227,3.227,0,0,0,57.344,1.9c-1.3,2.307-8.012,15.033-9.138,17.142s-2.545,5.126-3.724,4.667c-1.084-.422-2.362-5.047-2.905-6.367-.965-2.347-2.929-5.135-6.207-4.426-2.5.539-3.928,2.51-6.194,6.857a41.529,41.529,0,0,1-3.157,5.508c-2.326,3.175-3.638-2.041-4.407-4.738-1.031-3.62-2.913-8.741-7.019-8.735-2.294,0-4.739,1.346-7.782,6.272C5.035,20.953.881,29,.268,30.432A2.82,2.82,0,0,0,1.7,34.264a3.109,3.109,0,0,0,3.919-1.42c2.918-4.534,3.719-6.305,5.212-8.391,1.6-2.215,3.771-4.2,5.434,1.125,1.046,3.354,2.875,8.856,7.8,8.889,2.963.021,6.031-2.538,7.465-4.977,1.622-2.758,2.029-4.231,3.267-5.562.631-.679,1.571-.924,2.459,1.046.858,1.9,2.632,7.925,5.792,9.237,4.46,1.852,8.657-7.17,10.108-10.047,1.169-2.319,9.2-19,9.713-20.222" fill="#009de8"/><path d="M543.638,19.585c-.291-.866-.739-2.251-.906-2.767l-.05-.155a1,1,0,0,0-1.01-.709l-3.107,0a.605.605,0,0,0-.555.24.625.625,0,0,0-.075.573c.074.24.706,2.123,1.049,3.079a1.076,1.076,0,0,0,1.14.7l2.773,0c.44,0,.614-.134.7-.26a.734.734,0,0,0,.038-.7" transform="translate(-356.934 -10.586)" fill="#fff"/><path d="M524.523,16.66a.985.985,0,0,0-1-.678l-3.108,0a.607.607,0,0,0-.552.233.636.636,0,0,0-.078.582c.079.251.709,2.133,1.049,3.078a1.07,1.07,0,0,0,1.141.7l2.791,0a.8.8,0,0,0,.693-.256.716.716,0,0,0,.049-.7c-.343-1.023-.925-2.769-.986-2.954" transform="translate(-344.891 -10.605)" fill="#fff"/><path d="M237.42,18.682a1.333,1.333,0,0,0-.979-.334h.021l-27.125.035a.927.927,0,0,0-.708.319,1,1,0,0,0-.233.649l0,3.435a.941.941,0,0,0,.941.918h.153l19.772-.027h.8c.575,0,.736.1.872.282.3.392-.012,1.017-.053,1.166a16.622,16.622,0,0,1-8.277,10.562l-.232.124-.155-.213c-1.009-1.385-1.768-2.341-2.646-3.447l-.124-.165a1.692,1.692,0,0,0-1.22-.741h0l-4.579.007a.638.638,0,0,0-.633.4.779.779,0,0,0,.072.715,103.308,103.308,0,0,1,9.019,13.668,1.132,1.132,0,0,0,1.024.609H228.1a.61.61,0,0,0,.557-.36.684.684,0,0,0,0-.671,40.511,40.511,0,0,0-2.8-4.645l-.167-.246.243-.171c5.8-4.079,11.232-9.277,11.746-21.039a1.088,1.088,0,0,0-.252-.826" transform="translate(-138.285 -12.176)" fill="#fff"/><path d="M323.1,17.55a.92.92,0,0,0-.735-.317c-.521.006-2.993.019-4.5.024a1.29,1.29,0,0,0-1.075.712c-2.574,5.895-10.044,10.344-20.312,12.06-.664.131-.981.521-.994.967l.006,3.55a.882.882,0,0,0,.3.682,1.056,1.056,0,0,0,.829.254A39.841,39.841,0,0,0,308.425,32.5l.429-.2.016,12.6a.943.943,0,0,0,.973.944h.2l3.676-.005a.933.933,0,0,0,.894-.878L314.592,29.6l.132-.09A22.438,22.438,0,0,0,323.262,18.3a.889.889,0,0,0-.163-.75" transform="translate(-196.074 -11.436)" fill="#fff"/><path d="M400.47,29.766l.016-.285,8.668-.024a.944.944,0,0,0,.665-.285,1,1,0,0,0,.268-.636l-.005-3.417a.93.93,0,0,0-.945-.951h-.095l-8.512,0-.006-6.091a.943.943,0,0,0-.985-.947H399.4l-3.693.006a.913.913,0,0,0-.684.3.944.944,0,0,0-.251.64l.008,6.1-13.006.014a.956.956,0,0,0-.714.289.979.979,0,0,0-.264.686l.005,3.433a.934.934,0,0,0,.964.911h.125l12.846-.025-.02.322c-.457,7.438-4.023,9.561-10.729,10.934-.585.14-.916.426-.916.935l.005,3.534a.792.792,0,0,0,.3.637,1,1,0,0,0,.707.225c11.23-1.554,15.81-6.256,16.383-16.311" transform="translate(-252.688 -11.369)" fill="#fff"/><path d="M504.025,24.333a.93.93,0,0,0-.613-.253h-.16l-18.808.028-.011-6.092a.95.95,0,0,0-.268-.683.99.99,0,0,0-.727-.288h-.03l-3.595.006a.938.938,0,0,0-.932.946l.03,20.417c0,5.081,2,7.218,7.583,7.218h.447L503.9,45.6a.942.942,0,0,0,.874-.916l-.006-3.472a.943.943,0,0,0-.936-.95l-15.488.016h-.021a5.036,5.036,0,0,1-3.046-.584c-.754-.63-.828-1.539-.812-2.961l-.011-7.34,18.916-.028a.938.938,0,0,0,.949-.954l-.006-3.4a.9.9,0,0,0-.286-.675" transform="translate(-317.771 -11.311)" fill="#fff"/></g></svg>