<svg xmlns="http://www.w3.org/2000/svg" xmlns:xlink="http://www.w3.org/1999/xlink" width="88" height="88" viewBox="0 0 88 88"><defs><clipPath id="a"><rect width="88" height="88" fill="none"/></clipPath><clipPath id="b"><circle cx="44" cy="44" r="44" fill="none"/></clipPath></defs><g clip-path="url(#a)"><path d="M88,44A44,44,0,1,1,44,0,44,44,0,0,1,88,44" fill="#ededed"/></g><g clip-path="url(#b)"><path d="M138.147,87.234s7.792,2.945,7.221,15.377c-.541,11.777-3.344,35.1-3.344,35.1l-36.075.907s-9.517-33.017-2.3-47.526c7.94-15.972,32.115-11.829,34.5-3.86" transform="translate(-79.129 -62.858)" fill="#120d09"/><path d="M149.589,138.906a21.938,21.938,0,0,0,5.731-9.446c.752,1.033,1.892-.008,2.031-.971-.013-1.478,2.732-8.175-.368-7.917l-.04.083c2.106-28.494-33.442-28.457-31.315.012l-.046-.094c-3.1-.249-.356,6.427-.368,7.917.139.965,1.283,2.007,2.035.967a21.94,21.94,0,0,0,5.734,9.452,13.1,13.1,0,0,0,16.606,0" transform="translate(-97.285 -77.84)" fill="#fdbc91"/><path d="M181.447,285.038a12.4,12.4,0,0,1,.287-2.406l.059-.055a13.1,13.1,0,0,1-16.606,0l.058.054a12.533,12.533,0,0,1,.286,2.405,13.039,13.039,0,0,0,15.917,0" transform="translate(-129.489 -221.511)" fill="#f2ad80"/><path d="M101.329,305.867c-3.4-5.585-14.692-5.746-19.557-5.712-3.13,0-4.266-3.087-4.2-6.194a13.039,13.039,0,0,1-15.917,0c.067,3.109-1.065,6.191-4.2,6.195-4.865-.033-16.156.127-19.557,5.712a54.315,54.315,0,0,0-5.223,12.567h73.878a54.31,54.31,0,0,0-5.223-12.567" transform="translate(-25.614 -230.434)" fill="#fdbc91"/><path d="M159.349,116.736s4.753-12.358-.432-17.717c0,0-1.728-6.482-11.235-7.778s-22.393,4.8-18.888,22.883l1.507,4.018s3.121-19.3,25.418-17.567c0,0,3.8,4.926,3.63,16.161" transform="translate(-100.499 -71.393)" fill="#120d09"/><path d="M101.316,326.088c-3.4-5.585-14.692-5.746-19.557-5.712a3.654,3.654,0,0,1-2.115-.617c-3.269,1-6.738,11.8-10.123,11.8s-6.686-10.8-9.959-11.8a3.668,3.668,0,0,1-2.12.62c-4.865-.033-16.156.127-19.557,5.712a54.314,54.314,0,0,0-5.223,12.567H106.54a54.3,54.3,0,0,0-5.223-12.567" transform="translate(-25.604 -250.655)" fill="#005d96"/><path d="M146.482,315.957,153.163,327l-4.3,4.5L142.449,317.4Z" transform="translate(-111.665 -247.677)" fill="#fff"/><path d="M221.614,315.526l-6.681,11.042,4.3,4.5,6.418-14.108Z" transform="translate(-168.485 -247.34)" fill="#fff"/></g></svg>