<svg xmlns="http://www.w3.org/2000/svg" width="142" height="62.478" viewBox="0 0 142 62.478"><g transform="translate(-352 -2304)"><path d="M11.842-21.7H2.914V0h4.03V-6.262h4.9c5.7,0,9.238-2.945,9.238-7.719C21.08-18.786,17.546-21.7,11.842-21.7ZM11.656-9.672H6.944V-18.29h4.712c3.534,0,5.363,1.581,5.363,4.309S15.19-9.672,11.656-9.672ZM31.341.217c5.146,0,8.835-3.534,8.835-8.494s-3.689-8.463-8.835-8.463c-5.084,0-8.8,3.5-8.8,8.463S26.257.217,31.341.217Zm0-3.317a4.814,4.814,0,0,1-4.9-5.177,4.814,4.814,0,0,1,4.9-5.177A4.821,4.821,0,0,1,36.27-8.277,4.821,4.821,0,0,1,31.341-3.1ZM45.074-19.282a2.379,2.379,0,0,0,2.48-2.418,2.307,2.307,0,0,0-2.48-2.232,2.36,2.36,0,0,0-2.48,2.325A2.36,2.36,0,0,0,45.074-19.282ZM43.121,0H47V-16.554H43.121ZM60.7-16.74a7.2,7.2,0,0,0-5.7,2.325v-2.139H51.305V0H55.18V-8.37c0-3.317,1.86-4.991,4.619-4.991,2.48,0,3.937,1.426,3.937,4.371V0h3.875V-9.486C67.611-14.477,64.666-16.74,60.7-16.74ZM80.631-3.658a3.484,3.484,0,0,1-2.17.682c-1.488,0-2.294-.868-2.294-2.48V-13.33H80.6v-3.1H76.167v-3.782H72.292v3.782H69.564v3.1h2.728v7.967c0,3.658,2.077,5.58,5.7,5.58A6.089,6.089,0,0,0,81.716-.9ZM99.789.31c5.177,0,9.083-4.03,9.083-11.16s-3.906-11.16-9.083-11.16c-5.146,0-9.052,4.03-9.052,11.16S94.643.31,99.789.31Zm0-3.5c-2.945,0-4.991-2.418-4.991-7.657s2.046-7.657,4.991-7.657c2.976,0,5.022,2.418,5.022,7.657S102.765-3.193,99.789-3.193ZM109.554-21.7v3.379h4.588V0h4.03V-21.7Z" transform="translate(360 2336)" fill="#ba1e30"/><path d="M2,2V41H140V2H2M0,0H142V43H0Z" transform="translate(352 2304)" fill="#ba1e30"/><path d="M17669.043,10288.831h20.646l-20.646,20.646Z" transform="translate(-17317.043 -7943)" fill="#ba1e30"/></g></svg>