<svg xmlns="http://www.w3.org/2000/svg" xmlns:xlink="http://www.w3.org/1999/xlink" width="88" height="88" viewBox="0 0 88 88"><defs><clipPath id="a"><rect width="88" height="88" fill="none"/></clipPath><clipPath id="b"><circle cx="44" cy="44" r="44" fill="none"/></clipPath></defs><g clip-path="url(#a)"><path d="M88,44A44,44,0,1,1,44,0,44,44,0,0,1,88,44" fill="#ededed"/></g><g clip-path="url(#b)"><path d="M146.3,122.562a23.277,23.277,0,0,0,6.081-10.021c.8,1.1,2.008-.008,2.155-1.031-.013-1.568,2.9-8.673-.39-8.4l-.043.088c2.234-30.23-35.479-30.191-33.222.012l-.049-.1c-3.29-.264-.378,6.818-.391,8.4.148,1.024,1.362,2.13,2.159,1.025a23.279,23.279,0,0,0,6.083,10.027,13.9,13.9,0,0,0,17.618,0" transform="translate(-93.489 -63.137)" fill="#fdbc91"/><path d="M180.1,277.595a13.146,13.146,0,0,1,.3-2.552l.062-.058a13.9,13.9,0,0,1-17.618,0l.062.057a13.276,13.276,0,0,1,.3,2.552,13.833,13.833,0,0,0,16.886,0" transform="translate(-127.654 -215.559)" fill="#f2ad80"/><path d="M95.1,299.694c-3.608-5.926-15.587-6.1-20.749-6.06-3.321,0-4.526-3.275-4.456-6.572a13.833,13.833,0,0,1-16.886,0c.07,3.3-1.13,6.569-4.456,6.572-5.161-.035-17.14.135-20.748,6.06a57.611,57.611,0,0,0-5.542,13.333H100.64A57.611,57.611,0,0,0,95.1,299.694" transform="translate(-17.451 -225.026)" fill="#fdbc91"/><path d="M145.11,74.477a34.361,34.361,0,0,1-12.317-.314c-3.091-.61-6.325-.337-6.829,3.23a45.871,45.871,0,0,1-3.24,11.879,118.48,118.48,0,0,1-1.774-11.725C119.7,67.4,122.53,63.5,128.8,60.157a30.759,30.759,0,0,1,10.66-2.9c10.336-1,19.439,6.942,15.967,13.113a4.777,4.777,0,0,1,1.388,4.86c-.771,3.163-2.083,13.653-2.083,13.653a68.6,68.6,0,0,1-1.851-9.951c-.347-3.645-2.514-5.337-7.775-4.458" transform="translate(-94.584 -44.818)" fill="#6b3911"/><path d="M166.429,318.976l2.391-2.085-.441,0a4.3,4.3,0,0,1-1.19-.16c-7.041,6.689-16.383,6.69-23.424,0a4.327,4.327,0,0,1-1.185.159l-.369,0,2.751,2.3a16.524,16.524,0,0,0,21.466-.218" transform="translate(-111.479 -248.286)" fill="#00619e"/><path d="M95.1,323.523c-3.51-5.763-14.936-6.082-20.307-6.062L72.4,319.546a16.524,16.524,0,0,1-21.466.218l-2.751-2.3c-5.34-.022-16.854.272-20.38,6.062a57.611,57.611,0,0,0-5.542,13.332h78.378A57.611,57.611,0,0,0,95.1,323.523" transform="translate(-17.453 -248.856)" fill="#2099dc"/></g></svg>