<svg xmlns="http://www.w3.org/2000/svg" xmlns:xlink="http://www.w3.org/1999/xlink" width="88" height="88" viewBox="0 0 88 88"><defs><clipPath id="a"><rect width="88" height="88" fill="none"/></clipPath><clipPath id="b"><circle cx="44" cy="44" r="44" fill="none"/></clipPath></defs><g clip-path="url(#a)"><path d="M88,44A44,44,0,1,1,44,0,44,44,0,0,1,88,44" fill="#ededed"/></g><g clip-path="url(#b)"><path d="M146.3,122.562a23.274,23.274,0,0,0,6.081-10.022c.8,1.1,2.008-.008,2.155-1.03-.013-1.568,2.9-8.673-.39-8.4l-.043.088c2.234-30.23-35.479-30.191-33.222.012l-.049-.1c-3.29-.264-.378,6.818-.391,8.4.148,1.024,1.362,2.13,2.159,1.026a23.277,23.277,0,0,0,6.083,10.027,13.9,13.9,0,0,0,17.618,0" transform="translate(-93.489 -63.137)" fill="#fdbc91"/><path d="M180.1,277.595a13.144,13.144,0,0,1,.3-2.552l.062-.058a13.9,13.9,0,0,1-17.618,0l.062.058a13.277,13.277,0,0,1,.3,2.552,13.833,13.833,0,0,0,16.886,0" transform="translate(-127.654 -215.559)" fill="#f2ad80"/><path d="M95.1,299.694c-3.609-5.926-15.587-6.1-20.749-6.06-3.321,0-4.526-3.275-4.456-6.572a13.833,13.833,0,0,1-16.886,0c.07,3.3-1.13,6.569-4.456,6.572-5.161-.035-17.14.135-20.748,6.06a57.611,57.611,0,0,0-5.542,13.332H100.64A57.611,57.611,0,0,0,95.1,299.694" transform="translate(-17.451 -225.026)" fill="#fdbc91"/><path d="M149.229,79.811c-1.126-9.12-9.065-14.124-20.433-14.57s-11.639,5.441-11.639,5.441c-11.729,2.408-6.677,13.291-6.677,13.291l4.06,11.151c2.165-.625,1.534-8.474,4.06-15.343,1.579-4.293,6.541-3.067,10.041-1.545a24.657,24.657,0,0,0,7.014,1.8c6.039.7,7,6.988,7.58,11.158a11.875,11.875,0,0,0,1.53,3.925l1.54-3.374a35.629,35.629,0,0,0,2.575-7.922,14.219,14.219,0,0,0,.348-4.018" transform="translate(-85.758 -51.124)" fill="#38261b"/><path d="M95.1,312.752c-3.609-5.926-15.587-6.1-20.749-6.06a4.043,4.043,0,0,1-3.925-2.973l-8.973,7.5-8.973-7.5a4.045,4.045,0,0,1-3.926,2.972c-5.161-.035-17.14.135-20.748,6.06a57.61,57.61,0,0,0-5.542,13.333H100.64A57.611,57.611,0,0,0,95.1,312.752" transform="translate(-17.451 -238.084)" fill="#8bc977"/><path d="M147.843,303.719l8.973,7.5-5.22,6.155-7.68-10.685Z" transform="translate(-112.815 -238.084)" fill="#78ad67"/><path d="M212.581,303.719l-8.973,7.5,5.22,6.155,7.68-10.685Z" transform="translate(-159.607 -238.084)" fill="#78ad67"/></g></svg>