<svg xmlns="http://www.w3.org/2000/svg" width="636.285" height="121.68" viewBox="0 0 636.285 121.68"><path d="M70.642,1.69c19.435,0,36-6.929,46.982-19.773l-14.2-13.52a41.13,41.13,0,0,1-31.6,14.027c-24.505,0-42.25-17.238-42.25-41.574s17.745-41.574,42.25-41.574a41.545,41.545,0,0,1,31.6,13.858l14.2-13.351c-10.985-12.844-27.547-19.773-46.813-19.773-36.335,0-63.375,25.519-63.375,60.84S34.476,1.69,70.642,1.69ZM196.209-90.246v45.63c0,18.083-9.971,27.209-24.674,27.209-13.351,0-21.125-7.774-21.125-24.167V-90.246H129.285V-38.7c0,27.209,15.717,39.884,38.87,39.884,11.661,0,22.308-4.394,29.068-12.675V0h20.111V-90.246Zm72.5,91.429c25.35,0,40.9-10.985,40.9-27.885,0-35.321-55.77-19.1-55.77-37.349,0-5.915,6.084-10.14,18.928-10.14a49.4,49.4,0,0,1,25.857,6.76l8.112-16.055c-8.112-4.9-21.8-7.774-33.8-7.774-24.336,0-39.715,11.154-39.715,28.223,0,36,55.77,19.773,55.77,37.011,0,6.253-5.577,9.971-18.928,9.971-11.323,0-23.491-3.718-31.434-8.957L230.516-8.957C238.628-3.211,253.669,1.183,268.71,1.183ZM371.969-19.942a19,19,0,0,1-11.83,3.718c-8.112,0-12.506-4.732-12.506-13.52V-72.67H371.8v-16.9H347.633v-20.618H326.508V-89.57H311.636v16.9h14.872v43.433c0,19.942,11.323,30.42,31.1,30.42,7.605,0,15.21-2.028,20.28-6.084ZM428.584,1.183c28.054,0,48.165-19.266,48.165-46.306S456.638-91.26,428.584-91.26c-27.716,0-48,19.1-48,46.137S400.868,1.183,428.584,1.183Zm0-18.083c-15.21,0-26.7-10.985-26.7-28.223s11.492-28.223,26.7-28.223c15.379,0,26.871,10.985,26.871,28.223S443.963-16.9,428.584-16.9ZM606.71-91.26c-14.365,0-26.533,5.746-33.8,15.041-6.253-10.14-17.238-15.041-30.42-15.041-12.337,0-22.815,4.394-29.575,12.506V-90.246H492.8V0h21.125V-45.8c0-17.914,9.464-27.04,23.491-27.04,12.844,0,20.28,7.774,20.28,23.829V0h21.125V-45.8c0-17.914,9.633-27.04,23.491-27.04,12.844,0,20.28,7.774,20.28,23.829V0h21.125V-51.714C643.721-78.923,628.511-91.26,606.71-91.26Z" transform="translate(-7.436 119.99)" fill="#e6e6e6"/></svg>