<svg xmlns="http://www.w3.org/2000/svg" width="719.264" height="246.581" viewBox="0 0 719.264 246.581"><path d="M99.71-61.516c9.126-4.9,15.21-13.858,15.21-26.026,0-18.759-15.21-30.758-43.6-30.758H15.886V0H74.7C105.118,0,121-11.83,121-32.11,121-47.489,112.385-57.46,99.71-61.516ZM68.952-101.062c15.21,0,23.829,5.408,23.829,16.393,0,10.816-8.619,16.224-23.829,16.224h-31.1v-32.617Zm4.394,83.824H37.856V-51.376h35.49c16.562,0,25.519,5.239,25.519,17.069S89.908-17.238,73.346-17.238ZM172.718-91.26c-14.534,0-28.561,3.718-38.194,11.154l8.281,15.379c6.76-5.577,17.238-8.957,27.378-8.957,15.041,0,22.477,7.267,22.477,19.6v1.352H169.338c-27.378,0-37.518,11.83-37.518,26.871,0,15.717,13.013,27.04,33.631,27.04,13.52,0,23.322-4.394,28.392-12.168V0h19.942V-52.9C213.785-78.923,198.744-91.26,172.718-91.26ZM169.845-14.2c-10.816,0-17.238-4.9-17.238-12.506,0-6.591,3.887-12,18.252-12h21.8v10.478C189.111-18.928,180.154-14.2,169.845-14.2ZM236.6,0h21.125V-125.4H236.6Zm44.616,0h21.125V-125.4H281.216ZM127.764,28.74c-14.365,0-26.533,5.746-33.8,15.041C87.711,33.641,76.726,28.74,63.544,28.74c-12.337,0-22.815,4.394-29.575,12.506V29.754H13.858V120H34.983V74.2c0-17.914,9.464-27.04,23.491-27.04,12.844,0,20.28,7.774,20.28,23.829V120H99.879V74.2c0-17.914,9.633-27.04,23.491-27.04,12.844,0,20.28,7.774,20.28,23.829V120h21.125V68.286C164.775,41.077,149.565,28.74,127.764,28.74Zm101.231,92.443c28.054,0,48.165-19.266,48.165-46.306S257.049,28.74,228.995,28.74c-27.716,0-48,19.1-48,46.137S201.279,121.183,228.995,121.183Zm0-18.083c-15.21,0-26.7-10.985-26.7-28.223s11.492-28.223,26.7-28.223c15.379,0,26.871,10.985,26.871,28.223S244.374,103.1,228.995,103.1ZM359.463,29.754v45.63c0,18.083-9.971,27.209-24.674,27.209-13.351,0-21.125-7.774-21.125-24.167V29.754H292.539V81.3c0,27.209,15.717,39.884,38.87,39.884,11.661,0,22.308-4.394,29.068-12.675V120h20.111V29.754Zm95.823-1.014c-13.182,0-24.167,4.394-31.1,12.675V29.754H404.079V120H425.2V74.37c0-18.083,10.14-27.209,25.181-27.209,13.52,0,21.463,7.774,21.463,23.829V120h21.125V68.286C492.973,41.077,476.918,28.74,455.286,28.74Zm108.667,71.318a19,19,0,0,1-11.83,3.718c-8.112,0-12.506-4.732-12.506-13.52V47.33h24.167V30.43H539.617V9.812H518.492V30.43H503.62v16.9h14.872V90.763c0,19.942,11.323,30.42,31.1,30.42,7.6,0,15.21-2.028,20.28-6.084ZM664.846,75.384c0-28.223-19.266-46.644-45.63-46.644-26.871,0-46.644,19.266-46.644,46.137s19.6,46.306,49.855,46.306c15.548,0,28.223-5.07,36.335-14.7L647.439,93.467c-6.422,6.591-14.365,9.8-24.505,9.8-15.717,0-26.7-8.45-29.237-21.632h70.811C664.677,79.609,664.846,77.074,664.846,75.384ZM619.216,45.64c13.858,0,23.829,8.957,25.519,21.97H593.528C595.556,54.428,605.527,45.64,619.216,45.64Zm81.8-2.7V29.754H680.9V120h21.125V76.229c0-18.421,10.14-27.885,26.2-27.885a26.818,26.818,0,0,1,4.9.507V28.74C718.081,28.74,707.1,33.472,701.012,42.936Z" transform="translate(-13.858 125.398)" fill="#e6e6e6"/></svg>