<svg xmlns="http://www.w3.org/2000/svg" width="697.969" height="164.438" viewBox="0 0 697.969 164.438"><path d="M99.71-61.516c9.126-4.9,15.21-13.858,15.21-26.026,0-18.759-15.21-30.758-43.6-30.758H15.886V0H74.7C105.118,0,121-11.83,121-32.11,121-47.489,112.385-57.46,99.71-61.516ZM68.952-101.062c15.21,0,23.829,5.408,23.829,16.393,0,10.816-8.619,16.224-23.829,16.224h-31.1v-32.617Zm4.394,83.824H37.856V-51.376h35.49c16.562,0,25.519,5.239,25.519,17.069S89.908-17.238,73.346-17.238ZM178.8,1.183c28.054,0,48.165-19.266,48.165-46.306S206.856-91.26,178.8-91.26c-27.716,0-48,19.1-48,46.137S151.086,1.183,178.8,1.183Zm0-18.083c-15.21,0-26.7-10.985-26.7-28.223s11.492-28.223,26.7-28.223c15.379,0,26.871,10.985,26.871,28.223S194.181-16.9,178.8-16.9ZM294.229-91.26c-13.182,0-24.167,4.394-31.1,12.675V-90.246H243.022V0h21.125V-45.63c0-18.083,10.14-27.209,25.181-27.209,13.52,0,21.463,7.774,21.463,23.829V0h21.125V-51.714C331.916-78.923,315.861-91.26,294.229-91.26ZM422.669-125.4v46.306c-7.1-8.281-17.407-12.168-29.068-12.168-26.2,0-45.63,18.083-45.63,46.137S367.406,1.183,393.6,1.183c12.337,0,22.815-4.225,29.913-12.844V0h20.28V-125.4ZM396.136-16.9c-15.21,0-26.871-10.985-26.871-28.223s11.661-28.223,26.871-28.223,26.871,10.985,26.871,28.223S411.346-16.9,396.136-16.9Zm81.8-88.218c7.943,0,13.52-5.746,13.52-13.182,0-6.929-5.746-12.168-13.52-12.168s-13.52,5.577-13.52,12.675S470.158-105.118,477.932-105.118ZM467.285,0H488.41V-90.246H467.285Zm95.823-91.26c-13.182,0-24.167,4.394-31.1,12.675V-90.246H511.9V0h21.125V-45.63c0-18.083,10.14-27.209,25.181-27.209,13.52,0,21.463,7.774,21.463,23.829V0h21.125V-51.714C600.795-78.923,584.74-91.26,563.108-91.26Zm130.637,1.014v12C686.309-87.2,675.155-91.26,662.48-91.26c-25.857,0-45.63,17.238-45.63,43.433S636.623-4.056,662.48-4.056c12.168,0,22.815-3.887,30.251-12v4.732c0,18.252-8.788,27.378-28.73,27.378-12.506,0-25.35-4.225-33.293-10.816l-9.464,15.886c10.309,8.45,27.04,12.844,43.94,12.844,31.6,0,48.672-14.872,48.672-47.658V-90.246ZM665.691-21.97c-16.055,0-27.547-10.478-27.547-25.857,0-15.21,11.492-25.519,27.547-25.519,15.886,0,27.378,10.309,27.378,25.519C693.069-32.448,681.577-21.97,665.691-21.97Z" transform="translate(-15.887 130.469)" fill="#e6e6e6"/></svg>