<svg xmlns="http://www.w3.org/2000/svg" width="115.199" height="602.4" viewBox="0 0 115.199 602.4"><path d="M-555.04,1.6c18.4,0,34.08-6.56,44.48-18.72L-524-29.92a38.939,38.939,0,0,1-29.92,13.28c-23.2,0-40-16.32-40-39.36s16.8-39.36,40-39.36A39.332,39.332,0,0,1-524-82.24l13.44-12.64c-10.4-12.16-26.08-18.72-44.32-18.72-34.4,0-60,24.16-60,57.6S-589.28,1.6-555.04,1.6Zm118.88-87.04v43.2c0,17.12-9.44,25.76-23.36,25.76-12.64,0-20-7.36-20-22.88V-85.44h-20v48.8c0,25.76,14.88,37.76,36.8,37.76,11.04,0,21.12-4.16,27.52-12V0h19.04V-85.44Zm68.64,86.56c24,0,38.72-10.4,38.72-26.4,0-33.44-52.8-18.08-52.8-35.36,0-5.6,5.76-9.6,17.92-9.6a46.768,46.768,0,0,1,24.48,6.4l7.68-15.2c-7.68-4.64-20.64-7.36-32-7.36-23.04,0-37.6,10.56-37.6,26.72,0,34.08,52.8,18.72,52.8,35.04,0,5.92-5.28,9.44-17.92,9.44-10.72,0-22.24-3.52-29.76-8.48l-7.68,15.2C-396-3.04-381.76,1.12-367.52,1.12Zm97.76-20a17.984,17.984,0,0,1-11.2,3.52c-7.68,0-11.84-4.48-11.84-12.8V-68.8h22.88v-16H-292.8v-19.52h-20V-84.8h-14.08v16h14.08v41.12c0,18.88,10.72,28.8,29.44,28.8,7.2,0,14.4-1.92,19.2-5.76Zm53.6,20c26.56,0,45.6-18.24,45.6-43.84S-189.6-86.4-216.16-86.4c-26.24,0-45.44,18.08-45.44,43.68S-242.4,1.12-216.16,1.12Zm0-17.12c-14.4,0-25.28-10.4-25.28-26.72s10.88-26.72,25.28-26.72c14.56,0,25.44,10.4,25.44,26.72S-201.6-16-216.16-16ZM-47.52-86.4c-13.6,0-25.12,5.44-32,14.24-5.92-9.6-16.32-14.24-28.8-14.24-11.68,0-21.6,4.16-28,11.84V-85.44h-19.04V0h20V-43.36c0-16.96,8.96-25.6,22.24-25.6,12.16,0,19.2,7.36,19.2,22.56V0h20V-43.36c0-16.96,9.12-25.6,22.24-25.6,12.16,0,19.2,7.36,19.2,22.56V0h20V-48.96C-12.48-74.72-26.88-86.4-47.52-86.4Z" transform="translate(113.6 -12.48) rotate(-90)" fill="#ededed"/></svg>