<svg xmlns="http://www.w3.org/2000/svg" width="155.68" height="660.8" viewBox="0 0 155.68 660.8"><path d="M-594.56-58.24c8.64-4.64,14.4-13.12,14.4-24.64,0-17.76-14.4-29.12-41.28-29.12h-52.48V0h55.68c28.8,0,43.84-11.2,43.84-30.4C-574.4-44.96-582.56-54.4-594.56-58.24Zm-29.12-37.44c14.4,0,22.56,5.12,22.56,15.52,0,10.24-8.16,15.36-22.56,15.36h-29.44V-95.68Zm4.16,79.36h-33.6V-48.64h33.6c15.68,0,24.16,4.96,24.16,16.16S-603.84-16.32-619.52-16.32Zm99.84,17.44c26.56,0,45.6-18.24,45.6-43.84s-19.04-43.68-45.6-43.68c-26.24,0-45.44,18.08-45.44,43.68S-545.92,1.12-519.68,1.12Zm0-17.12c-14.4,0-25.28-10.4-25.28-26.72s10.88-26.72,25.28-26.72c14.56,0,25.44,10.4,25.44,26.72S-505.12-16-519.68-16ZM-410.4-86.4c-12.48,0-22.88,4.16-29.44,12V-85.44h-19.04V0h20V-43.2c0-17.12,9.6-25.76,23.84-25.76,12.8,0,20.32,7.36,20.32,22.56V0h20V-48.96C-374.72-74.72-389.92-86.4-410.4-86.4Zm121.6-32.32v43.84c-6.72-7.84-16.48-11.52-27.52-11.52-24.8,0-43.2,17.12-43.2,43.68s18.4,43.84,43.2,43.84c11.68,0,21.6-4,28.32-12.16V0h19.2V-118.72ZM-313.92-16c-14.4,0-25.44-10.4-25.44-26.72s11.04-26.72,25.44-26.72,25.44,10.4,25.44,26.72S-299.52-16-313.92-16Zm77.44-83.52c7.52,0,12.8-5.44,12.8-12.48,0-6.56-5.44-11.52-12.8-11.52s-12.8,5.28-12.8,12S-243.84-99.52-236.48-99.52ZM-246.56,0h20V-85.44h-20Zm90.72-86.4c-12.48,0-22.88,4.16-29.44,12V-85.44h-19.04V0h20V-43.2c0-17.12,9.6-25.76,23.84-25.76,12.8,0,20.32,7.36,20.32,22.56V0h20V-48.96C-120.16-74.72-135.36-86.4-155.84-86.4Zm123.68.96v11.36c-7.04-8.48-17.6-12.32-29.6-12.32-24.48,0-43.2,16.32-43.2,41.12S-86.24-3.84-61.76-3.84c11.52,0,21.6-3.68,28.64-11.36v4.48c0,17.28-8.32,25.92-27.2,25.92-11.84,0-24-4-31.52-10.24L-100.8,20c9.76,8,25.6,12.16,41.6,12.16,29.92,0,46.08-14.08,46.08-45.12V-85.44ZM-58.72-20.8c-15.2,0-26.08-9.92-26.08-24.48,0-14.4,10.88-24.16,26.08-24.16,15.04,0,25.92,9.76,25.92,24.16C-32.8-30.72-43.68-20.8-58.72-20.8Z" transform="translate(123.52 -13.12) rotate(-90)" fill="#ededed"/></svg>