<svg xmlns="http://www.w3.org/2000/svg" width="119.84" height="1014.56" viewBox="0 0 119.84 1014.56"><path d="M-939.84-58.24c8.64-4.64,14.4-13.12,14.4-24.64,0-17.76-14.4-29.12-41.28-29.12h-52.48V0h55.68c28.8,0,43.84-11.2,43.84-30.4C-919.68-44.96-927.84-54.4-939.84-58.24Zm-29.12-37.44c14.4,0,22.56,5.12,22.56,15.52,0,10.24-8.16,15.36-22.56,15.36H-998.4V-95.68Zm4.16,79.36h-33.6V-48.64h33.6c15.68,0,24.16,4.96,24.16,16.16S-949.12-16.32-964.8-16.32Zm94.08-70.08c-13.76,0-27.04,3.52-36.16,10.56l7.84,14.56c6.4-5.28,16.32-8.48,25.92-8.48,14.24,0,21.28,6.88,21.28,18.56v1.28h-22.08c-25.92,0-35.52,11.2-35.52,25.44,0,14.88,12.32,25.6,31.84,25.6,12.8,0,22.08-4.16,26.88-11.52V0h18.88V-50.08C-831.84-74.72-846.08-86.4-870.72-86.4Zm-2.72,72.96c-10.24,0-16.32-4.64-16.32-11.84,0-6.24,3.68-11.36,17.28-11.36h20.64v9.92C-855.2-17.92-863.68-13.44-873.44-13.44ZM-810.24,0h20V-118.72h-20ZM-768,0h20V-118.72h-20Zm190.24-86.4c-13.6,0-25.12,5.44-32,14.24-5.92-9.6-16.32-14.24-28.8-14.24-11.68,0-21.6,4.16-28,11.84V-85.44H-685.6V0h20V-43.36c0-16.96,8.96-25.6,22.24-25.6,12.16,0,19.2,7.36,19.2,22.56V0h20V-43.36c0-16.96,9.12-25.6,22.24-25.6,12.16,0,19.2,7.36,19.2,22.56V0h20V-48.96C-542.72-74.72-557.12-86.4-577.76-86.4Zm95.84,87.52c26.56,0,45.6-18.24,45.6-43.84s-19.04-43.68-45.6-43.68c-26.24,0-45.44,18.08-45.44,43.68S-508.16,1.12-481.92,1.12Zm0-17.12c-14.4,0-25.28-10.4-25.28-26.72s10.88-26.72,25.28-26.72c14.56,0,25.44,10.4,25.44,26.72S-467.36-16-481.92-16ZM-358.4-85.44v43.2c0,17.12-9.44,25.76-23.36,25.76-12.64,0-20-7.36-20-22.88V-85.44h-20v48.8c0,25.76,14.88,37.76,36.8,37.76,11.04,0,21.12-4.16,27.52-12V0h19.04V-85.44Zm90.72-.96c-12.48,0-22.88,4.16-29.44,12V-85.44h-19.04V0h20V-43.2c0-17.12,9.6-25.76,23.84-25.76,12.8,0,20.32,7.36,20.32,22.56V0h20V-48.96C-232-74.72-247.2-86.4-267.68-86.4ZM-164.8-18.88A17.984,17.984,0,0,1-176-15.36c-7.68,0-11.84-4.48-11.84-12.8V-68.8h22.88v-16h-22.88v-19.52h-20V-84.8h-14.08v16h14.08v41.12c0,18.88,10.72,28.8,29.44,28.8,7.2,0,14.4-1.92,19.2-5.76Zm95.52-23.36c0-26.72-18.24-44.16-43.2-44.16-25.44,0-44.16,18.24-44.16,43.68s18.56,43.84,47.2,43.84c14.72,0,26.72-4.8,34.4-13.92L-85.76-25.12c-6.08,6.24-13.6,9.28-23.2,9.28-14.88,0-25.28-8-27.68-20.48H-69.6C-69.44-38.24-69.28-40.64-69.28-42.24Zm-43.2-28.16c13.12,0,22.56,8.48,24.16,20.8H-136.8C-134.88-62.08-125.44-70.4-112.48-70.4Zm77.44-2.56V-85.44H-54.08V0h20V-41.44c0-17.44,9.6-26.4,24.8-26.4a25.39,25.39,0,0,1,4.64.48V-86.4C-18.88-86.4-29.28-81.92-35.04-72.96Z" transform="translate(118.72 -4.64) rotate(-90)" fill="#ededed"/></svg>