<svg xmlns="http://www.w3.org/2000/svg" xmlns:xlink="http://www.w3.org/1999/xlink" width="1318" height="70" viewBox="0 0 1318 70"><defs><clipPath id="a"><rect width="1318" height="70" transform="translate(-12685 7062)" fill="#fff" stroke="#707070" stroke-width="1"/></clipPath></defs><g transform="translate(12685 -7062)" clip-path="url(#a)"><g transform="translate(-12685.043 7061.964)"><path d="M39.022-20.11c10.944,0,20.473-3.3,26.889-10.661l-7.17-7.737c-5,5.189-11.416,7.642-18.775,7.642C26.474-30.865,19.3-38.13,19.3-49.074c0-15.473,10.567-28.21,27.455-28.21,7.831,0,13.492,2.736,17.077,7.737L72.7-77c-4.623-7.17-13.775-11.039-25.1-11.039-24.53,0-40.664,17.36-40.664,39.72C6.944-31.62,18.926-20.11,39.022-20.11ZM131.389-87.1l-5.378,27.078H91.857L97.235-87.1H84.97L71.761-21.053H84.026l5.567-28.021h34.154L118.18-21.053h12.171L143.56-87.1Zm64.44,66.043H208L191.583-87.1H179.412L136.484-21.053H149.6l9.529-15.284h33.21ZM165.165-45.961,183.374-75.02l6.7,29.059Zm48.967,24.908h46.8L263-31.431H228.473L239.606-87.1H227.34Zm54.156,0h46.8l2.076-10.378H282.628L293.761-87.1H281.5Zm113.5-55.76L383.864-87.1H335.652L322.443-21.053h49.533l2.076-10.284H336.69l3.585-18.209h32.078l1.981-10.1H342.35l3.4-17.171ZM442.925-87.1l-9.152,46.23L406.6-87.1h-10.1L383.3-21.053h12.171l9.246-46.23,27.078,46.23h10.1L455.1-87.1ZM505.1-33.979a27.151,27.151,0,0,1-12.831,3.113c-13.964,0-21.134-7.359-21.134-18.209,0-15.85,10.944-28.21,28.116-28.21,8.02,0,13.869,2.17,18.209,7.453l8.869-7.359c-5.472-6.982-14.435-10.85-26.512-10.85-24.908,0-41.041,17.36-41.041,39.72,0,16.794,12.265,28.21,32.078,28.21a40.189,40.189,0,0,0,24.625-8.114l5.378-26.606h-11.6Zm82.083-42.834L589.259-87.1H541.047L527.838-21.053h49.533l2.076-10.284H542.085l3.585-18.209h32.078l1.981-10.1H547.746l3.4-17.171Z" transform="translate(-6.944 90.328)" fill="#fff" stroke="#fff" stroke-width="1"/><path d="M5.084-21.053H17.349L30.558-87.1H18.293ZM92.45-87.1,83.3-40.866,56.126-87.1h-10.1L32.822-21.053H44.993l9.246-46.23,27.078,46.23h10.1L104.621-87.1Zm74.063,0-9.152,46.23L130.189-87.1h-10.1L106.885-21.053h12.171l9.246-46.23,27.078,46.23h10.1L178.684-87.1ZM213.97-20.11c24.342,0,40.475-17.36,40.475-39.72,0-16.7-11.7-28.21-31.607-28.21-24.342,0-40.475,17.36-40.475,39.72C182.364-31.62,194.063-20.11,213.97-20.11Zm1.038-10.756c-13.209,0-20.285-7.359-20.285-18.209,0-15.284,10.378-28.21,26.983-28.21,13.209,0,20.379,7.359,20.379,18.209C242.086-43.791,231.613-30.865,215.008-30.865ZM316.715-87.1,284.259-36.337,272.466-87.1H259.823L275.39-21.053h12.077L329.452-87.1Zm52.174,66.043H381.06L364.644-87.1H352.473L309.544-21.053h13.114l9.529-15.284H365.4ZM338.226-45.961,356.435-75.02l6.7,29.059Zm59.062,24.908h12.265l11.039-55.665H442.48L444.65-87.1H388.608l-2.076,10.378h21.889Zm41.041,0h12.265L463.8-87.1H451.538Zm60.76.943c24.342,0,40.475-17.36,40.475-39.72,0-16.7-11.7-28.21-31.607-28.21-24.342,0-40.475,17.36-40.475,39.72C467.483-31.62,479.182-20.11,499.089-20.11Zm1.038-10.756c-13.209,0-20.285-7.359-20.285-18.209,0-15.284,10.378-28.21,26.983-28.21,13.209,0,20.379,7.359,20.379,18.209C527.2-43.791,516.732-30.865,500.127-30.865ZM602.777-87.1l-9.152,46.23L566.453-87.1h-10.1L543.15-21.053H555.32l9.246-46.23,27.078,46.23h10.1L614.948-87.1Z" transform="translate(650.892 90.328)" fill="#fff"/><path d="M64.67-35.261c-.135-2.709-3.115-2.709-5.011-3.386A37.557,37.557,0,0,1,56.137-40a60.01,60.01,0,0,1-10.564-6.23l1.625-.813c2.844-1.354,5.824-2.438,8.668-3.657,1.9-.813,4.6-1.625,3.657-4.2-1.354-3.521-5.282-.948-7.313,0-3.657,1.761-7.313,3.386-10.97,5.147a85.507,85.507,0,0,1-9.751-10.022c2.3-2.573,4.469-5.282,6.636-7.991,3.386-4.334,7.313-9.21,8.668-14.627,1.49-5.959-2.032-10.97-7.449-13.273-8.4-3.521-19.638-.271-22.076,9.21-1.625,6.23.677,13,3.521,18.555a61.955,61.955,0,0,0,4.876,7.855C19.976-53.815,12.121-45.418,11.308-44.2c-2.3,3.521-2.032,7.584,2.844,8.262,5.282.813,16.117-3.386,26.545-8.126A63.465,63.465,0,0,0,61.148-32.552,2.709,2.709,0,0,0,64.67-35.261ZM22.143-77.246c-.948-3.521-1.083-7.72.948-10.835,2.844-4.334,8.939-5.282,13.543-3.657,6.365,2.3,7.043,6.095,4.334,11.377s-6.5,10.022-10.158,14.492a23.753,23.753,0,0,0-2.032,2.438A46.38,46.38,0,0,1,22.143-77.246ZM35.551-47.179c-8.4,3.521-9.751,4.334-18.555,6.5-1.625.406-2.844-.135-1.625-1.49,2.438-2.709,5.824-5.824,8.262-8.532l4.876-5.553a81.162,81.162,0,0,0,8.126,8.668Z" transform="translate(583.543 97.048)" fill="#91e4eb"/></g></g></svg>